<svg xmlns="http://www.w3.org/2000/svg" xmlns:xlink="http://www.w3.org/1999/xlink" width="108" height="108" viewBox="0 0 108 108">
  <defs>
    <filter id="Trazado_982547" x="0" y="0" width="108" height="108" filterUnits="userSpaceOnUse">
      <feOffset dy="3" input="SourceAlpha"/>
      <feGaussianBlur stdDeviation="3" result="blur"/>
      <feFlood flood-opacity="0.161"/>
      <feComposite operator="in" in2="blur"/>
      <feComposite in="SourceGraphic"/>
    </filter>
  </defs>
  <g id="Grupo_1173639" data-name="Grupo 1173639" transform="translate(-745.622 -1189.719)">
    <g id="Grupo_1173555" data-name="Grupo 1173555" transform="translate(754.622 1195.719)">
      <g id="Grupo_1172017" data-name="Grupo 1172017" transform="translate(0)">
        <g id="Grupo_1167337" data-name="Grupo 1167337" transform="translate(0)">
          <g id="Grupo_1166720" data-name="Grupo 1166720">
            <g id="Grupo_1164305" data-name="Grupo 1164305">
              <g id="Grupo_1163948" data-name="Grupo 1163948">
                <g id="Grupo_1158168" data-name="Grupo 1158168">
                  <g id="Grupo_1152576" data-name="Grupo 1152576">
                    <g id="Grupo_1148633" data-name="Grupo 1148633">
                      <g id="Grupo_1148525" data-name="Grupo 1148525">
                        <g transform="matrix(1, 0, 0, 1, -9, -6)" filter="url(#Trazado_982547)">
                          <g id="Trazado_982547-2" data-name="Trazado 982547" transform="translate(9 6)" fill="#e9f9fd">
                            <path d="M 45 88.5 C 39.12687683105469 88.5 33.43022537231445 87.35007476806641 28.06830024719238 85.08217620849609 C 22.88852500915527 82.89131164550781 18.23629951477051 79.75458526611328 14.2408504486084 75.75914764404297 C 10.24541282653809 71.76370239257812 7.108687400817871 67.11147308349609 4.917825222015381 61.93170166015625 C 2.649924993515015 56.56977462768555 1.5 50.87312316894531 1.5 45 C 1.5 39.12687683105469 2.649924993515015 33.43022537231445 4.917825222015381 28.06830024719238 C 7.108687400817871 22.88852500915527 10.24541282653809 18.23629951477051 14.2408504486084 14.2408504486084 C 18.23629951477051 10.24541282653809 22.88852500915527 7.108687400817871 28.06830024719238 4.917825222015381 C 33.43022537231445 2.649924993515015 39.12687683105469 1.5 45 1.5 C 50.87312316894531 1.5 56.56977462768555 2.649924993515015 61.93170166015625 4.917825222015381 C 67.11147308349609 7.108687400817871 71.76370239257812 10.24541282653809 75.75914764404297 14.2408504486084 C 79.75458526611328 18.23629951477051 82.89131164550781 22.88852500915527 85.08217620849609 28.06830024719238 C 87.35007476806641 33.43022537231445 88.5 39.12687683105469 88.5 45 C 88.5 50.87312316894531 87.35007476806641 56.56977462768555 85.08217620849609 61.93170166015625 C 82.89131164550781 67.11147308349609 79.75458526611328 71.76370239257812 75.75914764404297 75.75914764404297 C 71.76370239257812 79.75458526611328 67.11147308349609 82.89131164550781 61.93170166015625 85.08217620849609 C 56.56977462768555 87.35007476806641 50.87312316894531 88.5 45 88.5 Z" stroke="none"/>
                            <path d="M 45 3 C 39.32871246337891 3 33.82865524291992 4.110054016113281 28.65262985229492 6.299339294433594 C 23.65165710449219 8.414573669433594 19.15968322753906 11.44334411621094 15.301513671875 15.301513671875 C 11.44334411621094 19.15968322753906 8.414573669433594 23.65165710449219 6.299339294433594 28.65262985229492 C 4.110054016113281 33.82865524291992 3 39.32871246337891 3 45 C 3 50.67128753662109 4.110054016113281 56.17134475708008 6.299339294433594 61.34737396240234 C 8.414573669433594 66.34834289550781 11.44334411621094 70.84031677246094 15.301513671875 74.698486328125 C 19.15968322753906 78.55665588378906 23.65165710449219 81.58542633056641 28.65262985229492 83.70066070556641 C 33.82865524291992 85.88994598388672 39.32871246337891 87 45 87 C 50.67128753662109 87 56.17134475708008 85.88994598388672 61.34737396240234 83.70066070556641 C 66.34834289550781 81.58542633056641 70.84031677246094 78.55665588378906 74.698486328125 74.698486328125 C 78.55665588378906 70.84031677246094 81.58542633056641 66.34834289550781 83.70066070556641 61.34737396240234 C 85.88994598388672 56.17134475708008 87 50.67128753662109 87 45 C 87 39.32871246337891 85.88994598388672 33.82865524291992 83.70066070556641 28.65262985229492 C 81.58542633056641 23.65165710449219 78.55665588378906 19.15968322753906 74.698486328125 15.301513671875 C 70.84031677246094 11.44334411621094 66.34834289550781 8.414573669433594 61.34737396240234 6.299339294433594 C 56.17134475708008 4.110054016113281 50.67128753662109 3 45 3 M 45 0 C 69.85281372070312 0 90 20.14718627929688 90 45 C 90 69.85281372070312 69.85281372070312 90 45 90 C 20.14718627929688 90 0 69.85281372070312 0 45 C 0 20.14718627929688 20.14718627929688 0 45 0 Z" stroke="none" fill="#1d7083"/>
                          </g>
                        </g>
                      </g>
                    </g>
                  </g>
                </g>
              </g>
            </g>
          </g>
        </g>
      </g>
    </g>
    <g id="profits_500967" transform="translate(762.627 1211.978)">
      <rect id="Rectángulo_414970" data-name="Rectángulo 414970" width="10.63" height="17.649" transform="translate(10.421 38.71)" fill="#21d8de"/>
      <rect id="Rectángulo_414971" data-name="Rectángulo 414971" width="10.63" height="10.666" transform="translate(21.05 45.694)" fill="#ffeeac"/>
      <rect id="Rectángulo_414972" data-name="Rectángulo 414972" width="10.63" height="26.72" transform="translate(31.68 29.639)" fill="#f9d973"/>
      <rect id="Rectángulo_414973" data-name="Rectángulo 414973" width="10.63" height="21.017" transform="translate(42.31 35.342)" fill="#f77935"/>
      <g id="Grupo_1173638" data-name="Grupo 1173638" transform="translate(12.311 1.123)">
        <rect id="Rectángulo_414974" data-name="Rectángulo 414974" width="10.63" height="33.344" transform="translate(40.629 21.893)" fill="#e93233"/>
        <path id="Trazado_1029710" data-name="Trazado 1029710" d="M39.5,156.54a3.368,3.368,0,1,1,3.368-3.368A3.372,3.372,0,0,1,39.5,156.54Z" transform="translate(-36.131 -134.108)" fill="#e93233"/>
        <path id="Trazado_1029711" data-name="Trazado 1029711" d="M134.18,219.736a3.368,3.368,0,1,1,3.368-3.368A3.372,3.372,0,0,1,134.18,219.736Z" transform="translate(-120.182 -190.209)" fill="#e93233"/>
        <path id="Trazado_1029712" data-name="Trazado 1029712" d="M229.367,76.736a3.368,3.368,0,1,1,3.368-3.368A3.372,3.372,0,0,1,229.367,76.736Z" transform="translate(-204.683 -63.264)" fill="#e93233"/>
        <path id="Trazado_1029713" data-name="Trazado 1029713" d="M324.048,127.54a3.368,3.368,0,1,1,3.368-3.368A3.372,3.372,0,0,1,324.048,127.54Z" transform="translate(-288.734 -108.364)" fill="#e93233"/>
        <path id="Trazado_1029714" data-name="Trazado 1029714" d="M418.727,16.736a3.368,3.368,0,1,1,3.368-3.368A3.372,3.372,0,0,1,418.727,16.736Z" transform="translate(-372.783 -10)" fill="#e93233"/>
      </g>
      <path id="Trazado_1029715" data-name="Trazado 1029715" d="M73.2,0a4.487,4.487,0,0,0-3.676,7.065L64.538,12.9a4.482,4.482,0,0,0-5.269.99L56.3,12.293a4.491,4.491,0,1,0-7.7,1.937l-5.841,8.822a4.481,4.481,0,0,0-4.633,1.006l-3.4-2.048a4.495,4.495,0,1,0-1.413,1.77l3.645,2.192a4.491,4.491,0,1,0,7.663-1.658l5.855-8.844a4.48,4.48,0,0,0,4.762-1.2l2.97,1.594a4.491,4.491,0,1,0,8.038-1.508l4.983-5.831A4.49,4.49,0,1,0,73.2,0ZM28.376,20.186a2.245,2.245,0,1,1,2.245,2.245A2.248,2.248,0,0,1,28.376,20.186Zm12.875,9.34A2.245,2.245,0,1,1,43.5,27.281,2.248,2.248,0,0,1,41.252,29.527ZM51.938,13.472a2.245,2.245,0,1,1,2.245-2.245A2.248,2.248,0,0,1,51.938,13.472Zm10.63,5.7a2.245,2.245,0,1,1,2.245-2.245A2.248,2.248,0,0,1,62.568,19.176ZM73.2,6.736a2.245,2.245,0,1,1,2.245-2.245A2.248,2.248,0,0,1,73.2,6.736Z" transform="translate(-14.943)"/>
      <path id="Trazado_1029716" data-name="Trazado 1029716" d="M247.123,294.391a1.106,1.106,0,0,1-.219-.022,1.135,1.135,0,0,1-.21-.064,1.111,1.111,0,0,1-.194-.1,1.064,1.064,0,0,1-.171-.139,1.077,1.077,0,0,1-.139-.171,1.139,1.139,0,0,1-.167-.4,1.079,1.079,0,0,1,0-.438,1.081,1.081,0,0,1,.064-.211,1.138,1.138,0,0,1,.242-.364,1.145,1.145,0,0,1,.171-.14,1.1,1.1,0,0,1,.194-.1,1.138,1.138,0,0,1,.21-.065,1.105,1.105,0,0,1,.438,0,1.174,1.174,0,0,1,.211.065,1.13,1.13,0,0,1,.193.1,1.145,1.145,0,0,1,.171.14,1.063,1.063,0,0,1,.139.171,1.14,1.14,0,0,1,.1.193,1.174,1.174,0,0,1,.065.211,1.134,1.134,0,0,1,0,.438,1.136,1.136,0,0,1-.065.21,1.108,1.108,0,0,1-.1.194,1.091,1.091,0,0,1-.31.31,1.137,1.137,0,0,1-.193.1,1.173,1.173,0,0,1-.211.064A1.107,1.107,0,0,1,247.123,294.391Z" transform="translate(-210.128 -259.346)"/>
      <path id="Trazado_1029717" data-name="Trazado 1029717" d="M57.762,374.391a1.107,1.107,0,0,1-.219-.022,1.09,1.09,0,0,1-.211-.064,1.139,1.139,0,0,1-.193-.1,1.079,1.079,0,0,1-.171-.139,1.147,1.147,0,0,1-.14-.171,1.033,1.033,0,0,1-.1-.194,1.054,1.054,0,0,1-.064-.21,1.079,1.079,0,0,1,0-.438,1.088,1.088,0,0,1,.064-.211,1.06,1.06,0,0,1,.1-.193,1.137,1.137,0,0,1,.311-.311,1.135,1.135,0,0,1,.193-.1,1.179,1.179,0,0,1,.211-.065,1.106,1.106,0,0,1,.438,0,1.141,1.141,0,0,1,.21.065,1.108,1.108,0,0,1,.194.1,1.142,1.142,0,0,1,.171.14,1.076,1.076,0,0,1,.139.171,1.148,1.148,0,0,1,.1.193,1.171,1.171,0,0,1,.064.211,1.079,1.079,0,0,1,0,.438,1.133,1.133,0,0,1-.064.21,1.116,1.116,0,0,1-.1.194,1.09,1.09,0,0,1-.31.31,1.113,1.113,0,0,1-.194.1,1.059,1.059,0,0,1-.21.064A1.107,1.107,0,0,1,57.762,374.391Z" transform="translate(-42.026 -330.365)"/>
      <path id="Trazado_1029718" data-name="Trazado 1029718" d="M63.569,195H52.939a1.123,1.123,0,0,0-1.123,1.123v11.2H43.433v-4.581a1.123,1.123,0,0,0-1.123-1.123H31.68a1.123,1.123,0,0,0-1.123,1.123v14.932H22.173v-5.86A1.123,1.123,0,0,0,21.05,210.7H10.421A1.123,1.123,0,0,0,9.3,211.818v17.648a1.123,1.123,0,0,0,1.123,1.123H63.569a1.123,1.123,0,0,0,1.123-1.123V196.123A1.123,1.123,0,0,0,63.569,195ZM11.543,212.941h8.384v15.4H16.858V220.7a1.123,1.123,0,1,0-2.245,0v7.639h-3.07Zm10.63,6.983h8.384v8.42H22.173ZM32.8,218.8V203.869h8.384v24.475H38.118V211.723a1.123,1.123,0,1,0-2.245,0v16.621H32.8Zm10.63-9.228h8.384v18.771H43.432Zm19.014,18.771H54.062v-31.1h8.384Z" transform="translate(0 -173.107)"/>
    </g>
  </g>
</svg>
