<svg xmlns="http://www.w3.org/2000/svg" xmlns:xlink="http://www.w3.org/1999/xlink" width="108" height="108" viewBox="0 0 108 108">
  <defs>
    <filter id="Trazado_982547" x="0" y="0" width="108" height="108" filterUnits="userSpaceOnUse">
      <feOffset dy="3" input="SourceAlpha"/>
      <feGaussianBlur stdDeviation="3" result="blur"/>
      <feFlood flood-opacity="0.161"/>
      <feComposite operator="in" in2="blur"/>
      <feComposite in="SourceGraphic"/>
    </filter>
  </defs>
  <g id="Grupo_1173634" data-name="Grupo 1173634" transform="translate(-1219 -6168.167)">
    <g id="Grupo_1173457" data-name="Grupo 1173457" transform="translate(1228 6174.167)">
      <g id="Grupo_1172017" data-name="Grupo 1172017" transform="translate(0 0)">
        <g id="Grupo_1167337" data-name="Grupo 1167337" transform="translate(0)">
          <g id="Grupo_1166720" data-name="Grupo 1166720">
            <g id="Grupo_1164305" data-name="Grupo 1164305">
              <g id="Grupo_1163948" data-name="Grupo 1163948">
                <g id="Grupo_1158168" data-name="Grupo 1158168">
                  <g id="Grupo_1152576" data-name="Grupo 1152576">
                    <g id="Grupo_1148633" data-name="Grupo 1148633">
                      <g id="Grupo_1148525" data-name="Grupo 1148525">
                        <g transform="matrix(1, 0, 0, 1, -9, -6)" filter="url(#Trazado_982547)">
                          <g id="Trazado_982547-2" data-name="Trazado 982547" transform="translate(9 6)" fill="#e9f9fd">
                            <path d="M 45 88.5 C 39.12687683105469 88.5 33.43022537231445 87.35007476806641 28.06830024719238 85.08217620849609 C 22.88852500915527 82.89131164550781 18.23629951477051 79.75458526611328 14.2408504486084 75.75914764404297 C 10.24541282653809 71.76370239257812 7.108687400817871 67.11147308349609 4.917825222015381 61.93170166015625 C 2.649924993515015 56.56977462768555 1.5 50.87312316894531 1.5 45 C 1.5 39.12687683105469 2.649924993515015 33.43022537231445 4.917825222015381 28.06830024719238 C 7.108687400817871 22.88852500915527 10.24541282653809 18.23629951477051 14.2408504486084 14.2408504486084 C 18.23629951477051 10.24541282653809 22.88852500915527 7.108687400817871 28.06830024719238 4.917825222015381 C 33.43022537231445 2.649924993515015 39.12687683105469 1.5 45 1.5 C 50.87312316894531 1.5 56.56977462768555 2.649924993515015 61.93170166015625 4.917825222015381 C 67.11147308349609 7.108687400817871 71.76370239257812 10.24541282653809 75.75914764404297 14.2408504486084 C 79.75458526611328 18.23629951477051 82.89131164550781 22.88852500915527 85.08217620849609 28.06830024719238 C 87.35007476806641 33.43022537231445 88.5 39.12687683105469 88.5 45 C 88.5 50.87312316894531 87.35007476806641 56.56977462768555 85.08217620849609 61.93170166015625 C 82.89131164550781 67.11147308349609 79.75458526611328 71.76370239257812 75.75914764404297 75.75914764404297 C 71.76370239257812 79.75458526611328 67.11147308349609 82.89131164550781 61.93170166015625 85.08217620849609 C 56.56977462768555 87.35007476806641 50.87312316894531 88.5 45 88.5 Z" stroke="none"/>
                            <path d="M 45 3 C 39.32871246337891 3 33.82865524291992 4.110054016113281 28.65262985229492 6.299339294433594 C 23.65165710449219 8.414573669433594 19.15968322753906 11.44334411621094 15.301513671875 15.301513671875 C 11.44334411621094 19.15968322753906 8.414573669433594 23.65165710449219 6.299339294433594 28.65262985229492 C 4.110054016113281 33.82865524291992 3 39.32871246337891 3 45 C 3 50.67128753662109 4.110054016113281 56.17134475708008 6.299339294433594 61.34737396240234 C 8.414573669433594 66.34834289550781 11.44334411621094 70.84031677246094 15.301513671875 74.698486328125 C 19.15968322753906 78.55665588378906 23.65165710449219 81.58542633056641 28.65262985229492 83.70066070556641 C 33.82865524291992 85.88994598388672 39.32871246337891 87 45 87 C 50.67128753662109 87 56.17134475708008 85.88994598388672 61.34737396240234 83.70066070556641 C 66.34834289550781 81.58542633056641 70.84031677246094 78.55665588378906 74.698486328125 74.698486328125 C 78.55665588378906 70.84031677246094 81.58542633056641 66.34834289550781 83.70066070556641 61.34737396240234 C 85.88994598388672 56.17134475708008 87 50.67128753662109 87 45 C 87 39.32871246337891 85.88994598388672 33.82865524291992 83.70066070556641 28.65262985229492 C 81.58542633056641 23.65165710449219 78.55665588378906 19.15968322753906 74.698486328125 15.301513671875 C 70.84031677246094 11.44334411621094 66.34834289550781 8.414573669433594 61.34737396240234 6.299339294433594 C 56.17134475708008 4.110054016113281 50.67128753662109 3 45 3 M 45 0 C 69.85281372070312 0 90 20.14718627929688 90 45 C 90 69.85281372070312 69.85281372070312 90 45 90 C 20.14718627929688 90 0 69.85281372070312 0 45 C 0 20.14718627929688 20.14718627929688 0 45 0 Z" stroke="none" fill="#1d7083"/>
                          </g>
                        </g>
                      </g>
                    </g>
                  </g>
                </g>
              </g>
            </g>
          </g>
        </g>
      </g>
    </g>
    <g id="Search-Seo-Web-Stat-Magnifying_Glass" data-name="Search-Seo-Web-Stat-Magnifying Glass" transform="translate(1244.925 6192.874)">
      <path id="Trazado_1029619" data-name="Trazado 1029619" d="M53.935,10.477V46.982a3.477,3.477,0,0,1-3.477,3.477H10.477a3.466,3.466,0,0,1-3.164-2.051A3.417,3.417,0,0,1,7,46.982V10.477A3.477,3.477,0,0,1,10.477,7H50.459a3.417,3.417,0,0,1,1.425.313A3.466,3.466,0,0,1,53.935,10.477Z" transform="translate(-0.654 -0.654)" fill="#e6e7e8"/>
      <path id="Trazado_1029620" data-name="Trazado 1029620" d="M52.2,8.738V45.244A3.477,3.477,0,0,1,48.72,48.72H8.738a3.417,3.417,0,0,1-1.425-.313A3.417,3.417,0,0,1,7,46.982V10.477A3.477,3.477,0,0,1,10.477,7H50.459a3.417,3.417,0,0,1,1.425.313A3.417,3.417,0,0,1,52.2,8.738Z" transform="translate(-0.654 -0.654)" fill="#d8d7da"/>
      <path id="Trazado_1029621" data-name="Trazado 1029621" d="M49.935,6.477V9.953H3V6.477A3.477,3.477,0,0,1,6.477,3H46.459A3.477,3.477,0,0,1,49.935,6.477Z" transform="translate(-0.131 -0.131)" fill="#ff6243"/>
      <path id="Trazado_1029622" data-name="Trazado 1029622" d="M49.935,11V44.029a3.477,3.477,0,0,1-3.477,3.477H6.477A3.477,3.477,0,0,1,3,44.029V11Z" transform="translate(-0.131 -1.177)" fill="#e6e7e8"/>
      <path id="Trazado_1029623" data-name="Trazado 1029623" d="M44.512,55.408l.73,1.269H41.313a1.76,1.76,0,0,1,.574-1.738,2.588,2.588,0,0,1,.252-.174,1.733,1.733,0,0,1,2.373.643Z" transform="translate(-5.137 -6.873)" fill="#d8d7da"/>
      <path id="Trazado_1029624" data-name="Trazado 1029624" d="M59.168,51.953a3.477,3.477,0,0,1-3.477,3.477H47V46.738a1.738,1.738,0,1,1,3.477,0v5.215a1.8,1.8,0,0,1,1.738-1.738,1.751,1.751,0,0,1,1.738,1.738v.869a1.744,1.744,0,0,1,1.738-1.738,1.7,1.7,0,0,1,1.226.513,1.336,1.336,0,0,1,.148.165,1.686,1.686,0,0,1,.365,1.06v.869a1.744,1.744,0,0,1,1.738-1.738Z" transform="translate(-5.887 -5.626)" fill="#d8d7da"/>
      <path id="Trazado_1029625" data-name="Trazado 1029625" d="M58.157,51.692v7.823H42.746l-2.512-4.346L39.5,53.9a1.738,1.738,0,0,1,.382-2.208,2.587,2.587,0,0,1,.252-.174,1.733,1.733,0,0,1,2.373.643l1.738,3.007V44.738a1.738,1.738,0,1,1,3.477,0v5.215a1.8,1.8,0,0,1,1.738-1.738A1.751,1.751,0,0,1,51.2,49.953v.869a1.744,1.744,0,0,1,1.738-1.738,1.7,1.7,0,0,1,1.226.513,1.336,1.336,0,0,1,.148.165,1.686,1.686,0,0,1,.365,1.06v.869a1.738,1.738,0,0,1,3.477,0Z" transform="translate(-4.875 -5.364)" fill="#ffc477"/>
      <path id="Trazado_1029626" data-name="Trazado 1029626" d="M38.552,31.776A14.776,14.776,0,0,1,25.516,46.447l0,1.843H22.037V46.447A14.776,14.776,0,1,1,38.552,31.776Z" transform="translate(-0.916 -1.962)" fill="#d8d7da"/>
      <path id="Trazado_1029627" data-name="Trazado 1029627" d="M26.215,56.346v3.477H21V52.869A.869.869,0,0,1,21.869,52h3.477a.869.869,0,0,1,.869.869Z" transform="translate(-2.486 -6.541)" fill="#1e81ce"/>
      <path id="Trazado_1029628" data-name="Trazado 1029628" d="M25.477,47.88v3.581H22V47.88a14.538,14.538,0,0,0,3.477,0Z" transform="translate(-2.617 -6.002)" fill="#5aaae7"/>
      <path id="Trazado_1029629" data-name="Trazado 1029629" d="M25.477,47.88v2.608a14.539,14.539,0,0,1-3.477,0V47.88a14.538,14.538,0,0,0,3.477,0Z" transform="translate(-2.617 -6.002)" fill="#3d9ae2"/>
      <path id="Trazado_1029630" data-name="Trazado 1029630" d="M36.552,29.776A14.776,14.776,0,0,1,23.516,44.447a14.539,14.539,0,0,1-3.478,0A14.776,14.776,0,1,1,36.552,29.776Z" transform="translate(-0.654 -1.7)" fill="#5aaae7"/>
      <circle id="Elipse_11866" data-name="Elipse 11866" cx="11.299" cy="11.299" r="11.299" transform="translate(9.823 16.776)" fill="#e6e7e8"/>
      <path id="Trazado_1029631" data-name="Trazado 1029631" d="M31.477,28V40.377A11.251,11.251,0,0,1,28,42.228V28Z" transform="translate(-3.402 -3.402)" fill="#00ccb3"/>
      <path id="Trazado_1029632" data-name="Trazado 1029632" d="M27.477,31V42.621A11.239,11.239,0,0,1,24,43.168V31Z" transform="translate(-2.878 -3.794)" fill="#3d9ae2"/>
      <path id="Trazado_1029633" data-name="Trazado 1029633" d="M23.477,30.215V42.383A11.239,11.239,0,0,1,20,41.836V25h3.477Z" transform="translate(-2.355 -3.009)" fill="#ff9811"/>
      <path id="Trazado_1029634" data-name="Trazado 1029634" d="M19.477,33v9.882A11.251,11.251,0,0,1,16,41.031V33Z" transform="translate(-1.832 -4.056)" fill="#ff6243"/>
      <path id="Trazado_1029635" data-name="Trazado 1029635" d="M42,14h1.738v1.738H42Z" transform="translate(-5.233 -1.57)"/>
      <path id="Trazado_1029636" data-name="Trazado 1029636" d="M46,14h6.953v1.738H46Z" transform="translate(-5.756 -1.57)"/>
      <path id="Trazado_1029637" data-name="Trazado 1029637" d="M42,18H52.43v1.738H42Z" transform="translate(-5.233 -2.093)"/>
      <path id="Trazado_1029638" data-name="Trazado 1029638" d="M44,26h8.692v1.738H44Z" transform="translate(-5.495 -3.14)"/>
      <path id="Trazado_1029639" data-name="Trazado 1029639" d="M44,30h8.692v1.738H44Z" transform="translate(-5.495 -3.663)"/>
      <path id="Trazado_1029640" data-name="Trazado 1029640" d="M42,22h6.953v1.738H42Z" transform="translate(-5.233 -2.617)"/>
      <path id="Trazado_1029641" data-name="Trazado 1029641" d="M52,22h1.738v1.738H52Z" transform="translate(-6.541 -2.617)"/>
      <path id="Trazado_1029642" data-name="Trazado 1029642" d="M50.6,5.555A4.346,4.346,0,0,0,46.328,2H6.346A4.346,4.346,0,0,0,2,6.346V42.851a4.346,4.346,0,0,0,3.555,4.268,4.346,4.346,0,0,0,4.268,3.555h7.823v2.608a.869.869,0,0,0,.869.869h5.215a.869.869,0,0,0,.869-.869V50.674H34.855l2.26,3.911,1.5-.869L35.376,48.1A.878.878,0,0,1,35.7,46.91a.86.86,0,0,1,1.182.322l1.738,3.007a.888.888,0,0,0,.982.409.869.869,0,0,0,.643-.843V39.374a.869.869,0,0,1,1.738,0V47.2a.869.869,0,1,0,1.738,0V44.589a.933.933,0,0,1,.869-.869.869.869,0,0,1,.869.869V47.2a.869.869,0,1,0,1.738,0V45.459a.869.869,0,0,1,1.738,0v2.608a.869.869,0,0,0,1.738,0V46.328a.869.869,0,1,1,1.738,0V54.15H54.15V9.823A4.346,4.346,0,0,0,50.6,5.555Zm-32.95,43.38H9.823A2.616,2.616,0,0,1,7.371,47.2H17.645Zm5.215,3.477H19.383V46.328H22.86Zm-2.608-7.823v-.913c.287.017.574.043.869.043s.582-.026.869-.043v.913Zm.869-2.608A13.907,13.907,0,1,1,35.029,28.075,13.907,13.907,0,0,1,21.122,41.982ZM24.6,48.935V47.2h8.979a2.608,2.608,0,0,0,.278,1.738Zm24.337-6.084c0,.052-.017.1-.017.165a2.515,2.515,0,0,0-.852-.165,2.55,2.55,0,0,0-1.278.339,2.608,2.608,0,0,0-2.2-1.208,2.451,2.451,0,0,0-.869.165V39.374a2.608,2.608,0,1,0-5.215,0v6.084H37.5a2.6,2.6,0,0,0-2.668-.052l-.078.052h-10.4a1.664,1.664,0,0,0-.626-.626V43.486a15.645,15.645,0,1,0-5.215,0v1.347a1.664,1.664,0,0,0-.626.626H6.346a2.615,2.615,0,0,1-2.608-2.608V10.692h45.2Zm0-33.9H3.738V6.346A2.615,2.615,0,0,1,6.346,3.738H46.328a2.615,2.615,0,0,1,2.608,2.608Zm3.477,34.923a2.442,2.442,0,0,0-1.886.07,4.211,4.211,0,0,0,.148-1.1V7.371a2.616,2.616,0,0,1,1.738,2.451Z" transform="translate(0)"/>
      <path id="Trazado_1029643" data-name="Trazado 1029643" d="M22.168,18A12.168,12.168,0,1,0,34.337,30.168,12.168,12.168,0,0,0,22.168,18ZM17.823,39.634a9.852,9.852,0,0,1-1.738-1.008V31.907h1.738Zm3.477.921a11.34,11.34,0,0,1-1.738-.3V24.953H21.3Zm3.477-.3a11.34,11.34,0,0,1-1.738.3V30.168h1.738Zm3.477-1.634a9.852,9.852,0,0,1-1.738,1.008V27.561h1.738Zm1.738-1.582V26.692a.869.869,0,0,0-.869-.869H25.645a.869.869,0,0,0-.869.869V28.43H23.038V24.084a.869.869,0,0,0-.869-.869H18.692a.869.869,0,0,0-.869.869v6.084H15.215a.869.869,0,0,0-.869.869v6.006a10.43,10.43,0,1,1,15.645,0Z" transform="translate(-1.047 -2.093)"/>
      <path id="Trazado_1029644" data-name="Trazado 1029644" d="M6,6H7.738V7.738H6Z" transform="translate(-0.523 -0.523)"/>
      <path id="Trazado_1029645" data-name="Trazado 1029645" d="M10,6h1.738V7.738H10Z" transform="translate(-1.047 -0.523)"/>
      <path id="Trazado_1029646" data-name="Trazado 1029646" d="M14,6h1.738V7.738H14Z" transform="translate(-1.57 -0.523)"/>
    </g>
  </g>
</svg>
