<svg xmlns="http://www.w3.org/2000/svg" width="30.9" height="30.897" viewBox="0 0 30.9 30.897">
  <g id="folder_12311333" transform="translate(-2.112 -2.115)">
    <g id="Grupo_1173434" data-name="Grupo 1173434" transform="translate(2.112 2.115)">
      <path id="Trazado_1028645" data-name="Trazado 1028645" d="M32.554,16.466a1.9,1.9,0,0,0-1.4-.659l-.477-.009V14.192a2.357,2.357,0,0,0-2.352-2.354V7.3c0-.01-.005-.019-.006-.029a.461.461,0,0,0-.024-.12.445.445,0,0,0-.016-.044.463.463,0,0,0-.092-.137l-4.72-4.719a.464.464,0,0,0-.408-.132H8.933A2.348,2.348,0,0,0,6.588,4.466v7.372a2.357,2.357,0,0,0-2.355,2.354v3.452H4.006a1.894,1.894,0,0,0-1.869,2.2L3.978,31.028a2.361,2.361,0,0,0,2.338,1.984H28.934a2.375,2.375,0,0,0,2.349-2.059L33,17.947a1.9,1.9,0,0,0-.441-1.482ZM23.6,3.71,24.84,4.948l1.887,1.886H24.07a.469.469,0,0,1-.468-.468Zm4.726,9.064a1.42,1.42,0,0,1,1.414,1.418v1.586l-1.414-.028ZM8.933,3.057H22.665V6.366a1.406,1.406,0,0,0,1.4,1.4h3.319v7.964l-12.584-.242h0a1.965,1.965,0,0,0-.435.048,1.884,1.884,0,0,0-1.085.683l-.462.6-.346.45a1,1,0,0,1-.744.368H7.547V12.306a.451.451,0,0,0-.023-.116V4.466A1.41,1.41,0,0,1,8.933,3.057ZM5.169,14.192a1.42,1.42,0,0,1,1.419-1.418v4.87H5.169Zm26.9,3.633L30.355,30.831a1.436,1.436,0,0,1-1.42,1.245H6.316a1.427,1.427,0,0,1-1.414-1.2L3.061,19.693a.957.957,0,0,1,.945-1.112h.686l.009,0h0l2.346,0,.009,0h4.677a2.013,2.013,0,0,0,1.485-.733l.313-.408.5-.646a.921.921,0,0,1,.076-.078,1,1,0,0,1,.684-.288l13.061.253.01,0,3.278.063a.957.957,0,0,1,.931,1.082Z" transform="translate(-2.112 -2.115)"/>
      <path id="Trazado_1028646" data-name="Trazado 1028646" d="M31.668,41.807a2.388,2.388,0,0,0-1.081-.267h-9.61c-.013,0-.024,0-.037,0a2.452,2.452,0,0,0-.446.045c-.031.006-.06.02-.09.027a2.392,2.392,0,0,0-.367.114l-.01.006a2.417,2.417,0,0,0,.95,4.64h9.61c.017,0,.033,0,.05-.005a2.422,2.422,0,0,0,.428-.043,2.353,2.353,0,0,0,.233-.07c.073-.023.148-.038.218-.068a2.387,2.387,0,0,0,.257-.137c.052-.03.108-.052.158-.086s.121-.1.181-.147.128-.094.186-.151a2.406,2.406,0,0,0-.629-3.86Zm-10.69,3.632a1.479,1.479,0,0,1-.354-2.916c.019,0,.038-.013.057-.017a1.488,1.488,0,0,1,.261-.026c.012,0,.024,0,.036,0h9.607a1.478,1.478,0,0,1,.557.11l.02.006c.018.008.034.02.052.028a1.469,1.469,0,0,1,.3,2.483c-.035.028-.067.06-.1.084-.015.01-.033.017-.049.027a1.5,1.5,0,0,1-.207.11c-.023.01-.049.014-.073.023a1.476,1.476,0,0,1-.2.062,1.494,1.494,0,0,1-.229.023c-.021,0-.042.006-.064.006Z" transform="translate(-10.331 -21.819)"/>
      <path id="Trazado_1028647" data-name="Trazado 1028647" d="M16.044,21.346h2.341a.468.468,0,0,0,.468-.468v-4.4a.468.468,0,0,0-.468-.468H16.044a.468.468,0,0,0-.468.468v4.4A.468.468,0,0,0,16.044,21.346Zm.468-4.4h1.4V20.41h-1.4Z" transform="translate(-8.841 -9.058)"/>
      <path id="Trazado_1028648" data-name="Trazado 1028648" d="M25.372,19.664h2.341a.468.468,0,0,0,.468-.468V13.11a.468.468,0,0,0-.468-.468H25.372a.468.468,0,0,0-.468.468V19.2A.468.468,0,0,0,25.372,19.664Zm.468-6.087h1.4v5.15h-1.4Z" transform="translate(-13.503 -7.376)"/>
      <path id="Trazado_1028649" data-name="Trazado 1028649" d="M34.7,17.589h2.341a.468.468,0,0,0,.468-.468V8.957a.468.468,0,0,0-.468-.468H34.7a.468.468,0,0,0-.468.468v8.164A.468.468,0,0,0,34.7,17.589Zm.468-8.164h1.4v7.227h-1.4Z" transform="translate(-18.165 -5.3)"/>
    </g>
  </g>
</svg>
