<svg xmlns="http://www.w3.org/2000/svg" xmlns:xlink="http://www.w3.org/1999/xlink" width="106" height="106" viewBox="0 0 106 106">
  <defs>
    <filter id="Trazado_982547" x="0" y="0" width="106" height="106" filterUnits="userSpaceOnUse">
      <feOffset dy="3" input="SourceAlpha"/>
      <feGaussianBlur stdDeviation="3" result="blur"/>
      <feFlood flood-opacity="0.161"/>
      <feComposite operator="in" in2="blur"/>
      <feComposite in="SourceGraphic"/>
    </filter>
  </defs>
  <g id="Grupo_1173624" data-name="Grupo 1173624" transform="translate(-171 -4244)">
    <g id="Grupo_1173435" data-name="Grupo 1173435" transform="translate(0 533)">
      <g id="Grupo_1172017" data-name="Grupo 1172017" transform="translate(0 2654)">
        <g id="Grupo_1167337" data-name="Grupo 1167337" transform="translate(180 1063)">
          <g id="Grupo_1166720" data-name="Grupo 1166720" transform="translate(0)">
            <g id="Grupo_1164305" data-name="Grupo 1164305">
              <g id="Grupo_1163948" data-name="Grupo 1163948">
                <g id="Grupo_1158168" data-name="Grupo 1158168">
                  <g id="Grupo_1152576" data-name="Grupo 1152576">
                    <g id="Grupo_1148633" data-name="Grupo 1148633">
                      <g id="Grupo_1148525" data-name="Grupo 1148525">
                        <g transform="matrix(1, 0, 0, 1, -9, -6)" filter="url(#Trazado_982547)">
                          <g id="Trazado_982547-2" data-name="Trazado 982547" transform="translate(9 6)" fill="#e9f9fd">
                            <path d="M 44 86.5 C 38.26187515258789 86.5 32.69618606567383 85.37651062011719 27.45755004882812 83.16075897216797 C 22.3968505859375 81.020263671875 17.85157585144043 77.95565032958984 13.94796276092529 74.05204010009766 C 10.04434967041016 70.1484375 6.979737281799316 65.6031494140625 4.839250087738037 60.54246139526367 C 2.62348747253418 55.30381393432617 1.5 49.73812484741211 1.5 44 C 1.5 38.26187515258789 2.62348747253418 32.69618606567383 4.839250087738037 27.45755004882812 C 6.979737281799316 22.3968505859375 10.04434967041016 17.85157585144043 13.94796276092529 13.94796276092529 C 17.85157585144043 10.04434967041016 22.3968505859375 6.979737281799316 27.45755004882812 4.839250087738037 C 32.69618606567383 2.62348747253418 38.26187515258789 1.5 44 1.5 C 49.73812484741211 1.5 55.30381393432617 2.62348747253418 60.54246139526367 4.839250087738037 C 65.6031494140625 6.979737281799316 70.1484375 10.04434967041016 74.05204010009766 13.94796276092529 C 77.95565032958984 17.85157585144043 81.020263671875 22.3968505859375 83.16075897216797 27.45755004882812 C 85.37651062011719 32.69618606567383 86.5 38.26187515258789 86.5 44 C 86.5 49.73812484741211 85.37651062011719 55.30381393432617 83.16075897216797 60.54246139526367 C 81.020263671875 65.6031494140625 77.95565032958984 70.1484375 74.05204010009766 74.05204010009766 C 70.1484375 77.95565032958984 65.6031494140625 81.020263671875 60.54246139526367 83.16075897216797 C 55.30381393432617 85.37651062011719 49.73812484741211 86.5 44 86.5 Z" stroke="none"/>
                            <path d="M 44 3 C 38.46371459960938 3 33.09462738037109 4.083610534667969 28.0418701171875 6.220756530761719 C 23.15997314453125 8.285614013671875 18.77495574951172 11.24228668212891 15.00862884521484 15.00862884521484 C 11.24228668212891 18.77495574951172 8.285614013671875 23.15997314453125 6.220756530761719 28.0418701171875 C 4.083610534667969 33.09462738037109 3 38.46371459960938 3 44 C 3 49.53628540039062 4.083610534667969 54.9053840637207 6.220756530761719 59.9581298828125 C 8.285614013671875 64.84002685546875 11.24228668212891 69.22504425048828 15.00862884521484 72.99138641357422 C 18.77495574951172 76.75771331787109 23.15997314453125 79.71438598632812 28.0418701171875 81.77925872802734 C 33.09462738037109 83.9163818359375 38.46371459960938 85 44 85 C 49.53628540039062 85 54.9053840637207 83.9163818359375 59.95814514160156 81.77925872802734 C 64.84002685546875 79.71438598632812 69.22504425048828 76.75771331787109 72.99138641357422 72.99138641357422 C 76.75771331787109 69.22504425048828 79.71438598632812 64.84002685546875 81.77925872802734 59.95814514160156 C 83.9163818359375 54.9053840637207 85 49.53628540039062 85 44 C 85 38.46371459960938 83.9163818359375 33.09462738037109 81.77925872802734 28.0418701171875 C 79.71438598632812 23.15997314453125 76.75771331787109 18.77495574951172 72.99138641357422 15.00862884521484 C 69.22504425048828 11.24228668212891 64.84002685546875 8.285614013671875 59.9581298828125 6.220756530761719 C 54.9053840637207 4.083610534667969 49.53628540039062 3 44 3 M 44 0 C 68.30054473876953 0 88 19.69947052001953 88 44 C 88 68.30054473876953 68.30054473876953 88 44 88 C 19.69947052001953 88 0 68.30054473876953 0 44 C 0 19.69947052001953 19.69947052001953 0 44 0 Z" stroke="none" fill="#1d7083"/>
                          </g>
                        </g>
                      </g>
                    </g>
                  </g>
                </g>
              </g>
            </g>
          </g>
        </g>
      </g>
    </g>
    <g id="market_3733878" transform="translate(192 4262)">
      <g id="Grupo_1173622" data-name="Grupo 1173622">
        <g id="Grupo_1173604" data-name="Grupo 1173604">
          <path id="Trazado_1029538" data-name="Trazado 1029538" d="M38,14v4.2A14.025,14.025,0,0,0,34.58,32H30V14Z" fill="#b4dd7f"/>
        </g>
        <g id="Grupo_1173605" data-name="Grupo 1173605">
          <path id="Trazado_1029539" data-name="Trazado 1029539" d="M23,30a3.98,3.98,0,0,0-3.46,2H18V18h8V31.36A3.984,3.984,0,0,0,23,30Z" fill="#b4dd7f"/>
        </g>
        <g id="Grupo_1173606" data-name="Grupo 1173606">
          <path id="Trazado_1029540" data-name="Trazado 1029540" d="M6,22h8V32H6Z" fill="#b4dd7f"/>
        </g>
        <g id="Grupo_1173607" data-name="Grupo 1173607">
          <path id="Trazado_1029541" data-name="Trazado 1029541" d="M28.73,36l-.12.15-1.69-1.37A3.938,3.938,0,0,0,26.46,32h8.12a14.1,14.1,0,0,0,1.93,4Z" fill="#ccd1d9"/>
        </g>
        <g id="Grupo_1173608" data-name="Grupo 1173608">
          <path id="Trazado_1029542" data-name="Trazado 1029542" d="M19,34a3.967,3.967,0,0,0,.08.78l-1.69,1.37L17.27,36H3a1,1,0,0,1-1-1V33a1,1,0,0,1,1-1H19.54A3.989,3.989,0,0,0,19,34Z" fill="#ccd1d9"/>
        </g>
        <g id="Grupo_1173609" data-name="Grupo 1173609">
          <path id="Trazado_1029543" data-name="Trazado 1029543" d="M26.92,34.78l1.69,1.37L39.46,45l1.95,1.59a1.994,1.994,0,1,1-2.82,2.82l-.26-.21v-.01L24.29,37.78a3.978,3.978,0,0,0,2.63-3Z" fill="#ccd1d9"/>
        </g>
        <g id="Grupo_1173610" data-name="Grupo 1173610">
          <path id="Trazado_1029544" data-name="Trazado 1029544" d="M19.08,34.78a3.978,3.978,0,0,0,2.63,3L7.67,49.19v.01l-.26.21a1.994,1.994,0,1,1-2.82-2.82L6.54,45l10.85-8.85Z" fill="#ccd1d9"/>
        </g>
        <g id="Grupo_1173611" data-name="Grupo 1173611">
          <path id="Trazado_1029545" data-name="Trazado 1029545" d="M26.46,32a4.008,4.008,0,1,1-.46-.64A3.574,3.574,0,0,1,26.46,32Z" fill="#aab2bd"/>
        </g>
        <g id="Grupo_1173612" data-name="Grupo 1173612">
          <path id="Trazado_1029546" data-name="Trazado 1029546" d="M36.51,36a14.063,14.063,0,0,0,4.36,4.05l-1.35,4.88-.06.07L28.61,36.15l.12-.15Z" fill="#ff826e"/>
        </g>
        <g id="Grupo_1173613" data-name="Grupo 1173613">
          <path id="Trazado_1029547" data-name="Trazado 1029547" d="M24.29,37.78a3.892,3.892,0,0,1-2.58,0L7.67,49.19v.01l1.01,5.18A2.012,2.012,0,0,0,10.65,56h24.7a2.012,2.012,0,0,0,1.97-1.62l1.01-5.18v-.01Z" fill="#ff826e"/>
        </g>
        <g id="Grupo_1173614" data-name="Grupo 1173614">
          <path id="Trazado_1029548" data-name="Trazado 1029548" d="M17.39,36.15,6.54,45l-.06-.07L4,36H17.27Z" fill="#ff826e"/>
        </g>
        <g id="Grupo_1173615" data-name="Grupo 1173615">
          <path id="Trazado_1029549" data-name="Trazado 1029549" d="M33,50v6H29V50a2.006,2.006,0,0,1,2-2,2.015,2.015,0,0,1,2,2Z" fill="#fc6e51"/>
        </g>
        <g id="Grupo_1173616" data-name="Grupo 1173616">
          <path id="Trazado_1029550" data-name="Trazado 1029550" d="M25,46V56H21V46a2.006,2.006,0,0,1,2-2,2.015,2.015,0,0,1,2,2Z" fill="#fc6e51"/>
        </g>
        <g id="Grupo_1173617" data-name="Grupo 1173617">
          <path id="Trazado_1029551" data-name="Trazado 1029551" d="M17,50v6H13V50a2.006,2.006,0,0,1,2-2,2.015,2.015,0,0,1,2,2Z" fill="#fc6e51"/>
        </g>
        <g id="Grupo_1173618" data-name="Grupo 1173618">
          <path id="Trazado_1029552" data-name="Trazado 1029552" d="M50,46a2.006,2.006,0,0,1,2,2V58a4,4,0,0,1-8,0V48a2.006,2.006,0,0,1,2-2h4Z" fill="#969faa"/>
        </g>
        <g id="Grupo_1173619" data-name="Grupo 1173619">
          <path id="Trazado_1029553" data-name="Trazado 1029553" d="M51,41.68V44a2.006,2.006,0,0,1-2,2H47a2.006,2.006,0,0,1-2-2V41.68a14.223,14.223,0,0,0,6,0Z" fill="#ccd1d9"/>
        </g>
        <g id="Grupo_1173620" data-name="Grupo 1173620">
          <path id="Trazado_1029554" data-name="Trazado 1029554" d="M51,41.68A14.017,14.017,0,0,1,34.58,32,14,14,0,1,1,51,41.68Z" fill="#fcd770"/>
        </g>
        <g id="Grupo_1173621" data-name="Grupo 1173621">
          <circle id="Elipse_11863" data-name="Elipse 11863" cx="10" cy="10" r="10" transform="translate(38 18)" fill="#69d6f4"/>
        </g>
      </g>
      <g id="Grupo_1173623" data-name="Grupo 1173623">
        <path id="Trazado_1029555" data-name="Trazado 1029555" d="M48,39A11,11,0,1,0,37,28,11.013,11.013,0,0,0,48,39Zm0-20a9,9,0,1,1-9,9A9.01,9.01,0,0,1,48,19Z"/>
        <path id="Trazado_1029556" data-name="Trazado 1029556" d="M52,42.442A14.988,14.988,0,1,0,39,16.028V13H29V31H27V17H17V31H15V21H5V31H3a2,2,0,0,0-2,2v2a2,2,0,0,0,2,2h.24l2.128,7.659L3.955,45.81l-.075.068A2.989,2.989,0,0,0,6.967,50.83L7.7,54.577A3.006,3.006,0,0,0,10.646,57H35.355A3,3,0,0,0,38.3,54.577l.735-3.747a2.994,2.994,0,0,0,3.088-4.951l-1.49-1.215.878-3.162a14.872,14.872,0,0,0,2.49.94V44a2.967,2.967,0,0,0,.4,1.471A3,3,0,0,0,43,48V58a5,5,0,0,0,10,0V48a2.994,2.994,0,0,0-1.4-2.529A2.967,2.967,0,0,0,52,44ZM61,28A13,13,0,1,1,48,15,13.015,13.015,0,0,1,61,28ZM27.966,34.34c.008-.114.034-.224.034-.34a5,5,0,0,0-.1-1h5.976a14.893,14.893,0,0,0,.868,2H28.775ZM23,37a3,3,0,1,1,3-3A3,3,0,0,1,23,37Zm8-22h6v2.836A14.942,14.942,0,0,0,33.3,31H31ZM19,19h6V29.424A4.942,4.942,0,0,0,19.026,31H19ZM7,23h6v8H7ZM3,33H18.1a5,5,0,0,0-.1,1c0,.116.026.226.034.34l-.81.66H3Zm2.316,4h9.453L7.06,43.28ZM5.293,48.707a1,1,0,0,1-.029-1.383L18.651,36.418a4.983,4.983,0,0,0,1.293,1.51L6.783,48.639l-.076.068a1.014,1.014,0,0,1-1.414,0ZM16,55H14V50a1,1,0,0,1,2,0Zm8,0H22V46a1,1,0,0,1,2,0Zm8,0H30V50a1,1,0,0,1,2,0Zm3.354,0H34V50a3,3,0,0,0-6,0v5H26V46a3,3,0,0,0-6,0v9H18V50a3,3,0,0,0-6,0v5H10.646a1,1,0,0,1-.98-.808l-.9-4.588L21.94,38.881a4.781,4.781,0,0,0,2.12,0L37.235,49.6l-.9,4.589A1,1,0,0,1,35.354,55ZM41,48a.983.983,0,0,1-.293.707,1.014,1.014,0,0,1-1.414,0L26.056,37.928a5.007,5.007,0,0,0,1.293-1.51L40.736,47.324A.978.978,0,0,1,41,48Zm-2.062-4.716L31.229,37h4.8a15.1,15.1,0,0,0,3.685,3.492ZM48,43a14.99,14.99,0,0,0,2-.149V44a1,1,0,0,1-1,1H47a1,1,0,0,1-1-1V42.851A14.99,14.99,0,0,0,48,43Zm3,15a3,3,0,0,1-6,0V48a1,1,0,0,1,1-1h4a1,1,0,0,1,1,1Z"/>
        <path id="Trazado_1029557" data-name="Trazado 1029557" d="M16,9.414l6,6,11-11V9h2V1H27V3h4.587L22,12.586l-6-6L4.293,18.293l1.414,1.414Z"/>
        <path id="Trazado_1029558" data-name="Trazado 1029558" d="M53,27h2v2H53Z"/>
        <path id="Trazado_1029559" data-name="Trazado 1029559" d="M41,27h2v2H41Z"/>
        <path id="Trazado_1029560" data-name="Trazado 1029560" d="M45,27h2v2H45Z"/>
        <path id="Trazado_1029561" data-name="Trazado 1029561" d="M49,27h2v2H49Z"/>
      </g>
    </g>
  </g>
</svg>
