<svg xmlns="http://www.w3.org/2000/svg" xmlns:xlink="http://www.w3.org/1999/xlink" width="129.39" height="129.39" viewBox="0 0 129.39 129.39">
  <defs>
    <filter id="Trazado_982547" x="0" y="0" width="129.39" height="129.39" filterUnits="userSpaceOnUse">
      <feOffset dy="3" input="SourceAlpha"/>
      <feGaussianBlur stdDeviation="3" result="blur"/>
      <feFlood flood-opacity="0.161"/>
      <feComposite operator="in" in2="blur"/>
      <feComposite in="SourceGraphic"/>
    </filter>
    <clipPath id="clip-path">
      <path id="path10599" d="M0-682.665H73.2v73.2H0Z" transform="translate(0 682.665)"/>
    </clipPath>
  </defs>
  <g id="Grupo_1173626" data-name="Grupo 1173626" transform="translate(-1056.555 -5272.353)">
    <g id="Grupo_1173451" data-name="Grupo 1173451" transform="translate(885.555 1561.353)">
      <g id="Grupo_1172017" data-name="Grupo 1172017" transform="translate(180 3717)">
        <g id="Grupo_1167337" data-name="Grupo 1167337" transform="translate(0 0)">
          <g id="Grupo_1166720" data-name="Grupo 1166720" transform="translate(0)">
            <g id="Grupo_1164305" data-name="Grupo 1164305">
              <g id="Grupo_1163948" data-name="Grupo 1163948">
                <g id="Grupo_1158168" data-name="Grupo 1158168">
                  <g id="Grupo_1152576" data-name="Grupo 1152576">
                    <g id="Grupo_1148633" data-name="Grupo 1148633">
                      <g id="Grupo_1148525" data-name="Grupo 1148525">
                        <g transform="matrix(1, 0, 0, 1, -9, -6)" filter="url(#Trazado_982547)">
                          <g id="Trazado_982547-2" data-name="Trazado 982547" transform="translate(9 6)" fill="#e9f9fd">
                            <path d="M 55.69482421875 109.8896560668945 C 48.37790298461914 109.8896560668945 41.28065490722656 108.4569625854492 34.6002082824707 105.6313781738281 C 31.3892707824707 104.2732543945312 28.29220962524414 102.5922088623047 25.39504051208496 100.6349182128906 C 22.52499389648438 98.69596099853516 19.82610130310059 96.46916198730469 17.37330055236816 94.01636505126953 C 14.92050075531006 91.56356048583984 12.69370079040527 88.86465454101562 10.75474739074707 85.99462127685547 C 8.797454833984375 83.09745788574219 7.116408824920654 80.00038146972656 5.758285522460938 76.78943634033203 C 2.932701110839844 70.10899353027344 1.500008821487427 63.01174545288086 1.500008821487427 55.69482421875 C 1.500008821487427 48.37790298461914 2.932701110839844 41.28065490722656 5.758285522460938 34.6002082824707 C 7.116408824920654 31.3892707824707 8.797454833984375 28.29220962524414 10.75474739074707 25.39504051208496 C 12.69370079040527 22.52499389648438 14.92050075531006 19.82610130310059 17.37330055236816 17.37330055236816 C 19.82610130310059 14.92050075531006 22.52499389648438 12.69370079040527 25.39504051208496 10.75474739074707 C 28.29220962524414 8.797454833984375 31.3892707824707 7.116408824920654 34.6002082824707 5.758285522460938 C 41.28065490722656 2.932701110839844 48.37790298461914 1.500008821487427 55.69482421875 1.500008821487427 C 63.01174545288086 1.500008821487427 70.10899353027344 2.932701110839844 76.78943634033203 5.758285522460938 C 80.00038146972656 7.116408824920654 83.09745788574219 8.797454833984375 85.99462127685547 10.75474739074707 C 88.86465454101562 12.69370079040527 91.56356048583984 14.92050075531006 94.01636505126953 17.37330055236816 C 96.46916198730469 19.82610130310059 98.69596099853516 22.52499389648438 100.6349182128906 25.39504051208496 C 102.5922088623047 28.29220962524414 104.2732543945312 31.3892707824707 105.6313781738281 34.6002082824707 C 108.4569625854492 41.28065490722656 109.8896560668945 48.37790298461914 109.8896560668945 55.69482421875 C 109.8896560668945 63.01174545288086 108.4569625854492 70.10899353027344 105.6313781738281 76.78943634033203 C 104.2732543945312 80.00038146972656 102.5922088623047 83.09745788574219 100.6349182128906 85.99462127685547 C 98.69596099853516 88.86465454101562 96.46916198730469 91.56356048583984 94.01636505126953 94.01636505126953 C 91.56356048583984 96.46916198730469 88.86465454101562 98.69596099853516 85.99462127685547 100.6349182128906 C 83.09745788574219 102.5922088623047 80.00038146972656 104.2732543945312 76.78943634033203 105.6313781738281 C 70.10899353027344 108.4569625854492 63.01174545288086 109.8896560668945 55.69482421875 109.8896560668945 Z" stroke="none"/>
                            <path d="M 55.69482421875 2.999992370605469 C 48.57974243164062 2.999992370605469 41.67909240722656 4.392822265625 35.18453979492188 7.1397705078125 C 28.91004180908203 9.793670654296875 23.27432250976562 13.59357452392578 18.4339599609375 18.4339599609375 C 13.59357452392578 23.27432250976562 9.793670654296875 28.91004180908203 7.1397705078125 35.18453979492188 C 4.392822265625 41.67909240722656 2.999992370605469 48.57974243164062 2.999992370605469 55.69482421875 C 2.999992370605469 62.80990600585938 4.392822265625 69.71055603027344 7.1397705078125 76.20510864257812 C 9.793670654296875 82.47960662841797 13.59357452392578 88.11532592773438 18.4339599609375 92.9556884765625 C 23.27432250976562 97.79605865478516 28.91004180908203 101.5959548950195 35.18453979492188 104.2498550415039 C 41.67909240722656 106.9968109130859 48.57974243164062 108.3896408081055 55.69482421875 108.3896408081055 C 62.80990600585938 108.3896408081055 69.71055603027344 106.9968109130859 76.20510864257812 104.2498550415039 C 82.47960662841797 101.5959548950195 88.11532592773438 97.79605865478516 92.9556884765625 92.9556884765625 C 97.79605865478516 88.11532592773438 101.5959548950195 82.47960662841797 104.2498550415039 76.20510864257812 C 106.9968109130859 69.71055603027344 108.3896408081055 62.80990600585938 108.3896408081055 55.69482421875 C 108.3896408081055 48.57974243164062 106.9968109130859 41.67909240722656 104.2498550415039 35.18453979492188 C 101.5959548950195 28.91004180908203 97.79605865478516 23.27432250976562 92.9556884765625 18.4339599609375 C 88.11532592773438 13.59357452392578 82.47960662841797 9.793670654296875 76.20510864257812 7.1397705078125 C 69.71055603027344 4.392822265625 62.80990600585938 2.999992370605469 55.69482421875 2.999992370605469 M 55.69482421875 -7.62939453125e-06 C 86.4542236328125 -7.62939453125e-06 111.3896408081055 24.9354248046875 111.3896408081055 55.69482421875 C 111.3896408081055 86.4542236328125 86.4542236328125 111.3896408081055 55.69482421875 111.3896408081055 C 24.9354248046875 111.3896408081055 -7.62939453125e-06 86.4542236328125 -7.62939453125e-06 55.69482421875 C -7.62939453125e-06 24.9354248046875 24.9354248046875 -7.62939453125e-06 55.69482421875 -7.62939453125e-06 Z" stroke="none" fill="#1d7083"/>
                          </g>
                        </g>
                      </g>
                    </g>
                  </g>
                </g>
              </g>
            </g>
          </g>
        </g>
      </g>
    </g>
    <g id="g10593" transform="translate(1084.65 5980.112)">
      <g id="g10595" transform="translate(0 -682.665)">
        <g id="g10597" clip-path="url(#clip-path)">
          <g id="g10603" transform="translate(18.834 6.174)">
            <path id="path10605" d="M-382.6-549.131h-44.415a1.537,1.537,0,0,1-1.537-1.537v-62.88a1.537,1.537,0,0,1,1.537-1.537H-382.6a1.537,1.537,0,0,1,1.537,1.537v62.88a1.537,1.537,0,0,1-1.537,1.537" transform="translate(428.552 615.085)" fill="#b5adb6"/>
          </g>
          <g id="g10607" transform="translate(18.834 6.174)">
            <path id="path10609" d="M-382.6-549.131h-44.415a1.537,1.537,0,0,1-1.537-1.537v-62.88a1.537,1.537,0,0,1,1.537-1.537H-382.6a1.537,1.537,0,0,1,1.537,1.537v62.88A1.537,1.537,0,0,1-382.6-549.131Z" transform="translate(428.552 615.085)" fill="none" stroke="#000" stroke-linecap="round" stroke-linejoin="round" stroke-miterlimit="10" stroke-width="1.5"/>
          </g>
          <g id="g10611" transform="translate(13.732 1.072)">
            <path id="path10613" d="M-395.4-12.8V50.083a1.537,1.537,0,0,1-1.537,1.537h-44.416a1.536,1.536,0,0,1-1.537-1.537V-12.8a1.536,1.536,0,0,1,1.537-1.537h44.416A1.537,1.537,0,0,1-395.4-12.8" transform="translate(442.892 14.333)" fill="#f2eff2"/>
          </g>
          <g id="g10615" transform="translate(13.732 42.774)">
            <path id="path10617" d="M-171.213-85.764l-.58-6.512a4.157,4.157,0,0,0-4.14-3.788h-15.844v21.923h2.388a1.662,1.662,0,0,0,1.663-1.663v-9.054h1.974a.832.832,0,0,0,.828-.905h.006a.831.831,0,0,0,.828.905h1.974V-75.8a1.663,1.663,0,0,0,1.663,1.663h4.776a1.663,1.663,0,0,0,1.663-1.663v-9.054h1.974a.831.831,0,0,0,.828-.905" transform="translate(191.777 96.065)" fill="#e1dde1"/>
          </g>
          <g id="g10619" transform="translate(54.645 1.072)">
            <path id="path10621" d="M-54.757-12.8V50.083a1.536,1.536,0,0,1-1.537,1.537h-5.04a1.538,1.538,0,0,0,1.538-1.537V-12.8a1.538,1.538,0,0,0-1.538-1.537h5.04A1.536,1.536,0,0,1-54.757-12.8" transform="translate(61.333 14.333)" fill="#e1dde1"/>
          </g>
          <g id="g10623" transform="translate(36.289 20.133)">
            <path id="path10625" d="M0-390.436H23.4a1.537,1.537,0,0,0,1.537-1.537V-437.33" transform="translate(0 437.33)" fill="none" stroke="#000" stroke-linecap="round" stroke-linejoin="round" stroke-miterlimit="10" stroke-width="1.5"/>
          </g>
          <g id="g10627" transform="translate(13.732 1.072)">
            <path id="path10629" d="M-395.4-116.358V-128.8a1.537,1.537,0,0,0-1.537-1.537h-44.415a1.537,1.537,0,0,0-1.537,1.537v62.88a1.537,1.537,0,0,0,1.537,1.537h15.935" transform="translate(442.888 130.333)" fill="none" stroke="#000" stroke-linecap="round" stroke-linejoin="round" stroke-miterlimit="10" stroke-width="1.5"/>
          </g>
          <g id="g10631" transform="translate(35.427 6.109)">
            <path id="path10633" d="M-175.14-87.569a10.518,10.518,0,0,1-10.518,10.518,10.518,10.518,0,0,1-10.518-10.518,10.518,10.518,0,0,1,10.518-10.518A10.518,10.518,0,0,1-175.14-87.569" transform="translate(196.176 98.086)" fill="#8dcafc"/>
          </g>
          <g id="g10635" transform="translate(35.427 7.096)">
            <path id="path10637" d="M-117.322-86.361l-.931,1.372a1.211,1.211,0,0,1-1.268.5l-2.233-.495a1.217,1.217,0,0,0-1.175.383l-.568.643a1.213,1.213,0,0,0-.236,1.2l.412,1.188a1.211,1.211,0,0,1-.027.868l-1.372,3.29a10.518,10.518,0,0,1-6.692-9.8,10.518,10.518,0,0,1,6.066-9.53l1.942,2.806a1.215,1.215,0,0,1-.063,1.464,1.22,1.22,0,0,0-.277.775,1.221,1.221,0,0,0,.133.552l.508,1a1.223,1.223,0,0,0,.685.6l1.658.575a1.215,1.215,0,0,0,.915-.047l.462-.217a1.214,1.214,0,0,1,1.606.559l.54,1.089a1.213,1.213,0,0,1-.083,1.222" transform="translate(131.413 96.733)" fill="#72f4c3"/>
          </g>
          <g id="g10639" transform="translate(41.493 7.096)">
            <path id="path10641" d="M0,0,1.942,2.806A1.215,1.215,0,0,1,1.879,4.27,1.217,1.217,0,0,0,1.734,5.6l.508,1a1.223,1.223,0,0,0,.685.6l1.658.575A1.215,1.215,0,0,0,5.5,7.719L5.962,7.5a1.214,1.214,0,0,1,1.606.559l.54,1.089a1.213,1.213,0,0,1-.083,1.222l-.931,1.373a1.211,1.211,0,0,1-1.268.5l-2.233-.495a1.217,1.217,0,0,0-1.175.383l-.568.643a1.213,1.213,0,0,0-.236,1.2l.412,1.188A1.211,1.211,0,0,1,2,16.04L.626,19.329" fill="none" stroke="#000" stroke-linecap="round" stroke-linejoin="round" stroke-miterlimit="10" stroke-width="1.5"/>
          </g>
          <g id="g10643" transform="translate(43.672 6.109)">
            <path id="path10645" d="M-106.493-87.566a10.517,10.517,0,0,1-10.517,10.517,10.4,10.4,0,0,1-2.273-.248,10.519,10.519,0,0,0,8.244-10.269,10.519,10.519,0,0,0-8.244-10.269,10.4,10.4,0,0,1,2.273-.248,10.517,10.517,0,0,1,10.517,10.517" transform="translate(119.284 98.084)" fill="#64b9fc"/>
          </g>
          <g id="g10647" transform="translate(35.427 6.109)">
            <path id="path10649" d="M-175.14-87.569a10.518,10.518,0,0,1-10.518,10.518,10.518,10.518,0,0,1-10.518-10.518,10.518,10.518,0,0,1,10.518-10.518A10.518,10.518,0,0,1-175.14-87.569Z" transform="translate(196.176 98.086)" fill="none" stroke="#000" stroke-linecap="round" stroke-linejoin="round" stroke-miterlimit="10" stroke-width="1.5"/>
          </g>
          <g id="g10651" transform="translate(18.635 6.109)">
            <path id="path10653" d="M-175.14-87.569a10.518,10.518,0,0,1-10.518,10.518,10.518,10.518,0,0,1-10.518-10.518,10.518,10.518,0,0,1,10.518-10.518A10.518,10.518,0,0,1-175.14-87.569" transform="translate(196.176 98.086)" fill="#8dcafc"/>
          </g>
          <g id="g10655" transform="translate(26.88 6.109)">
            <path id="path10657" d="M-106.493-87.566a10.517,10.517,0,0,1-10.517,10.517,10.4,10.4,0,0,1-2.273-.248,10.519,10.519,0,0,0,8.244-10.269,10.519,10.519,0,0,0-8.244-10.269,10.4,10.4,0,0,1,2.273-.248,10.517,10.517,0,0,1,10.517,10.517" transform="translate(119.284 98.084)" fill="#64b9fc"/>
          </g>
          <g id="g10659" transform="translate(18.635 11.6)">
            <path id="path10661" d="M-127.083-40.847a.821.821,0,0,1-.182.552l-3.892,4.8a.818.818,0,0,1-.786.291l-4.032-.757a.82.82,0,0,1-.539-1.246l.573-.9a.82.82,0,0,0-.151-1.058l-.306-.267a.814.814,0,0,0-.675-.191l-2.585.434a.813.813,0,0,0-.554.365l-1.363,2.056a10.459,10.459,0,0,1-.771-3.956,10.465,10.465,0,0,1,1.261-5l2.53.127a.824.824,0,0,1,.6.337l1.113,1.542a.812.812,0,0,0,.561.332l1.621.208a.816.816,0,0,0,.614-.17l1.1-.873a.78.78,0,0,1,.11-.074l2.433-1.354a.819.819,0,0,1,.735-.031l1.957.879a.823.823,0,0,1,.482.711Z" transform="translate(142.346 45.753)" fill="#72f4c3"/>
          </g>
          <g id="g10663" transform="translate(19.406 11.6)">
            <path id="path10665" d="M-4.083-.23l2.53.127a.824.824,0,0,1,.6.337L.162,1.777a.812.812,0,0,0,.561.332l1.621.208a.816.816,0,0,0,.614-.17l1.1-.873A.772.772,0,0,1,4.17,1.2L6.6-.154a.819.819,0,0,1,.735-.031L9.295.694a.823.823,0,0,1,.482.711l.143,3.244a.821.821,0,0,1-.182.552L5.844,10a.818.818,0,0,1-.786.291L1.026,9.532A.82.82,0,0,1,.488,8.286l.573-.9A.82.82,0,0,0,.909,6.328L.6,6.061A.815.815,0,0,0-.072,5.87L-2.656,6.3a.814.814,0,0,0-.554.365L-4.573,8.725" transform="translate(4.573 0.257)" fill="none" stroke="#000" stroke-linecap="round" stroke-linejoin="round" stroke-miterlimit="10" stroke-width="1.5"/>
          </g>
          <g id="g10667" transform="translate(18.635 6.109)">
            <path id="path10669" d="M-108.737-172.548a10.521,10.521,0,0,0,7.975-10.206,10.518,10.518,0,0,0-10.518-10.518A10.518,10.518,0,0,0-121.8-182.754a10.52,10.52,0,0,0,7.975,10.206" transform="translate(121.797 193.272)" fill="none" stroke="#000" stroke-linecap="round" stroke-linejoin="round" stroke-miterlimit="10" stroke-width="1.5"/>
          </g>
          <g id="g10671" transform="translate(9.514 30.548)">
            <path id="path10673" d="M-70.238-35.119A4.218,4.218,0,0,1-74.456-30.9a4.218,4.218,0,0,1-4.218-4.218,4.218,4.218,0,0,1,4.218-4.218,4.218,4.218,0,0,1,4.218,4.218" transform="translate(78.674 39.337)" fill="#fdb0a0"/>
          </g>
          <g id="g10675" transform="translate(11.918 30.548)">
            <path id="path10677" d="M-50.224-35.12A4.218,4.218,0,0,1-54.442-30.9a4.188,4.188,0,0,1-1.814-.409,4.22,4.22,0,0,0,2.4-3.809,4.22,4.22,0,0,0-2.4-3.809,4.188,4.188,0,0,1,1.814-.409,4.218,4.218,0,0,1,4.218,4.218" transform="translate(56.256 39.339)" fill="#f89f8e"/>
          </g>
          <g id="g10679" transform="translate(6.876 38.984)">
            <path id="path10681" d="M-114.133-85.762l-.58-6.512a4.157,4.157,0,0,0-4.14-3.788h-4.264a4.157,4.157,0,0,0-4.14,3.788l-.58,6.512a.831.831,0,0,0,.828.9h1.974V-75.8a1.663,1.663,0,0,0,1.663,1.663h4.776a1.663,1.663,0,0,0,1.663-1.663v-9.055h1.974a.831.831,0,0,0,.828-.9" transform="translate(127.841 96.062)" fill="#1c96f9"/>
          </g>
          <g id="g10683" transform="translate(11.646 38.984)">
            <path id="path10685" d="M-67.528-93.291H-69.5v9.055a1.663,1.663,0,0,1-1.663,1.663h-4.218a1.662,1.662,0,0,0,1.663-1.663v-9.055h1.974a.831.831,0,0,0,.828-.9l-.579-6.513a4.157,4.157,0,0,0-4.142-3.788h4.218a4.157,4.157,0,0,1,4.142,3.788L-66.7-94.2a.831.831,0,0,1-.828.9" transform="translate(75.638 104.496)" fill="#1785f8"/>
          </g>
          <g id="g10687" transform="translate(9.514 30.548)">
            <path id="path10689" d="M-70.238-35.119A4.218,4.218,0,0,1-74.456-30.9a4.218,4.218,0,0,1-4.218-4.218,4.218,4.218,0,0,1,4.218-4.218A4.218,4.218,0,0,1-70.238-35.119Z" transform="translate(78.674 39.337)" fill="none" stroke="#000" stroke-linecap="round" stroke-linejoin="round" stroke-miterlimit="10" stroke-width="1.5"/>
          </g>
          <g id="g10691" transform="translate(6.876 38.984)">
            <path id="path10693" d="M-114.133-85.762l-.58-6.512a4.157,4.157,0,0,0-4.14-3.788h-4.264a4.157,4.157,0,0,0-4.14,3.788l-.58,6.512a.831.831,0,0,0,.828.9h1.974V-75.8a1.663,1.663,0,0,0,1.663,1.663h4.776a1.663,1.663,0,0,0,1.663-1.663v-9.055h1.974A.831.831,0,0,0-114.133-85.762Z" transform="translate(127.841 96.062)" fill="none" stroke="#000" stroke-linecap="round" stroke-linejoin="round" stroke-miterlimit="10" stroke-width="1.5"/>
          </g>
          <g id="g10695" transform="translate(13.732 50.111)">
            <path id="path10697" d="M0,0V10.8" fill="none" stroke="#000" stroke-linecap="round" stroke-linejoin="round" stroke-miterlimit="10" stroke-width="1.5"/>
          </g>
          <g id="g10699" transform="translate(23.226 30.548)">
            <path id="path10701" d="M-70.238-35.119A4.218,4.218,0,0,1-74.456-30.9a4.218,4.218,0,0,1-4.218-4.218,4.218,4.218,0,0,1,4.218-4.218,4.218,4.218,0,0,1,4.218,4.218" transform="translate(78.674 39.337)" fill="#fdb0a0"/>
          </g>
          <g id="g10703" transform="translate(25.63 30.548)">
            <path id="path10705" d="M-50.224-35.12A4.218,4.218,0,0,1-54.442-30.9a4.188,4.188,0,0,1-1.814-.409,4.22,4.22,0,0,0,2.4-3.809,4.22,4.22,0,0,0-2.4-3.809,4.188,4.188,0,0,1,1.814-.409,4.218,4.218,0,0,1,4.218,4.218" transform="translate(56.256 39.339)" fill="#f89f8e"/>
          </g>
          <g id="g10707" transform="translate(20.588 38.984)">
            <path id="path10709" d="M-114.133-85.762l-.58-6.512a4.157,4.157,0,0,0-4.14-3.788h-4.264a4.157,4.157,0,0,0-4.14,3.788l-.58,6.512a.831.831,0,0,0,.828.9h1.974V-75.8a1.663,1.663,0,0,0,1.663,1.663h4.776a1.663,1.663,0,0,0,1.663-1.663v-9.055h1.974a.831.831,0,0,0,.828-.9" transform="translate(127.842 96.062)" fill="#23f1a8"/>
          </g>
          <g id="g10711" transform="translate(25.357 38.984)">
            <path id="path10713" d="M-67.528-93.291H-69.5v9.055a1.663,1.663,0,0,1-1.663,1.663h-4.218a1.662,1.662,0,0,0,1.663-1.663v-9.055h1.974a.831.831,0,0,0,.828-.9l-.579-6.513a4.157,4.157,0,0,0-4.142-3.788h4.218a4.157,4.157,0,0,1,4.142,3.788L-66.7-94.2a.831.831,0,0,1-.828.9" transform="translate(75.638 104.496)" fill="#26d192"/>
          </g>
          <g id="g10715" transform="translate(23.226 30.548)">
            <path id="path10717" d="M-70.238-35.119A4.218,4.218,0,0,1-74.456-30.9a4.218,4.218,0,0,1-4.218-4.218,4.218,4.218,0,0,1,4.218-4.218A4.218,4.218,0,0,1-70.238-35.119Z" transform="translate(78.674 39.337)" fill="none" stroke="#000" stroke-linecap="round" stroke-linejoin="round" stroke-miterlimit="10" stroke-width="1.5"/>
          </g>
          <g id="g10719" transform="translate(20.588 38.984)">
            <path id="path10721" d="M-114.133-85.762l-.58-6.512a4.157,4.157,0,0,0-4.14-3.788h-4.264a4.157,4.157,0,0,0-4.14,3.788l-.58,6.512a.831.831,0,0,0,.828.9h1.974V-75.8a1.663,1.663,0,0,0,1.663,1.663h4.776a1.663,1.663,0,0,0,1.663-1.663v-9.055h1.974A.831.831,0,0,0-114.133-85.762Z" transform="translate(127.842 96.062)" fill="none" stroke="#000" stroke-linecap="round" stroke-linejoin="round" stroke-miterlimit="10" stroke-width="1.5"/>
          </g>
          <g id="g10723" transform="translate(27.444 50.111)">
            <path id="path10725" d="M0,0V10.8" fill="none" stroke="#000" stroke-linecap="round" stroke-linejoin="round" stroke-miterlimit="10" stroke-width="1.5"/>
          </g>
          <g id="g10727" transform="translate(37.095 32.725)">
            <path id="path10729" d="M0-.123V-.137" transform="translate(0 0.137)" fill="none" stroke="#000" stroke-linecap="round" stroke-linejoin="round" stroke-miterlimit="10" stroke-width="1.5"/>
          </g>
          <g id="g10731" transform="translate(37.836 32.725)">
            <path id="path10733" d="M0-36.857l3.616-4.427" transform="translate(0 41.284)" fill="none" stroke="#000" stroke-linecap="round" stroke-linejoin="round" stroke-miterlimit="10" stroke-width="1.5"/>
          </g>
          <g id="g10735" transform="translate(42.193 37.137)">
            <path id="path10737" d="M0-.123V-.137" transform="translate(0 0.137)" fill="none" stroke="#000" stroke-linecap="round" stroke-linejoin="round" stroke-miterlimit="10" stroke-width="1.5"/>
          </g>
          <g id="g10739" transform="translate(40.028 42.246)">
            <path id="path10741" d="M-114.861-46.928h-12.366a1.43,1.43,0,0,1-1.43-1.43v-2.777a1.43,1.43,0,0,1,1.43-1.43h12.366a1.43,1.43,0,0,1,1.43,1.43v2.777a1.43,1.43,0,0,1-1.43,1.43" transform="translate(128.657 52.564)" fill="#fcc16d"/>
          </g>
          <g id="g10743" transform="translate(49.531 42.246)">
            <path id="path10745" d="M-47.638-11.9v2.776a1.428,1.428,0,0,1-1.43,1.43H-53.36a1.428,1.428,0,0,0,1.43-1.43V-11.9a1.429,1.429,0,0,0-1.43-1.43h4.292a1.429,1.429,0,0,1,1.43,1.43" transform="translate(53.36 13.333)" fill="#fca62f"/>
          </g>
          <g id="g10747" transform="translate(40.028 42.246)">
            <path id="path10749" d="M-114.861-46.928h-12.366a1.43,1.43,0,0,1-1.43-1.43v-2.777a1.43,1.43,0,0,1,1.43-1.43h12.366a1.43,1.43,0,0,1,1.43,1.43v2.777A1.43,1.43,0,0,1-114.861-46.928Z" transform="translate(128.657 52.564)" fill="none" stroke="#000" stroke-linecap="round" stroke-linejoin="round" stroke-miterlimit="10" stroke-width="1.5"/>
          </g>
          <g id="g10751" transform="translate(46.779 52.692)">
            <path id="path10753" d="M0,0H8.474" fill="none" stroke="#000" stroke-linecap="round" stroke-linejoin="round" stroke-miterlimit="10" stroke-width="1.5"/>
          </g>
          <g id="g10755" transform="translate(39.631 56.656)">
            <path id="path10757" d="M0,0H15.622" fill="none" stroke="#000" stroke-linecap="round" stroke-linejoin="round" stroke-miterlimit="10" stroke-width="1.5"/>
          </g>
          <g id="g10759" transform="translate(39.631 60.619)">
            <path id="path10761" d="M0,0H15.622" fill="none" stroke="#000" stroke-linecap="round" stroke-linejoin="round" stroke-miterlimit="10" stroke-width="1.5"/>
          </g>
        </g>
      </g>
    </g>
  </g>
</svg>
