<svg xmlns="http://www.w3.org/2000/svg" xmlns:xlink="http://www.w3.org/1999/xlink" width="108" height="108" viewBox="0 0 108 108">
  <defs>
    <filter id="Trazado_982547" x="0" y="0" width="108" height="108" filterUnits="userSpaceOnUse">
      <feOffset dy="3" input="SourceAlpha"/>
      <feGaussianBlur stdDeviation="3" result="blur"/>
      <feFlood flood-opacity="0.161"/>
      <feComposite operator="in" in2="blur"/>
      <feComposite in="SourceGraphic"/>
    </filter>
  </defs>
  <g id="Grupo_1173631" data-name="Grupo 1173631" transform="translate(-589 -6168.167)">
    <g id="Grupo_1173455" data-name="Grupo 1173455" transform="translate(598 6174.167)">
      <g id="Grupo_1172017" data-name="Grupo 1172017" transform="translate(0 0)">
        <g id="Grupo_1167337" data-name="Grupo 1167337" transform="translate(0)">
          <g id="Grupo_1166720" data-name="Grupo 1166720">
            <g id="Grupo_1164305" data-name="Grupo 1164305">
              <g id="Grupo_1163948" data-name="Grupo 1163948">
                <g id="Grupo_1158168" data-name="Grupo 1158168">
                  <g id="Grupo_1152576" data-name="Grupo 1152576">
                    <g id="Grupo_1148633" data-name="Grupo 1148633">
                      <g id="Grupo_1148525" data-name="Grupo 1148525">
                        <g transform="matrix(1, 0, 0, 1, -9, -6)" filter="url(#Trazado_982547)">
                          <g id="Trazado_982547-2" data-name="Trazado 982547" transform="translate(9 6)" fill="#e9f9fd">
                            <path d="M 45 88.5 C 39.12687683105469 88.5 33.43022537231445 87.35007476806641 28.06830024719238 85.08217620849609 C 22.88852500915527 82.89131164550781 18.23629951477051 79.75458526611328 14.2408504486084 75.75914764404297 C 10.24541282653809 71.76370239257812 7.108687400817871 67.11147308349609 4.917825222015381 61.93170166015625 C 2.649924993515015 56.56977462768555 1.5 50.87312316894531 1.5 45 C 1.5 39.12687683105469 2.649924993515015 33.43022537231445 4.917825222015381 28.06830024719238 C 7.108687400817871 22.88852500915527 10.24541282653809 18.23629951477051 14.2408504486084 14.2408504486084 C 18.23629951477051 10.24541282653809 22.88852500915527 7.108687400817871 28.06830024719238 4.917825222015381 C 33.43022537231445 2.649924993515015 39.12687683105469 1.5 45 1.5 C 50.87312316894531 1.5 56.56977462768555 2.649924993515015 61.93170166015625 4.917825222015381 C 67.11147308349609 7.108687400817871 71.76370239257812 10.24541282653809 75.75914764404297 14.2408504486084 C 79.75458526611328 18.23629951477051 82.89131164550781 22.88852500915527 85.08217620849609 28.06830024719238 C 87.35007476806641 33.43022537231445 88.5 39.12687683105469 88.5 45 C 88.5 50.87312316894531 87.35007476806641 56.56977462768555 85.08217620849609 61.93170166015625 C 82.89131164550781 67.11147308349609 79.75458526611328 71.76370239257812 75.75914764404297 75.75914764404297 C 71.76370239257812 79.75458526611328 67.11147308349609 82.89131164550781 61.93170166015625 85.08217620849609 C 56.56977462768555 87.35007476806641 50.87312316894531 88.5 45 88.5 Z" stroke="none"/>
                            <path d="M 45 3 C 39.32871246337891 3 33.82865524291992 4.110054016113281 28.65262985229492 6.299339294433594 C 23.65165710449219 8.414573669433594 19.15968322753906 11.44334411621094 15.301513671875 15.301513671875 C 11.44334411621094 19.15968322753906 8.414573669433594 23.65165710449219 6.299339294433594 28.65262985229492 C 4.110054016113281 33.82865524291992 3 39.32871246337891 3 45 C 3 50.67128753662109 4.110054016113281 56.17134475708008 6.299339294433594 61.34737396240234 C 8.414573669433594 66.34834289550781 11.44334411621094 70.84031677246094 15.301513671875 74.698486328125 C 19.15968322753906 78.55665588378906 23.65165710449219 81.58542633056641 28.65262985229492 83.70066070556641 C 33.82865524291992 85.88994598388672 39.32871246337891 87 45 87 C 50.67128753662109 87 56.17134475708008 85.88994598388672 61.34737396240234 83.70066070556641 C 66.34834289550781 81.58542633056641 70.84031677246094 78.55665588378906 74.698486328125 74.698486328125 C 78.55665588378906 70.84031677246094 81.58542633056641 66.34834289550781 83.70066070556641 61.34737396240234 C 85.88994598388672 56.17134475708008 87 50.67128753662109 87 45 C 87 39.32871246337891 85.88994598388672 33.82865524291992 83.70066070556641 28.65262985229492 C 81.58542633056641 23.65165710449219 78.55665588378906 19.15968322753906 74.698486328125 15.301513671875 C 70.84031677246094 11.44334411621094 66.34834289550781 8.414573669433594 61.34737396240234 6.299339294433594 C 56.17134475708008 4.110054016113281 50.67128753662109 3 45 3 M 45 0 C 69.85281372070312 0 90 20.14718627929688 90 45 C 90 69.85281372070312 69.85281372070312 90 45 90 C 20.14718627929688 90 0 69.85281372070312 0 45 C 0 20.14718627929688 20.14718627929688 0 45 0 Z" stroke="none" fill="#1d7083"/>
                          </g>
                        </g>
                      </g>
                    </g>
                  </g>
                </g>
              </g>
            </g>
          </g>
        </g>
      </g>
    </g>
    <g id="data-gathering_9799743" transform="translate(594.027 6172.333)">
      <path id="Trazado_1029596" data-name="Trazado 1029596" d="M405.255,216.134h-8.023l-2.713,2.712v11.8h10.735Z" transform="translate(-327.501 -174.422)" fill="#b0e7c9" fill-rule="evenodd"/>
      <path id="Trazado_1029597" data-name="Trazado 1029597" d="M173.009,217.432l-.984-1.3h-6.609v1.3Z" transform="translate(-127.83 -174.422)" fill="#fee45a" fill-rule="evenodd"/>
      <path id="Trazado_1029598" data-name="Trazado 1029598" d="M179.121,246.007a.975.975,0,1,1,1.379,1.379l-2.751,2.751a.972.972,0,0,1-.079.072l0,0-.016.013-.005,0-.013.01-.007.005-.013.009-.006,0-.013.009-.008.005-.012.008-.008.005-.013.008-.007,0-.013.008-.007,0-.016.009,0,0-.017.009,0,0-.02.009a.976.976,0,0,1-.82,0h0l-.02-.009,0,0-.017-.009,0,0-.016-.009-.007,0-.013-.008-.007,0-.013-.008-.008-.005-.012-.008-.008-.005-.013-.009-.006,0-.013-.009-.007-.005-.013-.01-.005,0-.016-.013,0,0a1,1,0,0,1-.079-.072l-2.751-2.751a.975.975,0,0,1,1.379-1.379l1.092,1.092v-5.683H165.416v11.266h23.275V241.415H178.028V247.1Z" transform="translate(-127.83 -196.455)" fill="#fed402" fill-rule="evenodd"/>
      <path id="Trazado_1029599" data-name="Trazado 1029599" d="M48.952,376.273h53.2v2.178h-53.2Z" transform="translate(-26.329 -313.988)" fill="#666"/>
      <path id="Trazado_1029600" data-name="Trazado 1029600" d="M163.229,457.265h23.837v3.027H163.229Z" transform="translate(-125.924 -384.574)" fill="#666"/>
      <path id="Trazado_1029601" data-name="Trazado 1029601" d="M220.452,408.406h9.134v4.327h-9.134Z" transform="translate(-175.796 -341.992)" fill="#666"/>
      <g id="Grupo_1173630" data-name="Grupo 1173630" transform="translate(18.742 16)">
        <path id="Trazado_1029602" data-name="Trazado 1029602" d="M220.31,31.178H211.1l-3.128,3.128v13.47H220.31Z" transform="translate(-183.658 -29.228)" fill="#b0e7c9" fill-rule="evenodd"/>
        <path id="Trazado_1029603" data-name="Trazado 1029603" d="M44.655,216.134H36.632l-2.712,2.712v11.8H44.655Z" transform="translate(-31.97 -190.422)" fill="#b0e7c9" fill-rule="evenodd"/>
        <path id="Trazado_1029604" data-name="Trazado 1029604" d="M49.329,142.373h9.4a.975.975,0,0,1,.975.975v16.464a.975.975,0,0,1-.975.975H48.952v2.161h53.2v-2.161H92.373a.975.975,0,0,1-.975-.975v-13.18a.972.972,0,0,1,.291-.695l3.278-3.278a.972.972,0,0,1,.689-.285h6.5v-8.636H89.844V137.7l1.092-1.092a.975.975,0,0,1,1.379,1.379l-2.751,2.751a.97.97,0,0,1-.079.072l0,0-.016.013-.005,0-.013.01-.007.005-.013.009-.006,0-.013.009-.008.005-.012.008-.008,0-.013.008-.007,0-.013.008-.007,0-.016.009,0,0-.017.009,0,0-.02.009h0a.976.976,0,0,1-.82,0h0l-.02-.009,0,0-.017-.009,0,0-.016-.009-.007,0-.013-.008-.007,0-.013-.008-.008,0-.012-.008-.008-.005-.013-.009-.006,0-.013-.009-.007-.005-.013-.01-.005,0-.016-.013,0,0a.974.974,0,0,1-.079-.072l-2.751-2.751A.975.975,0,1,1,86.8,136.61l1.092,1.092v-3.965H83.673v4.4a.975.975,0,0,1-.975.975H76.527v6.511H88.165a.975.975,0,0,1,.975.975v13.216a.975.975,0,0,1-.975.975H62.939a.975.975,0,0,1-.975-.975V146.6a.979.979,0,0,0,0-.366v-2.882a.975.975,0,0,1,.975-.975h8.067a.974.974,0,0,1,.809.432l2.134,2.816h.627v-6.511h-6.17a.975.975,0,0,1-.975-.975v-4.4H63.488v3.968l1.1-1.1a.975.975,0,0,1,1.379,1.379l-2.758,2.757a.975.975,0,0,1-1.379,0l-2.757-2.757a.975.975,0,1,1,1.379-1.379l1.1,1.1v-3.968H48.952v8.712a.977.977,0,0,1,.377-.076Z" transform="translate(-45.071 -118.611)" fill="#f7f7f8" fill-rule="evenodd"/>
        <path id="Trazado_1029605" data-name="Trazado 1029605" d="M77.754,41.712H69.732l-2.713,2.712v11.8H77.754Zm-2.153,1.8a.975.975,0,0,1,0,1.95H71.58a.975.975,0,0,1,0-1.95Zm0,4.448a.975.975,0,1,1,0,1.95H69.172a.975.975,0,0,1,0-1.95Zm0,4.448a.975.975,0,1,1,0,1.95H69.172a.975.975,0,1,1,0-1.95Zm-30.422-9.4-.984-1.3h-6.61v1.3Zm6.112,6.542A.975.975,0,1,1,52.67,50.93l-2.752,2.751a.975.975,0,0,1-.079.072l0,0-.016.013-.005,0-.013.01-.007.005-.013.009-.006,0-.013.009-.008.005-.012.008-.008.005-.013.008-.007,0-.013.008-.007,0-.016.009,0,0-.017.009,0,0-.02.009a.976.976,0,0,1-.82,0h0l-.02-.009,0,0-.017-.009,0,0-.016-.009-.007,0-.013-.008-.007,0-.013-.008-.008-.005-.012-.008-.008-.005-.013-.009-.006,0-.013-.009-.007-.005-.013-.01-.005,0-.016-.013,0,0a1,1,0,0,1-.079-.072L45.779,50.93a.975.975,0,1,1,1.379-1.379l1.092,1.092V44.96H37.586V56.226H60.861V44.96H50.2v5.684l1.092-1.092ZM75.823,62.285h-53.2v2.178h53.2V62.285ZM61.142,72.691H37.3v3.026H61.142Zm-16.486-1.95h9.134V66.414H44.656ZM55.394,17.95H46.181l-3.128,3.128v13.47H55.394ZM45.156,31.9a.975.975,0,1,1,0-1.95h.027v-2.32a.975.975,0,0,1,1.95,0v2.32h1.115V24.64a.975.975,0,1,1,1.95,0v5.309h1.115V21.575a.975.975,0,1,1,1.95,0v8.374h.027a.975.975,0,1,1,0,1.95ZM31.427,41.712H23.4l-2.712,2.712v11.8H31.427ZM20.673,58.176h-.956a.975.975,0,0,1-.975-.975V44.021a.972.972,0,0,1,.291-.695l1.64-1.64V30.151a.975.975,0,0,1,.975-.975H35.217v-5.53a.971.971,0,1,1,1.942,0v5.53H41.1v-8.5a.972.972,0,0,1,.291-.695l3.694-3.694A.972.972,0,0,1,45.777,16H56.369a.975.975,0,0,1,.975.975v12.2h4.222v-5.53a.975.975,0,1,1,1.95,0v5.53H76.8a.975.975,0,0,1,.975.975v9.611h.956a.975.975,0,0,1,.975.975V57.2a.975.975,0,0,1-.975.975h-.956v7.263a.975.975,0,0,1-.975.975H55.74v4.327h6.377a.975.975,0,0,1,.975.975v4.977a.975.975,0,0,1-.975.975H36.33a.975.975,0,0,1-.975-.975V71.716a.975.975,0,0,1,.975-.975h6.377V66.414H21.648a.975.975,0,0,1-.975-.975ZM23,39.762a.976.976,0,0,0-.377.076V31.126H35.217v3.968l-1.1-1.1a.975.975,0,1,0-1.379,1.379L35.5,38.133a.975.975,0,0,0,1.379,0l2.757-2.757A.975.975,0,0,0,38.255,34l-1.1,1.1V31.126H41.1v4.4a.975.975,0,0,0,.975.975h6.171V43.01h-.627l-2.134-2.816a.974.974,0,0,0-.809-.432H36.611a.975.975,0,0,0-.975.975v2.882a.98.98,0,0,1,0,.366V57.2a.975.975,0,0,0,.975.975H61.836a.975.975,0,0,0,.975-.975V43.985a.975.975,0,0,0-.975-.975H50.2V36.5h6.171a.975.975,0,0,0,.975-.975v-4.4h4.222v3.965L60.474,34a.975.975,0,1,0-1.379,1.379l2.751,2.751a.975.975,0,0,0,.079.072l0,0,.016.013.005,0,.013.01.007.005.013.009.006,0,.013.009.008.005.012.008.008,0,.013.008.007,0,.013.008.007,0,.016.009,0,0,.017.009,0,0,.02.009h0a.976.976,0,0,0,.82,0h0l.02-.009,0,0,.017-.009,0,0,.016-.009.007,0,.013-.008.007,0,.013-.008.008,0,.012-.008.008-.005.013-.009.006,0,.013-.009.007-.005.013-.01.005,0,.016-.013,0,0a.974.974,0,0,0,.079-.072l2.751-2.751A.975.975,0,1,0,64.607,34l-1.092,1.092V31.126H75.823v8.636H69.328a.972.972,0,0,0-.689.285l-3.278,3.279a.972.972,0,0,0-.291.695V57.2a.975.975,0,0,0,.975.975h9.779v2.161h-53.2V58.176H32.4a.975.975,0,0,0,.975-.975V40.737a.975.975,0,0,0-.975-.975Zm6.273,3.75a.975.975,0,1,1,0,1.95H25.253a.975.975,0,0,1,0-1.95Zm0,4.448a.975.975,0,1,1,0,1.95H22.845a.975.975,0,0,1,0-1.95Zm0,4.448a.975.975,0,1,1,0,1.95H22.845a.975.975,0,1,1,0-1.95Z" transform="translate(-18.742 -16)" fill-rule="evenodd"/>
      </g>
    </g>
  </g>
</svg>
