<svg xmlns="http://www.w3.org/2000/svg" xmlns:xlink="http://www.w3.org/1999/xlink" width="108" height="108" viewBox="0 0 108 108">
  <defs>
    <filter id="Trazado_982547" x="0" y="0" width="108" height="108" filterUnits="userSpaceOnUse">
      <feOffset dy="3" input="SourceAlpha"/>
      <feGaussianBlur stdDeviation="3" result="blur"/>
      <feFlood flood-opacity="0.161"/>
      <feComposite operator="in" in2="blur"/>
      <feComposite in="SourceGraphic"/>
    </filter>
  </defs>
  <g id="Grupo_1173633" data-name="Grupo 1173633" transform="translate(-904 -6168.167)">
    <g id="Grupo_1173456" data-name="Grupo 1173456" transform="translate(913 6174.167)">
      <g id="Grupo_1172017" data-name="Grupo 1172017" transform="translate(0 0)">
        <g id="Grupo_1167337" data-name="Grupo 1167337" transform="translate(0)">
          <g id="Grupo_1166720" data-name="Grupo 1166720">
            <g id="Grupo_1164305" data-name="Grupo 1164305">
              <g id="Grupo_1163948" data-name="Grupo 1163948">
                <g id="Grupo_1158168" data-name="Grupo 1158168">
                  <g id="Grupo_1152576" data-name="Grupo 1152576">
                    <g id="Grupo_1148633" data-name="Grupo 1148633">
                      <g id="Grupo_1148525" data-name="Grupo 1148525">
                        <g transform="matrix(1, 0, 0, 1, -9, -6)" filter="url(#Trazado_982547)">
                          <g id="Trazado_982547-2" data-name="Trazado 982547" transform="translate(9 6)" fill="#e9f9fd">
                            <path d="M 45 88.5 C 39.12687683105469 88.5 33.43022537231445 87.35007476806641 28.06830024719238 85.08217620849609 C 22.88852500915527 82.89131164550781 18.23629951477051 79.75458526611328 14.2408504486084 75.75914764404297 C 10.24541282653809 71.76370239257812 7.108687400817871 67.11147308349609 4.917825222015381 61.93170166015625 C 2.649924993515015 56.56977462768555 1.5 50.87312316894531 1.5 45 C 1.5 39.12687683105469 2.649924993515015 33.43022537231445 4.917825222015381 28.06830024719238 C 7.108687400817871 22.88852500915527 10.24541282653809 18.23629951477051 14.2408504486084 14.2408504486084 C 18.23629951477051 10.24541282653809 22.88852500915527 7.108687400817871 28.06830024719238 4.917825222015381 C 33.43022537231445 2.649924993515015 39.12687683105469 1.5 45 1.5 C 50.87312316894531 1.5 56.56977462768555 2.649924993515015 61.93170166015625 4.917825222015381 C 67.11147308349609 7.108687400817871 71.76370239257812 10.24541282653809 75.75914764404297 14.2408504486084 C 79.75458526611328 18.23629951477051 82.89131164550781 22.88852500915527 85.08217620849609 28.06830024719238 C 87.35007476806641 33.43022537231445 88.5 39.12687683105469 88.5 45 C 88.5 50.87312316894531 87.35007476806641 56.56977462768555 85.08217620849609 61.93170166015625 C 82.89131164550781 67.11147308349609 79.75458526611328 71.76370239257812 75.75914764404297 75.75914764404297 C 71.76370239257812 79.75458526611328 67.11147308349609 82.89131164550781 61.93170166015625 85.08217620849609 C 56.56977462768555 87.35007476806641 50.87312316894531 88.5 45 88.5 Z" stroke="none"/>
                            <path d="M 45 3 C 39.32871246337891 3 33.82865524291992 4.110054016113281 28.65262985229492 6.299339294433594 C 23.65165710449219 8.414573669433594 19.15968322753906 11.44334411621094 15.301513671875 15.301513671875 C 11.44334411621094 19.15968322753906 8.414573669433594 23.65165710449219 6.299339294433594 28.65262985229492 C 4.110054016113281 33.82865524291992 3 39.32871246337891 3 45 C 3 50.67128753662109 4.110054016113281 56.17134475708008 6.299339294433594 61.34737396240234 C 8.414573669433594 66.34834289550781 11.44334411621094 70.84031677246094 15.301513671875 74.698486328125 C 19.15968322753906 78.55665588378906 23.65165710449219 81.58542633056641 28.65262985229492 83.70066070556641 C 33.82865524291992 85.88994598388672 39.32871246337891 87 45 87 C 50.67128753662109 87 56.17134475708008 85.88994598388672 61.34737396240234 83.70066070556641 C 66.34834289550781 81.58542633056641 70.84031677246094 78.55665588378906 74.698486328125 74.698486328125 C 78.55665588378906 70.84031677246094 81.58542633056641 66.34834289550781 83.70066070556641 61.34737396240234 C 85.88994598388672 56.17134475708008 87 50.67128753662109 87 45 C 87 39.32871246337891 85.88994598388672 33.82865524291992 83.70066070556641 28.65262985229492 C 81.58542633056641 23.65165710449219 78.55665588378906 19.15968322753906 74.698486328125 15.301513671875 C 70.84031677246094 11.44334411621094 66.34834289550781 8.414573669433594 61.34737396240234 6.299339294433594 C 56.17134475708008 4.110054016113281 50.67128753662109 3 45 3 M 45 0 C 69.85281372070312 0 90 20.14718627929688 90 45 C 90 69.85281372070312 69.85281372070312 90 45 90 C 20.14718627929688 90 0 69.85281372070312 0 45 C 0 20.14718627929688 20.14718627929688 0 45 0 Z" stroke="none" fill="#1d7083"/>
                          </g>
                        </g>
                      </g>
                    </g>
                  </g>
                </g>
              </g>
            </g>
          </g>
        </g>
      </g>
    </g>
    <g id="data-analytics_10887370" transform="translate(910.695 6165.898)">
      <g id="Grupo_1173632" data-name="Grupo 1173632" transform="translate(16.871 26.029)">
        <path id="Trazado_1029606" data-name="Trazado 1029606" d="M194.74,370.113h4.415l2.208,10.725h-8.83Z" transform="translate(-170.377 -325.989)" fill="#21323c" fill-rule="evenodd"/>
        <path id="Trazado_1029607" data-name="Trazado 1029607" d="M25.271,97.287H73.228a2.6,2.6,0,0,1,2.592,2.592v32.727a2.6,2.6,0,0,1-2.592,2.592H25.271a2.6,2.6,0,0,1-2.592-2.592V99.879A2.6,2.6,0,0,1,25.271,97.287Z" transform="translate(-22.679 -88.75)" fill="#324d5b" fill-rule="evenodd"/>
        <path id="Trazado_1029608" data-name="Trazado 1029608" d="M62.5,133.448h39.365a1.953,1.953,0,0,1,1.947,1.947v24.584a1.953,1.953,0,0,1-1.947,1.947H62.5a1.953,1.953,0,0,1-1.947-1.947V135.4a1.953,1.953,0,0,1,1.947-1.947Z" transform="translate(-55.616 -120.194)" fill="#cbffff" fill-rule="evenodd"/>
        <path id="Trazado_1029609" data-name="Trazado 1029609" d="M134.466,439.911h21.816a1.247,1.247,0,0,1,1.243,1.243v2.763a1.247,1.247,0,0,1-1.243,1.243H134.466a1.247,1.247,0,0,1-1.243-1.243v-2.763A1.247,1.247,0,0,1,134.466,439.911Z" transform="translate(-118.804 -386.682)" fill="#324d5b" fill-rule="evenodd"/>
        <path id="Trazado_1029610" data-name="Trazado 1029610" d="M183.768,48.377H203.6a.508.508,0,0,1,.508.508v5.408a.509.509,0,0,1-.508.508h-19.83a.509.509,0,0,1-.508-.508V48.885A.508.508,0,0,1,183.768,48.377Z" transform="translate(-162.314 -46.22)" fill="#ff8046" fill-rule="evenodd"/>
        <path id="Trazado_1029611" data-name="Trazado 1029611" d="M91.893,31.84h9.938a.5.5,0,0,1,.44.254l3.369,5.834a.5.5,0,0,0,.44.254h20.016a.508.508,0,0,1,.508.508v19.5a.508.508,0,0,1-.508.508h-34.2a.508.508,0,0,1-.508-.508V32.348A.508.508,0,0,1,91.893,31.84Z" transform="translate(-82.423 -31.84)" fill="#f5bc1a" fill-rule="evenodd"/>
        <path id="Trazado_1029612" data-name="Trazado 1029612" d="M146.768,206.091h2.752a.509.509,0,0,1,.508.508v6.457a.509.509,0,0,1-.508.508h-2.752a.509.509,0,0,1-.508-.508V206.6A.509.509,0,0,1,146.768,206.091Z" transform="translate(-130.14 -183.362)" fill="#7d6ab0" fill-rule="evenodd"/>
        <path id="Trazado_1029613" data-name="Trazado 1029613" d="M193.746,174.25H196.5a.509.509,0,0,1,.508.508v10.61a.509.509,0,0,1-.508.508h-2.752a.509.509,0,0,1-.508-.508v-10.61A.508.508,0,0,1,193.746,174.25Z" transform="translate(-170.99 -155.674)" fill="#f74933" fill-rule="evenodd"/>
        <path id="Trazado_1029614" data-name="Trazado 1029614" d="M241.933,188.106h2.752a.509.509,0,0,1,.508.508v8.8a.509.509,0,0,1-.508.508h-2.752a.508.508,0,0,1-.508-.508v-8.8A.508.508,0,0,1,241.933,188.106Z" transform="translate(-212.892 -167.723)" fill="#7d6ab0" fill-rule="evenodd"/>
        <path id="Trazado_1029615" data-name="Trazado 1029615" d="M288.76,148.137h2.752a.508.508,0,0,1,.508.508v14.016a.509.509,0,0,1-.508.508H288.76a.509.509,0,0,1-.508-.508V148.645A.509.509,0,0,1,288.76,148.137Z" transform="translate(-253.611 -132.967)" fill="#f74933" fill-rule="evenodd"/>
        <path id="Trazado_1029616" data-name="Trazado 1029616" d="M361.323,323.838l1.517-1.516,6.242,6.242-1.581,1.5Z" transform="translate(-317.15 -284.432)" fill="#21323c" fill-rule="evenodd"/>
        <circle id="Elipse_11864" data-name="Elipse 11864" cx="10.679" cy="10.679" r="10.679" transform="matrix(0.94, -0.34, 0.34, 0.94, 25.214, 26.333)" fill="#2d4552"/>
        <circle id="Elipse_11865" data-name="Elipse 11865" cx="7.355" cy="7.355" r="7.355" transform="translate(31.556 25.378)" fill="#cbffff"/>
        <path id="Trazado_1029617" data-name="Trazado 1029617" d="M396.414,360.819l2.315-2.315a.509.509,0,0,1,.718,0l8.674,8.674a.97.97,0,0,1,0,1.369l-1.664,1.664a.97.97,0,0,1-1.369,0l-8.674-8.674A.509.509,0,0,1,396.414,360.819Z" transform="translate(-347.535 -315.765)" fill="#d4812c" fill-rule="evenodd"/>
      </g>
      <path id="Trazado_1029618" data-name="Trazado 1029618" d="M65.263,65.37l2.464,2.464.059-.059a.887.887,0,0,1,1.255,0l.073.073V37.167a1.711,1.711,0,0,0-1.7-1.7H61.93V38.4h1.186a2.839,2.839,0,0,1,2.833,2.833V53.262a11.571,11.571,0,0,1-.687,12.109Zm1.209,3.718-.28.28-2.329-2.346.27-.273Zm-1.531,1.531a1.01,1.01,0,0,0-.434.962H19.478a1.711,1.711,0,0,1-1.7-1.7V37.167a1.711,1.711,0,0,1,1.7-1.7h5.479V38.4H23.772a2.839,2.839,0,0,0-2.833,2.833V65.808a2.839,2.839,0,0,0,2.833,2.833h26A11.568,11.568,0,0,0,62.5,68.163Zm-3.01-36.93H67.41a3.486,3.486,0,0,1,3.478,3.478V69.622L78.069,76.8a1.856,1.856,0,0,1,0,2.623l-1.663,1.663a1.857,1.857,0,0,1-2.623,0l-7.733-7.733H47.214l1.03,5h6.1a2.134,2.134,0,0,1,2.13,2.13v2.762a2.134,2.134,0,0,1-2.13,2.13h-21.8a2.134,2.134,0,0,1-2.13-2.13V80.487a2.134,2.134,0,0,1,2.13-2.13h6.1l1.03-5h-20.2A3.486,3.486,0,0,1,16,69.878V37.167a3.486,3.486,0,0,1,3.478-3.478h5.479V26.044a.887.887,0,0,1,.887-.887H36.577a.887.887,0,0,1,.807.518l.945,1.637H58.657a.887.887,0,0,1,.887.887v3.3h1.5a.887.887,0,0,1,.887.887v1.306ZM45.408,73.356H41.48l-1.03,5h5.988ZM24.957,40.178H23.772a1.064,1.064,0,0,0-1.059,1.059V65.808a1.064,1.064,0,0,0,1.059,1.059H47.536a11.523,11.523,0,0,1-3.291-7.3H29.914a.887.887,0,1,1,0-1.774H44.256a11.519,11.519,0,0,1,.262-1.672V46.417a.887.887,0,0,1,.887-.887H49.17a.887.887,0,0,1,.887.887v2.294q.278-.159.565-.3v-7.2a.887.887,0,0,1,.887-.887h3.765a.887.887,0,0,1,.887.887v6a11.512,11.512,0,0,1,3.994.852V33.27H40.237v0a.883.883,0,0,1-.766-.443l-3.4-5.892H26.732V52h5.38V48.761A.887.887,0,0,1,33,47.874h3.765a.887.887,0,0,1,.887.887v7.468a.887.887,0,0,1-.887.887H33a.887.887,0,0,1-.887-.887V53.778H25.844a.887.887,0,0,1-.887-.887ZM64.175,50.814a11.586,11.586,0,0,0-2.244-1.844V40.178h1.186a1.064,1.064,0,0,1,1.059,1.059ZM54.346,80.132h-21.8a.359.359,0,0,0-.356.356v2.762a.359.359,0,0,0,.356.356h21.8a.359.359,0,0,0,.356-.356V80.487A.359.359,0,0,0,54.346,80.132ZM57.77,31.5V29.087H39.355l1.39,2.408ZM52.288,53.318a6.467,6.467,0,1,1-1.081.871q.225-.225.471-.427A.889.889,0,0,0,52.288,53.318ZM50.8,52.2a8.238,8.238,0,1,1-3.26,6.564A8.231,8.231,0,0,1,50.8,52.2ZM46.292,52h.1a11.615,11.615,0,0,1,1.888-2.047V47.3H46.292ZM35.877,49.649H33.886v5.693h1.991Zm3.247-5.925a.887.887,0,0,0-.887.887V56.229a.887.887,0,0,0,.887.887h3.765a.887.887,0,0,0,.887-.887V44.61a.887.887,0,0,0-.887-.887ZM42,45.5H40.01v9.845H42Zm12.387,1.784V42.093H52.4V47.7A11.485,11.485,0,0,1,54.388,47.282ZM62.7,51.839a9.787,9.787,0,1,1-15.1,1.549A9.787,9.787,0,0,1,62.7,51.839Zm5.716,17.817-1.777,1.777,8.4,8.4h.114l1.663-1.663v-.114Z" transform="translate(0 0)" fill-rule="evenodd"/>
    </g>
  </g>
</svg>
