<svg xmlns="http://www.w3.org/2000/svg" width="820" height="206" viewBox="0 0 820 206">
  <g id="Grupo_1173686" data-name="Grupo 1173686" transform="translate(-180 -2860)">
    <path id="driver-with-opened-car-door" d="M0,0H315V206H0Z" transform="translate(180 2860)" fill="#e2dacc"/>
    <path id="driver-with-opened-car-door-2" data-name="driver-with-opened-car-door" d="M0,0H505V206H0Z" transform="translate(495 2860)" fill="#f6f3ef"/>
    <path id="Trazado_1029829" data-name="Trazado 1029829" d="M10.635,4.122H.448V3.437L6.39-4.324.773-11.812V-12.6h9.51v1.354H2.936L8.156-4.359,2.663,2.777h7.972ZM16.311-6H15.47V-8.994q0-1.671-1.22-1.671a1.323,1.323,0,0,0-1.043.474,1.758,1.758,0,0,0-.413,1.2V-6h-.841v-5.25h.841v.872h.021a1.9,1.9,0,0,1,1.723-.995,1.606,1.606,0,0,1,1.318.556,2.478,2.478,0,0,1,.456,1.607ZM18.327-.583a.533.533,0,0,1-.385-.154.519.519,0,0,1-.159-.39.527.527,0,0,1,.159-.392.528.528,0,0,1,.385-.156.543.543,0,0,1,.392.156.523.523,0,0,1,.161.392.52.52,0,0,1-.161.384A.538.538,0,0,1,18.327-.583ZM18.737,6H17.9V.75h.841ZM29.89-6.539H21.628V-7.7H29.89Zm0,3.744H21.628v-1.16H29.89ZM35.616,6h-.841V-.352a1.946,1.946,0,0,1-.285.223,4.638,4.638,0,0,1-.42.249q-.233.123-.492.231a3.577,3.577,0,0,1-.5.169V-.331a4.888,4.888,0,0,0,.587-.208q.31-.131.61-.292t.566-.338a4.5,4.5,0,0,0,.461-.346h.318Z" transform="translate(527 2973)" fill="#212429"/>
    <path id="Trazado_1029832" data-name="Trazado 1029832" d="M8.033-9,5.01-4.447,7.98,0H6.3L4.535-2.918q-.167-.272-.4-.686H4.1q-.044.079-.413.686L1.89,0H.229L3.3-4.412.36-9H2.039l1.74,3.076q.193.343.378.7h.035L6.442-9ZM9.545-.583a.533.533,0,0,1-.384-.154A.519.519,0,0,1,9-1.126a.527.527,0,0,1,.159-.392.528.528,0,0,1,.384-.156.543.543,0,0,1,.392.156.523.523,0,0,1,.161.392.52.52,0,0,1-.161.384A.538.538,0,0,1,9.545-.583ZM9.955,6H9.115V.75h.841Z" transform="translate(527 3003)" fill="#212429"/>
    <path id="Trazado_1029836" data-name="Trazado 1029836" d="M8.93,0H7.488V-5.133Q7.488-8,5.4-8a2.269,2.269,0,0,0-1.789.813A3.013,3.013,0,0,0,2.9-5.133V0H1.459V-9H2.9v1.494h.035A3.248,3.248,0,0,1,5.889-9.211a2.753,2.753,0,0,1,2.259.954A4.248,4.248,0,0,1,8.93-5.5Z" transform="translate(527 3035)" fill="#212429"/>
    <path id="Trazado_1029833" data-name="Trazado 1029833" d="M2.2-11.285a.913.913,0,0,1-.659-.264.89.89,0,0,1-.272-.668.9.9,0,0,1,.272-.672.905.905,0,0,1,.659-.268.931.931,0,0,1,.672.268.9.9,0,0,1,.277.672.891.891,0,0,1-.277.659A.923.923,0,0,1,2.2-11.285ZM2.9,0H1.459V-9H2.9Zm10.39,0H11.849V-5.133Q11.849-8,9.758-8a2.269,2.269,0,0,0-1.789.813,3.013,3.013,0,0,0-.708,2.052V0H5.82V-9H7.262v1.494H7.3A3.248,3.248,0,0,1,10.25-9.211a2.753,2.753,0,0,1,2.259.954A4.248,4.248,0,0,1,13.291-5.5Zm10.4,0H22.249V-1.529h-.035A3.327,3.327,0,0,1,19.12.211,3.362,3.362,0,0,1,16.408-1a4.958,4.958,0,0,1-1.015-3.292,5.394,5.394,0,0,1,1.125-3.577,3.71,3.71,0,0,1,3-1.345,2.885,2.885,0,0,1,2.7,1.459h.035v-5.572H23.69ZM22.249-4.069V-5.4a2.575,2.575,0,0,0-.721-1.846A2.417,2.417,0,0,0,19.7-8a2.489,2.489,0,0,0-2.074.967,4.237,4.237,0,0,0-.756,2.672A3.81,3.81,0,0,0,17.595-1.9a2.37,2.37,0,0,0,1.947.9,2.462,2.462,0,0,0,1.956-.87A3.242,3.242,0,0,0,22.249-4.069Zm5.1-7.216a.913.913,0,0,1-.659-.264.89.89,0,0,1-.272-.668.9.9,0,0,1,.272-.672.905.905,0,0,1,.659-.268.931.931,0,0,1,.672.268.9.9,0,0,1,.277.672.891.891,0,0,1-.277.659A.923.923,0,0,1,27.348-11.285ZM28.051,0H26.61V-9h1.441Zm9.055-.413a4.684,4.684,0,0,1-2.461.624,4.074,4.074,0,0,1-3.107-1.252,4.539,4.539,0,0,1-1.182-3.248A4.99,4.99,0,0,1,31.63-7.862a4.458,4.458,0,0,1,3.4-1.349,4.735,4.735,0,0,1,2.092.439v1.477A3.665,3.665,0,0,0,34.979-8a2.9,2.9,0,0,0-2.263.989,3.752,3.752,0,0,0-.883,2.6,3.573,3.573,0,0,0,.831,2.5A2.863,2.863,0,0,0,34.891-1a3.613,3.613,0,0,0,2.215-.782ZM45.73,0H44.288V-1.406h-.035A3.018,3.018,0,0,1,41.485.211,2.959,2.959,0,0,1,39.38-.5a2.466,2.466,0,0,1-.76-1.89q0-2.522,2.971-2.936l2.7-.378Q44.288-8,42.434-8A4.431,4.431,0,0,0,39.5-6.891V-8.367a5.577,5.577,0,0,1,3.059-.844q3.173,0,3.173,3.357ZM44.288-4.553l-2.171.3a3.525,3.525,0,0,0-1.512.5A1.432,1.432,0,0,0,40.1-2.5a1.374,1.374,0,0,0,.47,1.077A1.817,1.817,0,0,0,41.819-1a2.314,2.314,0,0,0,1.771-.751,2.685,2.685,0,0,0,.7-1.9ZM54.821,0H53.38V-13.324h1.441Zm9.362,0H62.742V-1.406h-.035A3.018,3.018,0,0,1,59.938.211a2.959,2.959,0,0,1-2.1-.712,2.466,2.466,0,0,1-.76-1.89q0-2.522,2.971-2.936l2.7-.378Q62.742-8,60.887-8a4.431,4.431,0,0,0-2.936,1.107V-8.367a5.577,5.577,0,0,1,3.059-.844q3.173,0,3.173,3.357ZM62.742-4.553l-2.171.3a3.525,3.525,0,0,0-1.512.5A1.432,1.432,0,0,0,58.55-2.5a1.374,1.374,0,0,0,.47,1.077A1.817,1.817,0,0,0,60.272-1a2.314,2.314,0,0,0,1.771-.751,2.685,2.685,0,0,0,.7-1.9ZM71.289-.325V-1.872A4.266,4.266,0,0,0,73.881-1q1.9,0,1.9-1.266a1.1,1.1,0,0,0-.163-.611,1.62,1.62,0,0,0-.439-.444,3.383,3.383,0,0,0-.65-.347q-.374-.154-.8-.321a10.357,10.357,0,0,1-1.05-.479,3.173,3.173,0,0,1-.756-.545,2.028,2.028,0,0,1-.457-.69,2.441,2.441,0,0,1-.154-.905A2.15,2.15,0,0,1,71.6-7.73a2.572,2.572,0,0,1,.773-.817,3.607,3.607,0,0,1,1.1-.5,4.893,4.893,0,0,1,1.279-.167,5.164,5.164,0,0,1,2.092.4v1.459A4.077,4.077,0,0,0,74.558-8a2.671,2.671,0,0,0-.729.092,1.786,1.786,0,0,0-.558.259,1.2,1.2,0,0,0-.36.4,1.053,1.053,0,0,0-.127.514,1.233,1.233,0,0,0,.127.589,1.3,1.3,0,0,0,.374.422,2.855,2.855,0,0,0,.6.334q.352.149.8.325a11.131,11.131,0,0,1,1.072.47,3.678,3.678,0,0,1,.809.545,2.129,2.129,0,0,1,.514.7,2.254,2.254,0,0,1,.18.94,2.217,2.217,0,0,1-.294,1.16,2.523,2.523,0,0,1-.787.817,3.6,3.6,0,0,1-1.134.483A5.6,5.6,0,0,1,73.7.211,5.106,5.106,0,0,1,71.289-.325ZM86.75,0H85.309V-1.424h-.035A2.96,2.96,0,0,1,82.5.211q-3.217,0-3.217-3.832V-9h1.433v5.15Q80.712-1,82.892-1a2.205,2.205,0,0,0,1.736-.778,2.976,2.976,0,0,0,.681-2.035V-9H86.75Zm15.69,0H101V-5.168a3.9,3.9,0,0,0-.461-2.162A1.75,1.75,0,0,0,98.986-8a1.921,1.921,0,0,0-1.569.844,3.228,3.228,0,0,0-.646,2.021V0H95.33V-5.344Q95.33-8,93.282-8a1.9,1.9,0,0,0-1.564.8,3.288,3.288,0,0,0-.615,2.07V0H89.661V-9H91.1v1.424h.035a3.058,3.058,0,0,1,2.795-1.635,2.606,2.606,0,0,1,1.608.514,2.586,2.586,0,0,1,.94,1.349A3.212,3.212,0,0,1,99.47-9.211q2.971,0,2.971,3.665Zm9.169,0h-1.441V-1.406h-.035A3.018,3.018,0,0,1,107.364.211a2.959,2.959,0,0,1-2.1-.712,2.466,2.466,0,0,1-.76-1.89q0-2.522,2.971-2.936l2.7-.378Q110.168-8,108.313-8a4.431,4.431,0,0,0-2.936,1.107V-8.367a5.577,5.577,0,0,1,3.059-.844q3.173,0,3.173,3.357Zm-1.441-4.553-2.171.3a3.525,3.525,0,0,0-1.512.5,1.432,1.432,0,0,0-.51,1.261,1.374,1.374,0,0,0,.47,1.077A1.817,1.817,0,0,0,107.7-1a2.314,2.314,0,0,0,1.771-.751,2.685,2.685,0,0,0,.7-1.9ZM126.941,0H125.5V-1.529h-.035a3.327,3.327,0,0,1-3.094,1.74A3.362,3.362,0,0,1,119.659-1a4.958,4.958,0,0,1-1.015-3.292,5.394,5.394,0,0,1,1.125-3.577,3.71,3.71,0,0,1,3-1.345,2.885,2.885,0,0,1,2.7,1.459h.035v-5.572h1.441ZM125.5-4.069V-5.4a2.575,2.575,0,0,0-.721-1.846A2.417,2.417,0,0,0,122.951-8a2.489,2.489,0,0,0-2.074.967,4.237,4.237,0,0,0-.756,2.672,3.81,3.81,0,0,0,.725,2.457,2.37,2.37,0,0,0,1.947.9,2.462,2.462,0,0,0,1.956-.87A3.242,3.242,0,0,0,125.5-4.069Zm11.595-.07H130.74a3.366,3.366,0,0,0,.809,2.32A2.788,2.788,0,0,0,133.675-1a4.422,4.422,0,0,0,2.795-1V-.65a5.224,5.224,0,0,1-3.138.861,3.8,3.8,0,0,1-3-1.226,5.018,5.018,0,0,1-1.09-3.45,4.921,4.921,0,0,1,1.191-3.423,3.819,3.819,0,0,1,2.958-1.323,3.384,3.384,0,0,1,2.733,1.143,4.764,4.764,0,0,1,.967,3.173Zm-1.477-1.222a2.933,2.933,0,0,0-.6-1.942A2.051,2.051,0,0,0,133.368-8a2.328,2.328,0,0,0-1.731.729,3.311,3.311,0,0,0-.879,1.907ZM145.65,0h-1.441V-13.324h1.441Zm6.681.211a4.175,4.175,0,0,1-3.186-1.261,4.672,4.672,0,0,1-1.191-3.344,4.867,4.867,0,0,1,1.239-3.542,4.455,4.455,0,0,1,3.349-1.274,4.037,4.037,0,0,1,3.142,1.239,4.914,4.914,0,0,1,1.129,3.437,4.835,4.835,0,0,1-1.217,3.45A4.265,4.265,0,0,1,152.331.211ZM152.437-8a2.742,2.742,0,0,0-2.2.945,3.88,3.88,0,0,0-.809,2.606,3.67,3.67,0,0,0,.817,2.522A2.778,2.778,0,0,0,152.437-1a2.635,2.635,0,0,0,2.149-.905,3.928,3.928,0,0,0,.751-2.575,4,4,0,0,0-.751-2.6A2.623,2.623,0,0,0,152.437-8Zm6.137,7.673V-1.872a4.266,4.266,0,0,0,2.593.87q1.9,0,1.9-1.266a1.1,1.1,0,0,0-.163-.611,1.62,1.62,0,0,0-.439-.444,3.383,3.383,0,0,0-.65-.347q-.374-.154-.8-.321a10.357,10.357,0,0,1-1.05-.479,3.173,3.173,0,0,1-.756-.545,2.028,2.028,0,0,1-.457-.69,2.441,2.441,0,0,1-.154-.905,2.15,2.15,0,0,1,.29-1.121,2.572,2.572,0,0,1,.773-.817,3.607,3.607,0,0,1,1.1-.5,4.893,4.893,0,0,1,1.279-.167,5.164,5.164,0,0,1,2.092.4v1.459A4.077,4.077,0,0,0,161.843-8a2.671,2.671,0,0,0-.729.092,1.786,1.786,0,0,0-.558.259,1.2,1.2,0,0,0-.36.4,1.053,1.053,0,0,0-.127.514,1.233,1.233,0,0,0,.127.589,1.3,1.3,0,0,0,.374.422,2.855,2.855,0,0,0,.6.334q.352.149.8.325a11.131,11.131,0,0,1,1.072.47,3.678,3.678,0,0,1,.809.545,2.129,2.129,0,0,1,.514.7,2.254,2.254,0,0,1,.18.94,2.217,2.217,0,0,1-.294,1.16,2.523,2.523,0,0,1-.787.817,3.6,3.6,0,0,1-1.134.483,5.6,5.6,0,0,1-1.345.158A5.106,5.106,0,0,1,158.573-.325ZM178.765-9l-3.586,9h-1.415l-3.41-9h1.582l2.285,6.539a5.869,5.869,0,0,1,.316,1.257h.035a5.943,5.943,0,0,1,.281-1.222L177.245-9Zm7.991,9h-1.441V-1.406h-.035A3.018,3.018,0,0,1,182.511.211a2.959,2.959,0,0,1-2.1-.712,2.466,2.466,0,0,1-.76-1.89q0-2.522,2.971-2.936l2.7-.378Q185.315-8,183.46-8a4.431,4.431,0,0,0-2.936,1.107V-8.367a5.577,5.577,0,0,1,3.059-.844q3.173,0,3.173,3.357Zm-1.441-4.553-2.171.3a3.525,3.525,0,0,0-1.512.5,1.432,1.432,0,0,0-.51,1.261,1.374,1.374,0,0,0,.47,1.077A1.817,1.817,0,0,0,182.845-1a2.314,2.314,0,0,0,1.771-.751,2.685,2.685,0,0,0,.7-1.9ZM190.915,0h-1.441V-13.324h1.441ZM197.6.211a4.175,4.175,0,0,1-3.186-1.261,4.672,4.672,0,0,1-1.191-3.344,4.867,4.867,0,0,1,1.239-3.542,4.455,4.455,0,0,1,3.349-1.274,4.037,4.037,0,0,1,3.142,1.239,4.914,4.914,0,0,1,1.129,3.437,4.835,4.835,0,0,1-1.217,3.45A4.265,4.265,0,0,1,197.6.211ZM197.7-8a2.742,2.742,0,0,0-2.2.945,3.88,3.88,0,0,0-.809,2.606,3.67,3.67,0,0,0,.817,2.522A2.778,2.778,0,0,0,197.7-1a2.635,2.635,0,0,0,2.149-.905,3.928,3.928,0,0,0,.751-2.575,4,4,0,0,0-.751-2.6A2.623,2.623,0,0,0,197.7-8Zm11.375.457a1.763,1.763,0,0,0-1.09-.29,1.839,1.839,0,0,0-1.542.87,4.023,4.023,0,0,0-.62,2.373V0h-1.441V-9h1.441v1.854h.035a3.143,3.143,0,0,1,.94-1.481,2.144,2.144,0,0,1,1.415-.532,2.353,2.353,0,0,1,.861.123Zm8.8,3.4h-6.354a3.366,3.366,0,0,0,.809,2.32A2.788,2.788,0,0,0,214.458-1a4.422,4.422,0,0,0,2.795-1V-.65a5.224,5.224,0,0,1-3.138.861,3.8,3.8,0,0,1-3-1.226,5.018,5.018,0,0,1-1.09-3.45,4.921,4.921,0,0,1,1.191-3.423,3.819,3.819,0,0,1,2.958-1.323,3.384,3.384,0,0,1,2.733,1.143,4.764,4.764,0,0,1,.967,3.173ZM216.4-5.361a2.933,2.933,0,0,0-.6-1.942A2.051,2.051,0,0,0,214.15-8a2.328,2.328,0,0,0-1.731.729,3.311,3.311,0,0,0-.879,1.907Zm3.113,5.036V-1.872a4.266,4.266,0,0,0,2.593.87Q224-1,224-2.268a1.1,1.1,0,0,0-.163-.611,1.62,1.62,0,0,0-.439-.444,3.383,3.383,0,0,0-.65-.347q-.374-.154-.8-.321a10.357,10.357,0,0,1-1.05-.479,3.173,3.173,0,0,1-.756-.545,2.028,2.028,0,0,1-.457-.69,2.441,2.441,0,0,1-.154-.905,2.15,2.15,0,0,1,.29-1.121,2.572,2.572,0,0,1,.773-.817,3.607,3.607,0,0,1,1.1-.5,4.893,4.893,0,0,1,1.279-.167,5.164,5.164,0,0,1,2.092.4v1.459A4.077,4.077,0,0,0,222.783-8a2.671,2.671,0,0,0-.729.092,1.786,1.786,0,0,0-.558.259,1.2,1.2,0,0,0-.36.4,1.053,1.053,0,0,0-.127.514,1.233,1.233,0,0,0,.127.589,1.3,1.3,0,0,0,.374.422,2.855,2.855,0,0,0,.6.334q.352.149.8.325a11.131,11.131,0,0,1,1.072.47,3.678,3.678,0,0,1,.809.545,2.129,2.129,0,0,1,.514.7,2.254,2.254,0,0,1,.18.94,2.217,2.217,0,0,1-.294,1.16,2.523,2.523,0,0,1-.787.817,3.6,3.6,0,0,1-1.134.483,5.6,5.6,0,0,1-1.345.158A5.106,5.106,0,0,1,219.513-.325Z" transform="translate(577 2973)" fill="#212429"/>
    <path id="Trazado_1029834" data-name="Trazado 1029834" d="M6.152-7.541a1.763,1.763,0,0,0-1.09-.29,1.839,1.839,0,0,0-1.542.87A4.023,4.023,0,0,0,2.9-4.588V0H1.459V-9H2.9v1.854h.035a3.143,3.143,0,0,1,.94-1.481,2.144,2.144,0,0,1,1.415-.532,2.353,2.353,0,0,1,.861.123Zm8.8,3.4H8.6a3.366,3.366,0,0,0,.809,2.32A2.788,2.788,0,0,0,11.533-1a4.422,4.422,0,0,0,2.795-1V-.65A5.224,5.224,0,0,1,11.19.211a3.8,3.8,0,0,1-3-1.226A5.018,5.018,0,0,1,7.1-4.465,4.921,4.921,0,0,1,8.294-7.888a3.819,3.819,0,0,1,2.958-1.323,3.384,3.384,0,0,1,2.733,1.143A4.764,4.764,0,0,1,14.952-4.9ZM13.475-5.361a2.933,2.933,0,0,0-.6-1.942A2.051,2.051,0,0,0,11.225-8a2.328,2.328,0,0,0-1.731.729,3.311,3.311,0,0,0-.879,1.907ZM18.61-1.3h-.035V4.14H17.133V-9h1.441v1.582h.035a3.408,3.408,0,0,1,3.111-1.793A3.3,3.3,0,0,1,24.437-8a5.005,5.005,0,0,1,.976,3.239,5.578,5.578,0,0,1-1.1,3.617A3.658,3.658,0,0,1,21.308.211,3.011,3.011,0,0,1,18.61-1.3Zm-.035-3.63v1.257A2.676,2.676,0,0,0,19.3-1.78,2.408,2.408,0,0,0,21.141-1a2.413,2.413,0,0,0,2.052-1,4.6,4.6,0,0,0,.743-2.786,3.629,3.629,0,0,0-.694-2.355A2.3,2.3,0,0,0,21.361-8a2.554,2.554,0,0,0-2.021.875A3.211,3.211,0,0,0,18.575-4.931Zm13.836-2.61a1.763,1.763,0,0,0-1.09-.29,1.839,1.839,0,0,0-1.542.87,4.023,4.023,0,0,0-.62,2.373V0H27.717V-9h1.441v1.854h.035a3.143,3.143,0,0,1,.94-1.481,2.144,2.144,0,0,1,1.415-.532,2.353,2.353,0,0,1,.861.123Zm8.8,3.4H34.856a3.366,3.366,0,0,0,.809,2.32A2.788,2.788,0,0,0,37.791-1a4.422,4.422,0,0,0,2.795-1V-.65a5.224,5.224,0,0,1-3.138.861,3.8,3.8,0,0,1-3-1.226,5.018,5.018,0,0,1-1.09-3.45,4.921,4.921,0,0,1,1.191-3.423A3.819,3.819,0,0,1,37.51-9.211a3.384,3.384,0,0,1,2.733,1.143A4.764,4.764,0,0,1,41.21-4.9ZM39.734-5.361a2.933,2.933,0,0,0-.6-1.942A2.051,2.051,0,0,0,37.484-8a2.328,2.328,0,0,0-1.731.729,3.311,3.311,0,0,0-.879,1.907ZM42.847-.325V-1.872A4.266,4.266,0,0,0,45.44-1q1.9,0,1.9-1.266a1.1,1.1,0,0,0-.163-.611,1.62,1.62,0,0,0-.439-.444,3.383,3.383,0,0,0-.65-.347q-.374-.154-.8-.321a10.357,10.357,0,0,1-1.05-.479,3.173,3.173,0,0,1-.756-.545,2.028,2.028,0,0,1-.457-.69,2.441,2.441,0,0,1-.154-.905,2.15,2.15,0,0,1,.29-1.121,2.572,2.572,0,0,1,.773-.817,3.607,3.607,0,0,1,1.1-.5,4.893,4.893,0,0,1,1.279-.167,5.164,5.164,0,0,1,2.092.4v1.459A4.077,4.077,0,0,0,46.116-8a2.671,2.671,0,0,0-.729.092,1.786,1.786,0,0,0-.558.259,1.2,1.2,0,0,0-.36.4,1.053,1.053,0,0,0-.127.514,1.233,1.233,0,0,0,.127.589,1.3,1.3,0,0,0,.374.422,2.855,2.855,0,0,0,.6.334q.352.149.8.325a11.131,11.131,0,0,1,1.072.47,3.678,3.678,0,0,1,.809.545,2.129,2.129,0,0,1,.514.7,2.254,2.254,0,0,1,.18.94,2.217,2.217,0,0,1-.294,1.16,2.523,2.523,0,0,1-.787.817A3.6,3.6,0,0,1,46.6.053a5.6,5.6,0,0,1-1.345.158A5.106,5.106,0,0,1,42.847-.325ZM58.265-4.14H51.91a3.366,3.366,0,0,0,.809,2.32A2.788,2.788,0,0,0,54.846-1a4.422,4.422,0,0,0,2.795-1V-.65A5.224,5.224,0,0,1,54.5.211a3.8,3.8,0,0,1-3-1.226,5.018,5.018,0,0,1-1.09-3.45,4.921,4.921,0,0,1,1.191-3.423,3.819,3.819,0,0,1,2.958-1.323A3.384,3.384,0,0,1,57.3-8.068,4.764,4.764,0,0,1,58.265-4.9ZM56.788-5.361a2.933,2.933,0,0,0-.6-1.942A2.051,2.051,0,0,0,54.538-8a2.328,2.328,0,0,0-1.731.729,3.311,3.311,0,0,0-.879,1.907ZM67.917,0H66.475V-5.133Q66.475-8,64.384-8a2.269,2.269,0,0,0-1.789.813,3.013,3.013,0,0,0-.708,2.052V0H60.446V-9h1.441v1.494h.035a3.248,3.248,0,0,1,2.953-1.705,2.753,2.753,0,0,1,2.259.954A4.248,4.248,0,0,1,67.917-5.5Zm6.892-.088a2.779,2.779,0,0,1-1.345.281Q71.1.193,71.1-2.443V-7.77H69.553V-9H71.1v-2.2l1.441-.466V-9h2.268v1.23H72.542V-2.7a2.1,2.1,0,0,0,.308,1.292,1.228,1.228,0,0,0,1.02.387,1.515,1.515,0,0,0,.94-.3ZM83.178,0H81.737V-1.406H81.7A3.018,3.018,0,0,1,78.933.211a2.959,2.959,0,0,1-2.1-.712,2.466,2.466,0,0,1-.76-1.89q0-2.522,2.971-2.936l2.7-.378Q81.737-8,79.882-8a4.431,4.431,0,0,0-2.936,1.107V-8.367a5.577,5.577,0,0,1,3.059-.844q3.173,0,3.173,3.357ZM81.737-4.553l-2.171.3a3.525,3.525,0,0,0-1.512.5,1.432,1.432,0,0,0-.51,1.261,1.374,1.374,0,0,0,.47,1.077A1.817,1.817,0,0,0,79.267-1a2.314,2.314,0,0,0,1.771-.751,2.685,2.685,0,0,0,.7-1.9ZM96.963-.413A4.684,4.684,0,0,1,94.5.211,4.074,4.074,0,0,1,91.4-1.042a4.539,4.539,0,0,1-1.182-3.248,4.99,4.99,0,0,1,1.274-3.573,4.458,4.458,0,0,1,3.4-1.349,4.735,4.735,0,0,1,2.092.439v1.477A3.665,3.665,0,0,0,94.836-8a2.9,2.9,0,0,0-2.263.989,3.752,3.752,0,0,0-.883,2.6,3.573,3.573,0,0,0,.831,2.5A2.863,2.863,0,0,0,94.748-1a3.613,3.613,0,0,0,2.215-.782ZM105.587,0h-1.441V-1.406h-.035A3.018,3.018,0,0,1,101.342.211a2.959,2.959,0,0,1-2.1-.712,2.466,2.466,0,0,1-.76-1.89q0-2.522,2.971-2.936l2.7-.378Q104.146-8,102.291-8a4.431,4.431,0,0,0-2.936,1.107V-8.367a5.577,5.577,0,0,1,3.059-.844q3.173,0,3.173,3.357Zm-1.441-4.553-2.171.3a3.525,3.525,0,0,0-1.512.5,1.432,1.432,0,0,0-.51,1.261,1.374,1.374,0,0,0,.47,1.077A1.817,1.817,0,0,0,101.676-1a2.314,2.314,0,0,0,1.771-.751,2.685,2.685,0,0,0,.7-1.9ZM115.986,0h-1.441V-1.529h-.035a3.327,3.327,0,0,1-3.094,1.74A3.362,3.362,0,0,1,108.7-1a4.958,4.958,0,0,1-1.015-3.292,5.394,5.394,0,0,1,1.125-3.577,3.71,3.71,0,0,1,3-1.345,2.885,2.885,0,0,1,2.7,1.459h.035v-5.572h1.441Zm-1.441-4.069V-5.4a2.575,2.575,0,0,0-.721-1.846A2.417,2.417,0,0,0,112-8a2.489,2.489,0,0,0-2.074.967,4.237,4.237,0,0,0-.756,2.672,3.81,3.81,0,0,0,.725,2.457,2.37,2.37,0,0,0,1.947.9,2.462,2.462,0,0,0,1.956-.87A3.242,3.242,0,0,0,114.545-4.069ZM125.348,0h-1.441V-1.406h-.035A3.018,3.018,0,0,1,121.1.211,2.959,2.959,0,0,1,119-.5a2.466,2.466,0,0,1-.76-1.89q0-2.522,2.971-2.936l2.7-.378Q123.907-8,122.053-8a4.431,4.431,0,0,0-2.936,1.107V-8.367a5.577,5.577,0,0,1,3.059-.844q3.173,0,3.173,3.357Zm-1.441-4.553-2.171.3a3.525,3.525,0,0,0-1.512.5,1.432,1.432,0,0,0-.51,1.261,1.374,1.374,0,0,0,.47,1.077A1.817,1.817,0,0,0,121.437-1a2.314,2.314,0,0,0,1.771-.751,2.685,2.685,0,0,0,.7-1.9ZM140.276,0h-1.441V-1.424H138.8A2.96,2.96,0,0,1,136.022.211q-3.217,0-3.217-3.832V-9h1.433v5.15q0,2.848,2.18,2.848a2.205,2.205,0,0,0,1.736-.778,2.976,2.976,0,0,0,.681-2.035V-9h1.441Zm10.382,0h-1.441V-5.133Q149.216-8,147.124-8a2.269,2.269,0,0,0-1.789.813,3.013,3.013,0,0,0-.708,2.052V0h-1.441V-9h1.441v1.494h.035a3.248,3.248,0,0,1,2.953-1.705,2.753,2.753,0,0,1,2.259.954,4.248,4.248,0,0,1,.782,2.755Zm6.479.211a4.175,4.175,0,0,1-3.186-1.261,4.672,4.672,0,0,1-1.191-3.344A4.867,4.867,0,0,1,154-7.937a4.455,4.455,0,0,1,3.349-1.274,4.037,4.037,0,0,1,3.142,1.239,4.914,4.914,0,0,1,1.129,3.437,4.835,4.835,0,0,1-1.217,3.45A4.265,4.265,0,0,1,157.137.211ZM157.242-8a2.742,2.742,0,0,0-2.2.945,3.88,3.88,0,0,0-.809,2.606,3.67,3.67,0,0,0,.817,2.522A2.778,2.778,0,0,0,157.242-1a2.635,2.635,0,0,0,2.149-.905,3.928,3.928,0,0,0,.751-2.575,4,4,0,0,0-.751-2.6A2.623,2.623,0,0,0,157.242-8Zm19.3,8H175.1V-1.529h-.035a3.327,3.327,0,0,1-3.094,1.74A3.362,3.362,0,0,1,169.256-1a4.958,4.958,0,0,1-1.015-3.292,5.394,5.394,0,0,1,1.125-3.577,3.71,3.71,0,0,1,3-1.345,2.885,2.885,0,0,1,2.7,1.459h.035v-5.572h1.441ZM175.1-4.069V-5.4a2.575,2.575,0,0,0-.721-1.846A2.417,2.417,0,0,0,172.548-8a2.489,2.489,0,0,0-2.074.967,4.237,4.237,0,0,0-.756,2.672,3.81,3.81,0,0,0,.725,2.457,2.37,2.37,0,0,0,1.947.9,2.462,2.462,0,0,0,1.956-.87A3.242,3.242,0,0,0,175.1-4.069Zm11.595-.07h-6.354a3.366,3.366,0,0,0,.809,2.32A2.788,2.788,0,0,0,183.272-1a4.422,4.422,0,0,0,2.795-1V-.65a5.224,5.224,0,0,1-3.138.861,3.8,3.8,0,0,1-3-1.226,5.018,5.018,0,0,1-1.09-3.45,4.921,4.921,0,0,1,1.191-3.423,3.819,3.819,0,0,1,2.958-1.323,3.384,3.384,0,0,1,2.733,1.143,4.764,4.764,0,0,1,.967,3.173Zm-1.477-1.222a2.933,2.933,0,0,0-.6-1.942A2.051,2.051,0,0,0,182.965-8a2.328,2.328,0,0,0-1.731.729,3.311,3.311,0,0,0-.879,1.907ZM195.246,0h-1.441V-13.324h1.441Zm6.681.211a4.175,4.175,0,0,1-3.186-1.261,4.672,4.672,0,0,1-1.191-3.344,4.867,4.867,0,0,1,1.239-3.542,4.455,4.455,0,0,1,3.349-1.274,4.037,4.037,0,0,1,3.142,1.239,4.914,4.914,0,0,1,1.129,3.437,4.835,4.835,0,0,1-1.217,3.45A4.265,4.265,0,0,1,201.928.211ZM202.033-8a2.742,2.742,0,0,0-2.2.945,3.88,3.88,0,0,0-.809,2.606,3.67,3.67,0,0,0,.817,2.522A2.778,2.778,0,0,0,202.033-1a2.635,2.635,0,0,0,2.149-.905,3.928,3.928,0,0,0,.751-2.575,4,4,0,0,0-.751-2.6A2.623,2.623,0,0,0,202.033-8ZM208.17-.325V-1.872a4.266,4.266,0,0,0,2.593.87q1.9,0,1.9-1.266a1.1,1.1,0,0,0-.163-.611,1.62,1.62,0,0,0-.439-.444,3.383,3.383,0,0,0-.65-.347q-.374-.154-.8-.321a10.357,10.357,0,0,1-1.05-.479,3.173,3.173,0,0,1-.756-.545,2.028,2.028,0,0,1-.457-.69,2.441,2.441,0,0,1-.154-.905,2.15,2.15,0,0,1,.29-1.121,2.572,2.572,0,0,1,.773-.817,3.607,3.607,0,0,1,1.1-.5,4.893,4.893,0,0,1,1.279-.167,5.164,5.164,0,0,1,2.092.4v1.459A4.077,4.077,0,0,0,211.44-8a2.671,2.671,0,0,0-.729.092,1.786,1.786,0,0,0-.558.259,1.2,1.2,0,0,0-.36.4,1.053,1.053,0,0,0-.127.514,1.233,1.233,0,0,0,.127.589,1.3,1.3,0,0,0,.374.422,2.855,2.855,0,0,0,.6.334q.352.149.8.325a11.131,11.131,0,0,1,1.072.47,3.678,3.678,0,0,1,.809.545,2.129,2.129,0,0,1,.514.7,2.254,2.254,0,0,1,.18.94,2.217,2.217,0,0,1-.294,1.16,2.523,2.523,0,0,1-.787.817,3.6,3.6,0,0,1-1.134.483,5.6,5.6,0,0,1-1.345.158A5.106,5.106,0,0,1,208.17-.325ZM228.362-9l-3.586,9h-1.415l-3.41-9h1.582l2.285,6.539a5.869,5.869,0,0,1,.316,1.257h.035a5.943,5.943,0,0,1,.281-1.222L226.842-9Zm7.991,9h-1.441V-1.406h-.035A3.018,3.018,0,0,1,232.108.211,2.959,2.959,0,0,1,230-.5a2.466,2.466,0,0,1-.76-1.89q0-2.522,2.971-2.936l2.7-.378Q234.912-8,233.057-8a4.431,4.431,0,0,0-2.936,1.107V-8.367a5.577,5.577,0,0,1,3.059-.844q3.173,0,3.173,3.357Zm-1.441-4.553-2.171.3a3.525,3.525,0,0,0-1.512.5,1.432,1.432,0,0,0-.51,1.261,1.374,1.374,0,0,0,.47,1.077A1.817,1.817,0,0,0,232.442-1a2.314,2.314,0,0,0,1.771-.751,2.685,2.685,0,0,0,.7-1.9ZM240.512,0h-1.441V-13.324h1.441Zm6.681.211a4.175,4.175,0,0,1-3.186-1.261,4.672,4.672,0,0,1-1.191-3.344,4.867,4.867,0,0,1,1.239-3.542A4.455,4.455,0,0,1,247.4-9.211a4.037,4.037,0,0,1,3.142,1.239,4.914,4.914,0,0,1,1.129,3.437,4.835,4.835,0,0,1-1.217,3.45A4.265,4.265,0,0,1,247.194.211ZM247.3-8a2.742,2.742,0,0,0-2.2.945,3.88,3.88,0,0,0-.809,2.606,3.67,3.67,0,0,0,.817,2.522A2.778,2.778,0,0,0,247.3-1a2.635,2.635,0,0,0,2.149-.905,3.928,3.928,0,0,0,.751-2.575,4,4,0,0,0-.751-2.6A2.623,2.623,0,0,0,247.3-8Zm11.375.457a1.763,1.763,0,0,0-1.09-.29,1.839,1.839,0,0,0-1.542.87,4.023,4.023,0,0,0-.62,2.373V0h-1.441V-9h1.441v1.854h.035a3.143,3.143,0,0,1,.94-1.481,2.144,2.144,0,0,1,1.415-.532,2.353,2.353,0,0,1,.861.123Zm8.8,3.4h-6.354a3.366,3.366,0,0,0,.809,2.32A2.788,2.788,0,0,0,264.055-1a4.422,4.422,0,0,0,2.795-1V-.65a5.224,5.224,0,0,1-3.138.861,3.8,3.8,0,0,1-3-1.226,5.018,5.018,0,0,1-1.09-3.45,4.921,4.921,0,0,1,1.191-3.423,3.819,3.819,0,0,1,2.958-1.323,3.384,3.384,0,0,1,2.733,1.143,4.764,4.764,0,0,1,.967,3.173ZM266-5.361a2.933,2.933,0,0,0-.6-1.942A2.051,2.051,0,0,0,263.747-8a2.328,2.328,0,0,0-1.731.729,3.311,3.311,0,0,0-.879,1.907ZM269.11-.325V-1.872A4.266,4.266,0,0,0,271.7-1q1.9,0,1.9-1.266a1.1,1.1,0,0,0-.163-.611A1.62,1.62,0,0,0,273-3.322a3.383,3.383,0,0,0-.65-.347q-.374-.154-.8-.321a10.357,10.357,0,0,1-1.05-.479,3.173,3.173,0,0,1-.756-.545,2.028,2.028,0,0,1-.457-.69,2.441,2.441,0,0,1-.154-.905,2.15,2.15,0,0,1,.29-1.121,2.572,2.572,0,0,1,.773-.817,3.607,3.607,0,0,1,1.1-.5,4.893,4.893,0,0,1,1.279-.167,5.164,5.164,0,0,1,2.092.4v1.459A4.077,4.077,0,0,0,272.38-8a2.671,2.671,0,0,0-.729.092,1.786,1.786,0,0,0-.558.259,1.2,1.2,0,0,0-.36.4,1.053,1.053,0,0,0-.127.514,1.233,1.233,0,0,0,.127.589,1.3,1.3,0,0,0,.374.422,2.855,2.855,0,0,0,.6.334q.352.149.8.325a11.131,11.131,0,0,1,1.072.47,3.678,3.678,0,0,1,.809.545,2.129,2.129,0,0,1,.514.7,2.254,2.254,0,0,1,.18.94,2.217,2.217,0,0,1-.294,1.16A2.523,2.523,0,0,1,274-.431a3.6,3.6,0,0,1-1.134.483,5.6,5.6,0,0,1-1.345.158A5.106,5.106,0,0,1,269.11-.325Z" transform="translate(577 3005)" fill="#212429"/>
    <path id="Trazado_1029837" data-name="Trazado 1029837" d="M8.692-4.14H2.338a3.366,3.366,0,0,0,.809,2.32A2.788,2.788,0,0,0,5.273-1,4.422,4.422,0,0,0,8.068-2V-.65A5.224,5.224,0,0,1,4.931.211a3.8,3.8,0,0,1-3-1.226,5.018,5.018,0,0,1-1.09-3.45A4.921,4.921,0,0,1,2.035-7.888,3.819,3.819,0,0,1,4.992-9.211,3.384,3.384,0,0,1,7.726-8.068,4.764,4.764,0,0,1,8.692-4.9ZM7.216-5.361a2.933,2.933,0,0,0-.6-1.942A2.051,2.051,0,0,0,4.966-8a2.328,2.328,0,0,0-1.731.729,3.311,3.311,0,0,0-.879,1.907ZM10.329-.325V-1.872A4.266,4.266,0,0,0,12.922-1q1.9,0,1.9-1.266a1.1,1.1,0,0,0-.163-.611,1.621,1.621,0,0,0-.439-.444,3.383,3.383,0,0,0-.65-.347q-.374-.154-.8-.321a10.357,10.357,0,0,1-1.05-.479,3.173,3.173,0,0,1-.756-.545A2.028,2.028,0,0,1,10.5-5.7a2.441,2.441,0,0,1-.154-.905,2.15,2.15,0,0,1,.29-1.121,2.572,2.572,0,0,1,.773-.817,3.607,3.607,0,0,1,1.1-.5,4.893,4.893,0,0,1,1.279-.167,5.164,5.164,0,0,1,2.092.4v1.459A4.077,4.077,0,0,0,13.6-8a2.671,2.671,0,0,0-.729.092,1.786,1.786,0,0,0-.558.259,1.2,1.2,0,0,0-.36.4,1.053,1.053,0,0,0-.127.514,1.233,1.233,0,0,0,.127.589,1.3,1.3,0,0,0,.374.422,2.855,2.855,0,0,0,.6.334q.352.149.8.325a11.131,11.131,0,0,1,1.072.47,3.678,3.678,0,0,1,.809.545,2.129,2.129,0,0,1,.514.7,2.254,2.254,0,0,1,.18.94A2.217,2.217,0,0,1,16-1.248a2.523,2.523,0,0,1-.787.817,3.6,3.6,0,0,1-1.134.483,5.6,5.6,0,0,1-1.345.158A5.106,5.106,0,0,1,10.329-.325ZM30.679-4.14H24.325a3.366,3.366,0,0,0,.809,2.32A2.788,2.788,0,0,0,27.26-1a4.422,4.422,0,0,0,2.795-1V-.65a5.224,5.224,0,0,1-3.138.861,3.8,3.8,0,0,1-3-1.226,5.018,5.018,0,0,1-1.09-3.45,4.921,4.921,0,0,1,1.191-3.423,3.819,3.819,0,0,1,2.958-1.323,3.384,3.384,0,0,1,2.733,1.143A4.764,4.764,0,0,1,30.679-4.9ZM29.2-5.361A2.933,2.933,0,0,0,28.6-7.3,2.051,2.051,0,0,0,26.953-8a2.328,2.328,0,0,0-1.731.729,3.311,3.311,0,0,0-.879,1.907ZM34.3,0H32.861V-13.324H34.3ZM49.625,0H48.184V-5.133Q48.184-8,46.092-8a2.269,2.269,0,0,0-1.789.813A3.013,3.013,0,0,0,43.6-5.133V0H42.154V-9H43.6v1.494h.035a3.248,3.248,0,0,1,2.953-1.705,2.753,2.753,0,0,1,2.259.954A4.248,4.248,0,0,1,49.625-5.5ZM59.62,0H58.179V-1.424h-.035A2.96,2.96,0,0,1,55.366.211q-3.217,0-3.217-3.832V-9h1.433v5.15Q53.582-1,55.762-1A2.205,2.205,0,0,0,57.5-1.78a2.976,2.976,0,0,0,.681-2.035V-9H59.62ZM58.267-13.588l-2.3,2.883H54.848l1.96-2.883ZM75.31,0H73.869V-5.168a3.9,3.9,0,0,0-.461-2.162A1.75,1.75,0,0,0,71.856-8a1.921,1.921,0,0,0-1.569.844,3.228,3.228,0,0,0-.646,2.021V0H68.2V-5.344Q68.2-8,66.152-8a1.9,1.9,0,0,0-1.564.8,3.288,3.288,0,0,0-.615,2.07V0H62.531V-9h1.441v1.424h.035A3.058,3.058,0,0,1,66.8-9.211a2.606,2.606,0,0,1,1.608.514,2.586,2.586,0,0,1,.94,1.349A3.212,3.212,0,0,1,72.34-9.211q2.971,0,2.971,3.665Zm9.96-4.14H78.916a3.366,3.366,0,0,0,.809,2.32A2.788,2.788,0,0,0,81.851-1a4.422,4.422,0,0,0,2.795-1V-.65a5.224,5.224,0,0,1-3.138.861,3.8,3.8,0,0,1-3-1.226,5.018,5.018,0,0,1-1.09-3.45,4.921,4.921,0,0,1,1.191-3.423A3.819,3.819,0,0,1,81.57-9.211,3.384,3.384,0,0,1,84.3-8.068,4.764,4.764,0,0,1,85.27-4.9ZM83.794-5.361a2.933,2.933,0,0,0-.6-1.942A2.051,2.051,0,0,0,81.544-8a2.328,2.328,0,0,0-1.731.729,3.311,3.311,0,0,0-.879,1.907Zm8.351-2.18a1.763,1.763,0,0,0-1.09-.29,1.839,1.839,0,0,0-1.542.87,4.023,4.023,0,0,0-.62,2.373V0H87.452V-9h1.441v1.854h.035a3.143,3.143,0,0,1,.94-1.481,2.144,2.144,0,0,1,1.415-.532,2.353,2.353,0,0,1,.861.123ZM97.473.211A4.175,4.175,0,0,1,94.287-1.05,4.672,4.672,0,0,1,93.1-4.395a4.867,4.867,0,0,1,1.239-3.542,4.455,4.455,0,0,1,3.349-1.274,4.037,4.037,0,0,1,3.142,1.239,4.914,4.914,0,0,1,1.129,3.437,4.835,4.835,0,0,1-1.217,3.45A4.265,4.265,0,0,1,97.473.211ZM97.578-8a2.742,2.742,0,0,0-2.2.945,3.88,3.88,0,0,0-.809,2.606,3.67,3.67,0,0,0,.817,2.522A2.778,2.778,0,0,0,97.578-1a2.635,2.635,0,0,0,2.149-.905,3.928,3.928,0,0,0,.751-2.575,4,4,0,0,0-.751-2.6A2.623,2.623,0,0,0,97.578-8Zm15.789,7.91a2.779,2.779,0,0,1-1.345.281q-2.364,0-2.364-2.637V-7.77h-1.547V-9h1.547v-2.2l1.441-.466V-9h2.268v1.23H111.1V-2.7a2.1,2.1,0,0,0,.308,1.292,1.228,1.228,0,0,0,1.02.387,1.515,1.515,0,0,0,.94-.3Zm5.688.3a4.175,4.175,0,0,1-3.186-1.261,4.672,4.672,0,0,1-1.191-3.344,4.867,4.867,0,0,1,1.239-3.542,4.455,4.455,0,0,1,3.349-1.274,4.037,4.037,0,0,1,3.142,1.239,4.914,4.914,0,0,1,1.129,3.437,4.835,4.835,0,0,1-1.217,3.45A4.265,4.265,0,0,1,119.055.211ZM119.161-8a2.742,2.742,0,0,0-2.2.945,3.88,3.88,0,0,0-.809,2.606,3.67,3.67,0,0,0,.817,2.522A2.778,2.778,0,0,0,119.161-1a2.635,2.635,0,0,0,2.149-.905,3.928,3.928,0,0,0,.751-2.575,4,4,0,0,0-.751-2.6A2.623,2.623,0,0,0,119.161-8Zm10.856,7.91a2.779,2.779,0,0,1-1.345.281q-2.364,0-2.364-2.637V-7.77h-1.547V-9h1.547v-2.2l1.441-.466V-9h2.268v1.23H127.75V-2.7a2.1,2.1,0,0,0,.308,1.292,1.227,1.227,0,0,0,1.02.387,1.515,1.515,0,0,0,.94-.3ZM138.386,0h-1.441V-1.406h-.035A3.018,3.018,0,0,1,134.141.211a2.959,2.959,0,0,1-2.1-.712,2.466,2.466,0,0,1-.76-1.89q0-2.522,2.971-2.936l2.7-.378Q136.945-8,135.09-8a4.431,4.431,0,0,0-2.936,1.107V-8.367a5.577,5.577,0,0,1,3.059-.844q3.173,0,3.173,3.357Zm-1.441-4.553-2.171.3a3.525,3.525,0,0,0-1.512.5,1.432,1.432,0,0,0-.51,1.261,1.374,1.374,0,0,0,.47,1.077A1.817,1.817,0,0,0,134.475-1a2.314,2.314,0,0,0,1.771-.751,2.685,2.685,0,0,0,.7-1.9ZM142.545,0H141.1V-13.324h1.441Zm15.534,0h-1.441V-1.529H156.6a3.327,3.327,0,0,1-3.094,1.74A3.362,3.362,0,0,1,150.8-1a4.958,4.958,0,0,1-1.015-3.292,5.394,5.394,0,0,1,1.125-3.577,3.71,3.71,0,0,1,3-1.345,2.885,2.885,0,0,1,2.7,1.459h.035v-5.572h1.441Zm-1.441-4.069V-5.4a2.575,2.575,0,0,0-.721-1.846A2.417,2.417,0,0,0,154.089-8a2.489,2.489,0,0,0-2.074.967,4.237,4.237,0,0,0-.756,2.672,3.81,3.81,0,0,0,.725,2.457,2.37,2.37,0,0,0,1.947.9,2.462,2.462,0,0,0,1.956-.87A3.242,3.242,0,0,0,156.638-4.069Zm11.595-.07h-6.354a3.366,3.366,0,0,0,.809,2.32A2.788,2.788,0,0,0,164.813-1a4.422,4.422,0,0,0,2.795-1V-.65a5.224,5.224,0,0,1-3.138.861,3.8,3.8,0,0,1-3-1.226,5.018,5.018,0,0,1-1.09-3.45,4.921,4.921,0,0,1,1.191-3.423,3.819,3.819,0,0,1,2.958-1.323,3.384,3.384,0,0,1,2.733,1.143,4.764,4.764,0,0,1,.967,3.173Zm-1.477-1.222a2.933,2.933,0,0,0-.6-1.942A2.051,2.051,0,0,0,164.506-8a2.328,2.328,0,0,0-1.731.729,3.311,3.311,0,0,0-.879,1.907ZM179.108.211a4.175,4.175,0,0,1-3.186-1.261,4.672,4.672,0,0,1-1.191-3.344,4.867,4.867,0,0,1,1.239-3.542,4.455,4.455,0,0,1,3.349-1.274,4.037,4.037,0,0,1,3.142,1.239,4.914,4.914,0,0,1,1.129,3.437,4.835,4.835,0,0,1-1.217,3.45A4.265,4.265,0,0,1,179.108.211ZM179.213-8a2.742,2.742,0,0,0-2.2.945,3.88,3.88,0,0,0-.809,2.606,3.67,3.67,0,0,0,.817,2.522A2.778,2.778,0,0,0,179.213-1a2.635,2.635,0,0,0,2.149-.905,3.928,3.928,0,0,0,.751-2.575,4,4,0,0,0-.751-2.6A2.623,2.623,0,0,0,179.213-8Zm8.158,6.7h-.035V0h-1.441V-13.324h1.441v5.906h.035a3.408,3.408,0,0,1,3.111-1.793A3.3,3.3,0,0,1,193.194-8a4.99,4.99,0,0,1,.98,3.239,5.578,5.578,0,0,1-1.1,3.617A3.658,3.658,0,0,1,190.07.211,2.96,2.96,0,0,1,187.371-1.3Zm-.035-3.63v1.257a2.676,2.676,0,0,0,.725,1.894A2.408,2.408,0,0,0,189.9-1a2.413,2.413,0,0,0,2.052-1A4.6,4.6,0,0,0,192.7-4.79,3.629,3.629,0,0,0,192-7.146,2.3,2.3,0,0,0,190.122-8a2.554,2.554,0,0,0-2.021.875A3.211,3.211,0,0,0,187.336-4.931Zm8.6,4.605V-1.872a4.266,4.266,0,0,0,2.593.87q1.9,0,1.9-1.266a1.1,1.1,0,0,0-.163-.611,1.62,1.62,0,0,0-.439-.444,3.383,3.383,0,0,0-.65-.347q-.374-.154-.8-.321a10.357,10.357,0,0,1-1.05-.479,3.173,3.173,0,0,1-.756-.545,2.028,2.028,0,0,1-.457-.69,2.441,2.441,0,0,1-.154-.905,2.15,2.15,0,0,1,.29-1.121,2.572,2.572,0,0,1,.773-.817,3.607,3.607,0,0,1,1.1-.5,4.893,4.893,0,0,1,1.279-.167,5.164,5.164,0,0,1,2.092.4v1.459A4.077,4.077,0,0,0,199.2-8a2.671,2.671,0,0,0-.729.092,1.786,1.786,0,0,0-.558.259,1.2,1.2,0,0,0-.36.4,1.053,1.053,0,0,0-.127.514,1.233,1.233,0,0,0,.127.589,1.3,1.3,0,0,0,.374.422,2.855,2.855,0,0,0,.6.334q.352.149.8.325a11.131,11.131,0,0,1,1.072.47,3.678,3.678,0,0,1,.809.545,2.129,2.129,0,0,1,.514.7,2.254,2.254,0,0,1,.18.94,2.217,2.217,0,0,1-.294,1.16,2.523,2.523,0,0,1-.787.817,3.6,3.6,0,0,1-1.134.483,5.6,5.6,0,0,1-1.345.158A5.106,5.106,0,0,1,195.934-.325ZM211.352-4.14H205a3.366,3.366,0,0,0,.809,2.32A2.788,2.788,0,0,0,207.933-1a4.422,4.422,0,0,0,2.795-1V-.65a5.224,5.224,0,0,1-3.138.861,3.8,3.8,0,0,1-3-1.226,5.018,5.018,0,0,1-1.09-3.45,4.921,4.921,0,0,1,1.191-3.423,3.819,3.819,0,0,1,2.958-1.323,3.384,3.384,0,0,1,2.733,1.143,4.764,4.764,0,0,1,.967,3.173Zm-1.477-1.222a2.933,2.933,0,0,0-.6-1.942A2.051,2.051,0,0,0,207.625-8a2.328,2.328,0,0,0-1.731.729,3.311,3.311,0,0,0-.879,1.907Zm8.351-2.18a1.763,1.763,0,0,0-1.09-.29,1.839,1.839,0,0,0-1.542.87,4.023,4.023,0,0,0-.62,2.373V0h-1.441V-9h1.441v1.854h.035a3.143,3.143,0,0,1,.94-1.481,2.144,2.144,0,0,1,1.415-.532,2.353,2.353,0,0,1,.861.123ZM226.868-9l-3.586,9h-1.415l-3.41-9h1.582l2.285,6.539A5.869,5.869,0,0,1,222.64-1.2h.035a5.943,5.943,0,0,1,.281-1.222L225.347-9Zm7.991,9h-1.441V-1.406h-.035A3.018,3.018,0,0,1,230.614.211a2.959,2.959,0,0,1-2.1-.712,2.466,2.466,0,0,1-.76-1.89q0-2.522,2.971-2.936l2.7-.378Q233.418-8,231.563-8a4.431,4.431,0,0,0-2.936,1.107V-8.367a5.577,5.577,0,0,1,3.059-.844q3.173,0,3.173,3.357Zm-1.441-4.553-2.171.3a3.525,3.525,0,0,0-1.512.5,1.432,1.432,0,0,0-.51,1.261,1.374,1.374,0,0,0,.47,1.077A1.817,1.817,0,0,0,230.948-1a2.314,2.314,0,0,0,1.771-.751,2.685,2.685,0,0,0,.7-1.9Zm10.294,4.14a4.684,4.684,0,0,1-2.461.624,4.074,4.074,0,0,1-3.107-1.252,4.539,4.539,0,0,1-1.182-3.248,4.99,4.99,0,0,1,1.274-3.573,4.458,4.458,0,0,1,3.4-1.349,4.735,4.735,0,0,1,2.092.439v1.477a3.665,3.665,0,0,0-2.145-.7,2.9,2.9,0,0,0-2.263.989,3.752,3.752,0,0,0-.883,2.6,3.573,3.573,0,0,0,.831,2.5A2.863,2.863,0,0,0,241.5-1a3.613,3.613,0,0,0,2.215-.782Zm2.92-10.872a.913.913,0,0,1-.659-.264.89.89,0,0,1-.272-.668.9.9,0,0,1,.272-.672.905.905,0,0,1,.659-.268.931.931,0,0,1,.672.268.9.9,0,0,1,.277.672.891.891,0,0,1-.277.659A.923.923,0,0,1,246.631-11.285ZM247.334,0h-1.441V-9h1.441Zm6.681.211A4.175,4.175,0,0,1,250.83-1.05a4.672,4.672,0,0,1-1.191-3.344,4.867,4.867,0,0,1,1.239-3.542,4.455,4.455,0,0,1,3.349-1.274,4.037,4.037,0,0,1,3.142,1.239A4.914,4.914,0,0,1,258.5-4.535a4.835,4.835,0,0,1-1.217,3.45A4.265,4.265,0,0,1,254.016.211ZM254.121-8a2.742,2.742,0,0,0-2.2.945,3.88,3.88,0,0,0-.809,2.606,3.67,3.67,0,0,0,.817,2.522A2.778,2.778,0,0,0,254.121-1a2.635,2.635,0,0,0,2.149-.905,3.928,3.928,0,0,0,.751-2.575,4,4,0,0,0-.751-2.6A2.623,2.623,0,0,0,254.121-8Zm14.152,8h-1.441V-5.133Q266.832-8,264.74-8a2.269,2.269,0,0,0-1.789.813,3.013,3.013,0,0,0-.708,2.052V0H260.8V-9h1.441v1.494h.035a3.248,3.248,0,0,1,2.953-1.705,2.753,2.753,0,0,1,2.259.954,4.248,4.248,0,0,1,.782,2.755Zm9.951-4.14H271.87a3.366,3.366,0,0,0,.809,2.32A2.788,2.788,0,0,0,274.805-1,4.422,4.422,0,0,0,277.6-2V-.65a5.224,5.224,0,0,1-3.138.861,3.8,3.8,0,0,1-3-1.226,5.018,5.018,0,0,1-1.09-3.45,4.921,4.921,0,0,1,1.191-3.423,3.819,3.819,0,0,1,2.958-1.323,3.384,3.384,0,0,1,2.733,1.143,4.764,4.764,0,0,1,.967,3.173Zm-1.477-1.222a2.933,2.933,0,0,0-.6-1.942A2.051,2.051,0,0,0,274.5-8a2.328,2.328,0,0,0-1.731.729,3.311,3.311,0,0,0-.879,1.907Zm3.113,5.036V-1.872a4.266,4.266,0,0,0,2.593.87q1.9,0,1.9-1.266a1.1,1.1,0,0,0-.163-.611,1.62,1.62,0,0,0-.439-.444,3.383,3.383,0,0,0-.65-.347q-.374-.154-.8-.321a10.357,10.357,0,0,1-1.05-.479,3.173,3.173,0,0,1-.756-.545,2.028,2.028,0,0,1-.457-.69,2.441,2.441,0,0,1-.154-.905,2.15,2.15,0,0,1,.29-1.121,2.572,2.572,0,0,1,.773-.817,3.607,3.607,0,0,1,1.1-.5,4.893,4.893,0,0,1,1.279-.167,5.164,5.164,0,0,1,2.092.4v1.459A4.077,4.077,0,0,0,283.131-8a2.671,2.671,0,0,0-.729.092,1.786,1.786,0,0,0-.558.259,1.2,1.2,0,0,0-.36.4,1.053,1.053,0,0,0-.127.514,1.233,1.233,0,0,0,.127.589,1.3,1.3,0,0,0,.374.422,2.855,2.855,0,0,0,.6.334q.352.149.8.325a11.131,11.131,0,0,1,1.072.47,3.678,3.678,0,0,1,.809.545,2.129,2.129,0,0,1,.514.7,2.254,2.254,0,0,1,.18.94,2.217,2.217,0,0,1-.294,1.16,2.523,2.523,0,0,1-.787.817,3.6,3.6,0,0,1-1.134.483,5.6,5.6,0,0,1-1.345.158A5.106,5.106,0,0,1,279.861-.325Z" transform="translate(577 3037)" fill="#212429"/>
    <path id="Trazado_1029835" data-name="Trazado 1029835" d="M8.692-4.14H2.338a3.366,3.366,0,0,0,.809,2.32A2.788,2.788,0,0,0,5.273-1,4.422,4.422,0,0,0,8.068-2V-.65A5.224,5.224,0,0,1,4.931.211a3.8,3.8,0,0,1-3-1.226,5.018,5.018,0,0,1-1.09-3.45A4.921,4.921,0,0,1,2.035-7.888,3.819,3.819,0,0,1,4.992-9.211,3.384,3.384,0,0,1,7.726-8.068,4.764,4.764,0,0,1,8.692-4.9ZM7.216-5.361a2.933,2.933,0,0,0-.6-1.942A2.051,2.051,0,0,0,4.966-8a2.328,2.328,0,0,0-1.731.729,3.311,3.311,0,0,0-.879,1.907ZM10.329-.325V-1.872A4.266,4.266,0,0,0,12.922-1q1.9,0,1.9-1.266a1.1,1.1,0,0,0-.163-.611,1.621,1.621,0,0,0-.439-.444,3.383,3.383,0,0,0-.65-.347q-.374-.154-.8-.321a10.357,10.357,0,0,1-1.05-.479,3.173,3.173,0,0,1-.756-.545A2.028,2.028,0,0,1,10.5-5.7a2.441,2.441,0,0,1-.154-.905,2.15,2.15,0,0,1,.29-1.121,2.572,2.572,0,0,1,.773-.817,3.607,3.607,0,0,1,1.1-.5,4.893,4.893,0,0,1,1.279-.167,5.164,5.164,0,0,1,2.092.4v1.459A4.077,4.077,0,0,0,13.6-8a2.671,2.671,0,0,0-.729.092,1.786,1.786,0,0,0-.558.259,1.2,1.2,0,0,0-.36.4,1.053,1.053,0,0,0-.127.514,1.233,1.233,0,0,0,.127.589,1.3,1.3,0,0,0,.374.422,2.855,2.855,0,0,0,.6.334q.352.149.8.325a11.131,11.131,0,0,1,1.072.47,3.678,3.678,0,0,1,.809.545,2.129,2.129,0,0,1,.514.7,2.254,2.254,0,0,1,.18.94A2.217,2.217,0,0,1,16-1.248a2.523,2.523,0,0,1-.787.817,3.6,3.6,0,0,1-1.134.483,5.6,5.6,0,0,1-1.345.158A5.106,5.106,0,0,1,10.329-.325ZM24.887,0H23.446V-13.324h1.441Zm9.362,0H32.808V-1.406h-.035A3.018,3.018,0,0,1,30,.211,2.959,2.959,0,0,1,27.9-.5a2.466,2.466,0,0,1-.76-1.89q0-2.522,2.971-2.936l2.7-.378Q32.808-8,30.953-8a4.431,4.431,0,0,0-2.936,1.107V-8.367a5.577,5.577,0,0,1,3.059-.844q3.173,0,3.173,3.357ZM32.808-4.553l-2.171.3a3.525,3.525,0,0,0-1.512.5,1.432,1.432,0,0,0-.51,1.261,1.374,1.374,0,0,0,.47,1.077A1.817,1.817,0,0,0,30.338-1a2.314,2.314,0,0,0,1.771-.751,2.685,2.685,0,0,0,.7-1.9ZM54.679,0H53.237V-5.168a3.9,3.9,0,0,0-.461-2.162A1.75,1.75,0,0,0,51.225-8a1.921,1.921,0,0,0-1.569.844,3.228,3.228,0,0,0-.646,2.021V0H47.568V-5.344Q47.568-8,45.521-8a1.9,1.9,0,0,0-1.564.8,3.288,3.288,0,0,0-.615,2.07V0H41.9V-9h1.441v1.424h.035a3.058,3.058,0,0,1,2.795-1.635,2.606,2.606,0,0,1,1.608.514,2.586,2.586,0,0,1,.94,1.349,3.212,3.212,0,0,1,2.988-1.863q2.971,0,2.971,3.665Zm9.96-4.14H58.284a3.366,3.366,0,0,0,.809,2.32A2.788,2.788,0,0,0,61.22-1a4.422,4.422,0,0,0,2.795-1V-.65a5.224,5.224,0,0,1-3.138.861,3.8,3.8,0,0,1-3-1.226,5.018,5.018,0,0,1-1.09-3.45,4.921,4.921,0,0,1,1.191-3.423,3.819,3.819,0,0,1,2.958-1.323,3.384,3.384,0,0,1,2.733,1.143A4.764,4.764,0,0,1,64.639-4.9ZM63.162-5.361a2.933,2.933,0,0,0-.6-1.942A2.051,2.051,0,0,0,60.912-8a2.328,2.328,0,0,0-1.731.729A3.311,3.311,0,0,0,58.3-5.361ZM74.5,0H73.06V-1.529h-.035A3.327,3.327,0,0,1,69.931.211,3.362,3.362,0,0,1,67.22-1,4.958,4.958,0,0,1,66.2-4.289,5.394,5.394,0,0,1,67.33-7.866a3.71,3.71,0,0,1,3-1.345,2.885,2.885,0,0,1,2.7,1.459h.035v-5.572H74.5ZM73.06-4.069V-5.4a2.575,2.575,0,0,0-.721-1.846A2.417,2.417,0,0,0,70.511-8a2.489,2.489,0,0,0-2.074.967,4.237,4.237,0,0,0-.756,2.672A3.81,3.81,0,0,0,68.406-1.9a2.37,2.37,0,0,0,1.947.9,2.462,2.462,0,0,0,1.956-.87A3.242,3.242,0,0,0,73.06-4.069Zm5.1-7.216a.913.913,0,0,1-.659-.264.89.89,0,0,1-.272-.668.9.9,0,0,1,.272-.672.905.905,0,0,1,.659-.268.931.931,0,0,1,.672.268.9.9,0,0,1,.277.672.891.891,0,0,1-.277.659A.923.923,0,0,1,78.16-11.285ZM78.863,0H77.421V-9h1.441Zm9.362,0H86.784V-1.406h-.035A3.018,3.018,0,0,1,83.98.211a2.959,2.959,0,0,1-2.1-.712,2.466,2.466,0,0,1-.76-1.89q0-2.522,2.971-2.936l2.7-.378Q86.784-8,84.929-8a4.431,4.431,0,0,0-2.936,1.107V-8.367a5.577,5.577,0,0,1,3.059-.844q3.173,0,3.173,3.357ZM86.784-4.553l-2.171.3a3.525,3.525,0,0,0-1.512.5,1.432,1.432,0,0,0-.51,1.261,1.374,1.374,0,0,0,.47,1.077A1.817,1.817,0,0,0,84.314-1a2.314,2.314,0,0,0,1.771-.751,2.685,2.685,0,0,0,.7-1.9Z" transform="translate(577 2943)" fill="#212429"/>
    <path id="Trazado_1029830" data-name="Trazado 1029830" d="M1.652,0V-12.6h3.48q6.662,0,6.662,6.144a6.191,6.191,0,0,1-1.85,4.689A6.863,6.863,0,0,1,4.992,0ZM3.129-11.268v9.932H5.01A5.338,5.338,0,0,0,8.868-2.663a4.975,4.975,0,0,0,1.38-3.762q0-4.843-5.15-4.843ZM17.844.211A4.175,4.175,0,0,1,14.658-1.05a4.672,4.672,0,0,1-1.191-3.344,4.867,4.867,0,0,1,1.239-3.542,4.455,4.455,0,0,1,3.349-1.274A4.037,4.037,0,0,1,21.2-7.972a4.914,4.914,0,0,1,1.129,3.437,4.835,4.835,0,0,1-1.217,3.45A4.265,4.265,0,0,1,17.844.211ZM17.949-8a2.742,2.742,0,0,0-2.2.945,3.88,3.88,0,0,0-.809,2.606,3.67,3.67,0,0,0,.817,2.522A2.778,2.778,0,0,0,17.949-1,2.635,2.635,0,0,0,20.1-1.907a3.928,3.928,0,0,0,.751-2.575,4,4,0,0,0-.751-2.6A2.623,2.623,0,0,0,17.949-8ZM32.1,0H30.66V-5.133Q30.66-8,28.568-8a2.269,2.269,0,0,0-1.789.813,3.013,3.013,0,0,0-.708,2.052V0H24.631V-9h1.441v1.494h.035A3.248,3.248,0,0,1,29.06-9.211a2.753,2.753,0,0,1,2.259.954A4.248,4.248,0,0,1,32.1-5.5ZM42.5,0H41.059V-1.529h-.035A3.327,3.327,0,0,1,37.93.211,3.362,3.362,0,0,1,35.219-1,4.958,4.958,0,0,1,34.2-4.289a5.394,5.394,0,0,1,1.125-3.577,3.71,3.71,0,0,1,3-1.345,2.885,2.885,0,0,1,2.7,1.459h.035v-5.572H42.5ZM41.059-4.069V-5.4a2.575,2.575,0,0,0-.721-1.846A2.417,2.417,0,0,0,38.51-8a2.489,2.489,0,0,0-2.074.967,4.237,4.237,0,0,0-.756,2.672A3.81,3.81,0,0,0,36.405-1.9a2.37,2.37,0,0,0,1.947.9,2.462,2.462,0,0,0,1.956-.87A3.242,3.242,0,0,0,41.059-4.069Zm11.595-.07H46.3a3.366,3.366,0,0,0,.809,2.32A2.788,2.788,0,0,0,49.235-1,4.422,4.422,0,0,0,52.03-2V-.65a5.224,5.224,0,0,1-3.138.861,3.8,3.8,0,0,1-3-1.226,5.018,5.018,0,0,1-1.09-3.45A4.921,4.921,0,0,1,46-7.888a3.819,3.819,0,0,1,2.958-1.323,3.384,3.384,0,0,1,2.733,1.143A4.764,4.764,0,0,1,52.654-4.9ZM51.177-5.361a2.933,2.933,0,0,0-.6-1.942A2.051,2.051,0,0,0,48.927-8a2.328,2.328,0,0,0-1.731.729,3.311,3.311,0,0,0-.879,1.907Z" transform="translate(527 2900)" fill="#212429"/>
    <path id="Trazado_1029831" data-name="Trazado 1029831" d="M8.033-9,5.01-4.447,7.98,0H6.3L4.535-2.918q-.167-.272-.4-.686H4.1q-.044.079-.413.686L1.89,0H.229L3.3-4.412.36-9H2.039l1.74,3.076q.193.343.378.7h.035L6.442-9ZM0,2H8.262V3H0Z" transform="translate(527 2943)" fill="#212429"/>
    <g id="Grupo_1173558" data-name="Grupo 1173558" transform="translate(47 -5)">
      <text id="x" transform="translate(240 2959)" fill="#212429" font-size="18" font-family="SegoeUI, Segoe UI" letter-spacing="0em" text-decoration="underline"><tspan x="0" y="0">x</tspan></text>
      <text id="_" data-name="=" transform="translate(258 2959)" fill="#212429" font-size="18" font-family="SegoeUI, Segoe UI" letter-spacing="0em"><tspan x="0" y="0">=</tspan></text>
      <text id="_ni_1_xi_" data-name="  (∑ni=1)xi)" transform="translate(267 2959)" fill="#212429" font-size="18" font-family="SegoeUI, Segoe UI" letter-spacing="0em"><tspan x="0" y="0" xml:space="preserve">  (∑</tspan><tspan y="0" font-size="10.499" baseline-shift="5.999400079342301">n</tspan><tspan y="0" font-size="10.499" baseline-shift="-5.999400079342301">i</tspan><tspan y="0">=</tspan><tspan y="0" font-size="10.499" baseline-shift="-5.999400079342301">1</tspan><tspan y="0">)x</tspan><tspan y="0" font-size="10.499" baseline-shift="-5.999400079342301">i</tspan><tspan y="0">)</tspan></text>
      <text id="n" transform="translate(297 2991)" fill="#212429" font-size="18" font-family="SegoeUI, Segoe UI" letter-spacing="0em"><tspan x="0" y="0">n</tspan></text>
      <path id="Trazado_1029423" data-name="Trazado 1029423" d="M6785,2972.5h102" transform="translate(-6545 -2)" fill="none" stroke="#212429" stroke-width="1"/>
    </g>
  </g>
</svg>
