<svg xmlns="http://www.w3.org/2000/svg" width="201.348" height="44.885" viewBox="0 0 201.348 44.885">
  <g id="Grupo_1173687" data-name="Grupo 1173687" transform="translate(-490.652 -4252.115)">
    <path id="Trazado_1029838" data-name="Trazado 1029838" d="M14.5,0H13.034V-8.455q0-1,.123-2.452h-.035a7.84,7.84,0,0,1-.378,1.222L8.438,0H7.717l-4.3-9.615a7.533,7.533,0,0,1-.378-1.292H3.006q.07.756.07,2.47V0H1.652V-12.6H3.6L7.471-3.814A11.254,11.254,0,0,1,8.051-2.3H8.1Q8.481-3.34,8.71-3.85L12.656-12.6H14.5ZM24.857-4.14H18.5a3.366,3.366,0,0,0,.809,2.32A2.788,2.788,0,0,0,21.438-1a4.422,4.422,0,0,0,2.795-1V-.65A5.224,5.224,0,0,1,21.1.211a3.8,3.8,0,0,1-3-1.226,5.018,5.018,0,0,1-1.09-3.45A4.921,4.921,0,0,1,18.2-7.888a3.819,3.819,0,0,1,2.958-1.323A3.384,3.384,0,0,1,23.89-8.068,4.764,4.764,0,0,1,24.857-4.9ZM23.381-5.361a2.933,2.933,0,0,0-.6-1.942A2.051,2.051,0,0,0,21.131-8a2.328,2.328,0,0,0-1.731.729,3.311,3.311,0,0,0-.879,1.907ZM34.72,0H33.279V-1.529h-.035A3.327,3.327,0,0,1,30.15.211,3.362,3.362,0,0,1,27.439-1a4.958,4.958,0,0,1-1.015-3.292,5.394,5.394,0,0,1,1.125-3.577,3.71,3.71,0,0,1,3-1.345,2.885,2.885,0,0,1,2.7,1.459h.035v-5.572H34.72ZM33.279-4.069V-5.4a2.575,2.575,0,0,0-.721-1.846A2.417,2.417,0,0,0,30.73-8a2.489,2.489,0,0,0-2.074.967A4.237,4.237,0,0,0,27.9-4.359,3.81,3.81,0,0,0,28.625-1.9a2.37,2.37,0,0,0,1.947.9,2.462,2.462,0,0,0,1.956-.87A3.242,3.242,0,0,0,33.279-4.069Zm5.1-7.216a.913.913,0,0,1-.659-.264.89.89,0,0,1-.272-.668.9.9,0,0,1,.272-.672.905.905,0,0,1,.659-.268.931.931,0,0,1,.672.268.9.9,0,0,1,.277.672.891.891,0,0,1-.277.659A.923.923,0,0,1,38.378-11.285ZM39.082,0H37.64V-9h1.441Zm9.362,0H47V-1.406h-.035A3.018,3.018,0,0,1,44.2.211a2.959,2.959,0,0,1-2.1-.712,2.466,2.466,0,0,1-.76-1.89q0-2.522,2.971-2.936L47-5.7Q47-8,45.148-8a4.431,4.431,0,0,0-2.936,1.107V-8.367a5.577,5.577,0,0,1,3.059-.844q3.173,0,3.173,3.357ZM47-4.553l-2.171.3a3.525,3.525,0,0,0-1.512.5A1.432,1.432,0,0,0,42.81-2.5a1.374,1.374,0,0,0,.47,1.077A1.817,1.817,0,0,0,44.533-1,2.314,2.314,0,0,0,46.3-1.753a2.685,2.685,0,0,0,.7-1.9ZM58.632,0H57.191V-5.133Q57.191-8,55.1-8a2.269,2.269,0,0,0-1.789.813A3.013,3.013,0,0,0,52.6-5.133V0H51.161V-9H52.6v1.494h.035a3.248,3.248,0,0,1,2.953-1.705,2.753,2.753,0,0,1,2.259.954A4.248,4.248,0,0,1,58.632-5.5Zm9.16,0H66.351V-1.406h-.035A3.018,3.018,0,0,1,63.547.211a2.959,2.959,0,0,1-2.1-.712,2.466,2.466,0,0,1-.76-1.89q0-2.522,2.971-2.936l2.7-.378Q66.351-8,64.5-8a4.431,4.431,0,0,0-2.936,1.107V-8.367a5.577,5.577,0,0,1,3.059-.844q3.173,0,3.173,3.357ZM66.351-4.553l-2.171.3a3.525,3.525,0,0,0-1.512.5,1.432,1.432,0,0,0-.51,1.261,1.374,1.374,0,0,0,.47,1.077A1.817,1.817,0,0,0,63.881-1a2.314,2.314,0,0,0,1.771-.751,2.685,2.685,0,0,0,.7-1.9Z" transform="translate(489 4281)" fill="#212429"/>
    <path id="Trazado_1029839" data-name="Trazado 1029839" d="M8.033-9,5.01-4.447,7.98,0H6.3L4.535-2.918q-.167-.272-.4-.686H4.1q-.044.079-.413.686L1.89,0H.229L3.3-4.412.36-9H2.039l1.74,3.076q.193.343.378.7h.035L6.442-9ZM23.5-6.539H15.235V-7.7H23.5Zm0,3.744H15.235v-1.16H23.5Zm11.86-1.6L37.431,0,35.84.018,34.706-2.8q-.053-.141-.145-.378l-.171-.439h-.044q-.062.088-.145.2l-.163.215q-.079.105-.154.2t-.127.163L31.4,0H29.688L33.74-4.482,31.718-9h1.591L34.39-6.135q.079.211.158.457t.123.387h.035q.053-.062.123-.154l.149-.2q.079-.105.163-.211t.163-.193L37.747-9h1.644Z" transform="translate(590 4265)" fill="#212429"/>
    <path id="Trazado_1029840" data-name="Trazado 1029840" d="M5.238,2.865H3.955A11.232,11.232,0,0,1,1.23-4.808a11.658,11.658,0,0,1,2.725-7.8h1.3A11.845,11.845,0,0,0,2.5-4.825,11.638,11.638,0,0,0,5.238,2.865ZM14.363,0H12.922V-5.133Q12.922-8,10.83-8a2.269,2.269,0,0,0-1.789.813,3.013,3.013,0,0,0-.708,2.052V0H6.892V-9H8.334v1.494h.035a3.248,3.248,0,0,1,2.953-1.705,2.753,2.753,0,0,1,2.259.954A4.248,4.248,0,0,1,14.363-5.5ZM25.923-4.658H22.372v3.542H21.2V-4.658H17.661V-5.836H21.2V-9.378h1.169v3.542h3.551ZM34.3,0H32.859V-10.89a3.336,3.336,0,0,1-.488.382,7.951,7.951,0,0,1-.721.426q-.4.211-.844.4a6.132,6.132,0,0,1-.866.29v-1.459a8.379,8.379,0,0,0,1.006-.356q.532-.224,1.046-.5t.971-.58a7.71,7.71,0,0,0,.791-.593H34.3Zm4.836,2.865H37.853A11.638,11.638,0,0,0,40.6-4.825a11.845,11.845,0,0,0-2.76-7.778h1.3a11.611,11.611,0,0,1,2.742,7.8A11.188,11.188,0,0,1,39.136,2.865Z" transform="translate(635 4265)" fill="#212429"/>
    <path id="Trazado_1029841" data-name="Trazado 1029841" d="M6.785-9.3A2.606,2.606,0,0,0,6.6-10.31a2,2,0,0,0-.492-.716,2.017,2.017,0,0,0-.734-.426,2.874,2.874,0,0,0-.914-.141,3.023,3.023,0,0,0-.826.114,4.016,4.016,0,0,0-.787.316,4.839,4.839,0,0,0-.738.483,5.333,5.333,0,0,0-.664.624V-11.6a4.309,4.309,0,0,1,1.358-.9,4.781,4.781,0,0,1,1.833-.312,4.424,4.424,0,0,1,1.433.224,3.285,3.285,0,0,1,1.143.655,3.027,3.027,0,0,1,.76,1.063,3.587,3.587,0,0,1,.277,1.45,4.973,4.973,0,0,1-.171,1.354,4.186,4.186,0,0,1-.519,1.143A5.513,5.513,0,0,1,6.688-5.9a12.387,12.387,0,0,1-1.239,1q-.888.633-1.463,1.081a6.469,6.469,0,0,0-.914.839,2.436,2.436,0,0,0-.475.782,2.734,2.734,0,0,0-.136.9H8.736V0H.958V-.624a5.2,5.2,0,0,1,.176-1.424,3.7,3.7,0,0,1,.58-1.169A6.487,6.487,0,0,1,2.773-4.324q.655-.554,1.6-1.248a10.141,10.141,0,0,0,1.147-.94,4.889,4.889,0,0,0,.743-.9,3.22,3.22,0,0,0,.4-.91A3.922,3.922,0,0,0,6.785-9.3Z" transform="translate(647 4297)" fill="#212429"/>
    <path id="Trazado_1029423" data-name="Trazado 1029423" d="M6785,2972.5h102" transform="translate(-6195 1304)" fill="none" stroke="#212429" stroke-width="1"/>
  </g>
</svg>
