<svg xmlns="http://www.w3.org/2000/svg" xmlns:xlink="http://www.w3.org/1999/xlink" width="108" height="108" viewBox="0 0 108 108">
  <defs>
    <filter id="Trazado_982547" x="0" y="0" width="108" height="108" filterUnits="userSpaceOnUse">
      <feOffset dy="3" input="SourceAlpha"/>
      <feGaussianBlur stdDeviation="3" result="blur"/>
      <feFlood flood-opacity="0.161"/>
      <feComposite operator="in" in2="blur"/>
      <feComposite in="SourceGraphic"/>
    </filter>
  </defs>
  <g id="Grupo_1173635" data-name="Grupo 1173635" transform="translate(-326.122 -1189.719)">
    <g id="Grupo_1173554" data-name="Grupo 1173554" transform="translate(335.122 1195.719)">
      <g id="Grupo_1172017" data-name="Grupo 1172017" transform="translate(0)">
        <g id="Grupo_1167337" data-name="Grupo 1167337" transform="translate(0)">
          <g id="Grupo_1166720" data-name="Grupo 1166720">
            <g id="Grupo_1164305" data-name="Grupo 1164305">
              <g id="Grupo_1163948" data-name="Grupo 1163948">
                <g id="Grupo_1158168" data-name="Grupo 1158168">
                  <g id="Grupo_1152576" data-name="Grupo 1152576">
                    <g id="Grupo_1148633" data-name="Grupo 1148633">
                      <g id="Grupo_1148525" data-name="Grupo 1148525">
                        <g transform="matrix(1, 0, 0, 1, -9, -6)" filter="url(#Trazado_982547)">
                          <g id="Trazado_982547-2" data-name="Trazado 982547" transform="translate(9 6)" fill="#e9f9fd">
                            <path d="M 45 88.5 C 39.12687683105469 88.5 33.43022537231445 87.35007476806641 28.06830024719238 85.08217620849609 C 22.88852500915527 82.89131164550781 18.23629951477051 79.75458526611328 14.2408504486084 75.75914764404297 C 10.24541282653809 71.76370239257812 7.108687400817871 67.11147308349609 4.917825222015381 61.93170166015625 C 2.649924993515015 56.56977462768555 1.5 50.87312316894531 1.5 45 C 1.5 39.12687683105469 2.649924993515015 33.43022537231445 4.917825222015381 28.06830024719238 C 7.108687400817871 22.88852500915527 10.24541282653809 18.23629951477051 14.2408504486084 14.2408504486084 C 18.23629951477051 10.24541282653809 22.88852500915527 7.108687400817871 28.06830024719238 4.917825222015381 C 33.43022537231445 2.649924993515015 39.12687683105469 1.5 45 1.5 C 50.87312316894531 1.5 56.56977462768555 2.649924993515015 61.93170166015625 4.917825222015381 C 67.11147308349609 7.108687400817871 71.76370239257812 10.24541282653809 75.75914764404297 14.2408504486084 C 79.75458526611328 18.23629951477051 82.89131164550781 22.88852500915527 85.08217620849609 28.06830024719238 C 87.35007476806641 33.43022537231445 88.5 39.12687683105469 88.5 45 C 88.5 50.87312316894531 87.35007476806641 56.56977462768555 85.08217620849609 61.93170166015625 C 82.89131164550781 67.11147308349609 79.75458526611328 71.76370239257812 75.75914764404297 75.75914764404297 C 71.76370239257812 79.75458526611328 67.11147308349609 82.89131164550781 61.93170166015625 85.08217620849609 C 56.56977462768555 87.35007476806641 50.87312316894531 88.5 45 88.5 Z" stroke="none"/>
                            <path d="M 45 3 C 39.32871246337891 3 33.82865524291992 4.110054016113281 28.65262985229492 6.299339294433594 C 23.65165710449219 8.414573669433594 19.15968322753906 11.44334411621094 15.301513671875 15.301513671875 C 11.44334411621094 19.15968322753906 8.414573669433594 23.65165710449219 6.299339294433594 28.65262985229492 C 4.110054016113281 33.82865524291992 3 39.32871246337891 3 45 C 3 50.67128753662109 4.110054016113281 56.17134475708008 6.299339294433594 61.34737396240234 C 8.414573669433594 66.34834289550781 11.44334411621094 70.84031677246094 15.301513671875 74.698486328125 C 19.15968322753906 78.55665588378906 23.65165710449219 81.58542633056641 28.65262985229492 83.70066070556641 C 33.82865524291992 85.88994598388672 39.32871246337891 87 45 87 C 50.67128753662109 87 56.17134475708008 85.88994598388672 61.34737396240234 83.70066070556641 C 66.34834289550781 81.58542633056641 70.84031677246094 78.55665588378906 74.698486328125 74.698486328125 C 78.55665588378906 70.84031677246094 81.58542633056641 66.34834289550781 83.70066070556641 61.34737396240234 C 85.88994598388672 56.17134475708008 87 50.67128753662109 87 45 C 87 39.32871246337891 85.88994598388672 33.82865524291992 83.70066070556641 28.65262985229492 C 81.58542633056641 23.65165710449219 78.55665588378906 19.15968322753906 74.698486328125 15.301513671875 C 70.84031677246094 11.44334411621094 66.34834289550781 8.414573669433594 61.34737396240234 6.299339294433594 C 56.17134475708008 4.110054016113281 50.67128753662109 3 45 3 M 45 0 C 69.85281372070312 0 90 20.14718627929688 90 45 C 90 69.85281372070312 69.85281372070312 90 45 90 C 20.14718627929688 90 0 69.85281372070312 0 45 C 0 20.14718627929688 20.14718627929688 0 45 0 Z" stroke="none" fill="#1d7083"/>
                          </g>
                        </g>
                      </g>
                    </g>
                  </g>
                </g>
              </g>
            </g>
          </g>
        </g>
      </g>
    </g>
    <g id="binary-code_1331401" transform="translate(356.293 1214.561)">
      <path id="Trazado_1029647" data-name="Trazado 1029647" d="M56.964,13.043H36.06l-.683-4.538a.506.506,0,0,0-.5-.431H23.654a.506.506,0,0,0-.5.431l-.683,4.538H21.164l-.683-4.538a.506.506,0,0,0-.5-.431H8.758a.506.506,0,0,0-.5.431l-.683,4.538V57.362a.507.507,0,0,0,.507.507H56.963a.507.507,0,0,0,.507-.507V13.55a.507.507,0,0,0-.507-.507Zm0,0" transform="translate(-6.815 -6.814)" fill="#4172cc"/>
      <path id="Trazado_1029648" data-name="Trazado 1029648" d="M57.471,58.061v43.811a.507.507,0,0,1-.507.507H8.082a.507.507,0,0,1-.507-.507V57.555H56.964a.507.507,0,0,1,.507.507Zm0,0" transform="translate(-6.815 -51.325)" fill="#bebebe"/>
      <path id="Trazado_1029649" data-name="Trazado 1029649" d="M21.165,13.04H7.575L8.258,8.5a.507.507,0,0,1,.5-.431H19.981a.507.507,0,0,1,.5.431Zm0,0" transform="translate(-6.816 -6.81)" fill="#4172cc"/>
      <path id="Trazado_1029650" data-name="Trazado 1029650" d="M82.679,58.061v43.811a.507.507,0,0,1-.507.507H36.1a.507.507,0,0,1-.507-.507V57.555H82.172a.507.507,0,0,1,.507.507Zm0,0" transform="translate(-32.024 -51.325)" fill="#ebebf0"/>
      <path id="Trazado_1029651" data-name="Trazado 1029651" d="M46.373,13.04H35.6L36.281,8.5a.507.507,0,0,1,.5-.431H45.19a.507.507,0,0,1,.5.431Zm0,0" transform="translate(-32.024 -6.81)" fill="#6990d7"/>
      <path id="Trazado_1029652" data-name="Trazado 1029652" d="M169.493,13.04H155.9l.683-4.538a.507.507,0,0,1,.5-.431h11.223a.507.507,0,0,1,.5.431Zm0,0" transform="translate(-140.248 -6.81)" fill="#4172cc"/>
      <path id="Trazado_1029653" data-name="Trazado 1029653" d="M194.7,13.04H183.926l.683-4.538a.507.507,0,0,1,.5-.431h8.408a.508.508,0,0,1,.5.431Zm0,0" transform="translate(-165.456 -6.81)" fill="#6990d7"/>
      <path id="Trazado_1029654" data-name="Trazado 1029654" d="M57.47,58.062v5.68H7.574V57.555H56.963a.507.507,0,0,1,.507.507Zm0,0" transform="translate(-6.815 -51.325)" fill="#6990d7"/>
      <path id="Trazado_1029655" data-name="Trazado 1029655" d="M82.68,58.062v5.68H35.6V57.555H82.173a.507.507,0,0,1,.507.507Zm0,0" transform="translate(-32.024 -51.325)" fill="#91aee2"/>
      <path id="Trazado_1029656" data-name="Trazado 1029656" d="M365.585,364.7a2.141,2.141,0,0,1-3.019-.007l-9.358-9.406a2.135,2.135,0,1,1,3.027-3.012l9.358,9.406A2.141,2.141,0,0,1,365.585,364.7Zm0,0" transform="translate(-317.181 -315.886)" fill="#ffc14f"/>
      <path id="Trazado_1029657" data-name="Trazado 1029657" d="M269.048,252.709A11.045,11.045,0,1,1,258,241.664,11.045,11.045,0,0,1,269.048,252.709Zm0,0" transform="translate(-222.158 -216.945)" fill="#f29500"/>
      <path id="Trazado_1029658" data-name="Trazado 1029658" d="M293.145,283.9a7.933,7.933,0,1,1-3.957-10.489,7.916,7.916,0,0,1,3.957,10.489Zm0,0" transform="translate(-250.078 -244.866)" fill="#d2d2d7"/>
      <path id="Trazado_1029659" data-name="Trazado 1029659" d="M320.4,285.222a7.933,7.933,0,1,1-3.957-10.489,7.916,7.916,0,0,1,3.957,10.489Zm0,0" transform="translate(-277.33 -246.192)" fill="#ebebf0"/>
      <path id="Trazado_1029660" data-name="Trazado 1029660" d="M202.194,180.1c-1.156-.622-4.5-.824-4.5,2.444v3.414a2.87,2.87,0,0,0,5.739,0v-2.728a11.829,11.829,0,0,0,16.006,4.453l3.249,3.265a2.9,2.9,0,1,0,4.105-4.085l-3.142-3.158a11.825,11.825,0,0,0,.739-11.326.761.761,0,0,0-1.379.642,10.3,10.3,0,1,1-1.534-2.369.761.761,0,1,0,1.151-.995,11.809,11.809,0,0,0-13.36-3.245c0-.011,0-.023,0-.035v-7.954c0-.415-.7-.68-1.04-.391l-1.444,1.1a.689.689,0,0,0-.306.576c0,.531.49.8.808.526l.392-.392v6.535c0,.276.274.441.6.488a11.819,11.819,0,0,0-6.083,13.235Zm-.355,5.858c0,.967-.49,1.408-1.285,1.408s-1.273-.441-1.273-1.408v-3.414c0-.967.465-1.407,1.273-1.407s1.285.441,1.285,1.407Zm20.9-1.013,2.975,2.991a1.375,1.375,0,0,1-1.949,1.939l-3.023-3.039a11.937,11.937,0,0,0,2-1.89Zm0,0" transform="translate(-177.839 -141.603)"/>
      <path id="Trazado_1029661" data-name="Trazado 1029661" d="M279.115,265.129a8.685,8.685,0,1,0,8.685,8.694,8.7,8.7,0,0,0-8.685-8.694Zm3.719,14.809a7.165,7.165,0,1,1-.771-12.649,7.172,7.172,0,0,1,.771,12.649Zm0,0" transform="translate(-243.266 -238.053)"/>
      <path id="Trazado_1029662" data-name="Trazado 1029662" d="M51.232,160.947a2.557,2.557,0,0,0-2.875-2.8,2.548,2.548,0,0,0-2.864,2.8v3.414a2.548,2.548,0,0,0,2.864,2.8,2.556,2.556,0,0,0,2.875-2.8Zm-1.591,3.414c0,.967-.49,1.407-1.285,1.407s-1.273-.441-1.273-1.407v-3.414c0-.967.465-1.407,1.273-1.407s1.285.441,1.285,1.407Zm0,0" transform="translate(-40.925 -141.813)"/>
      <path id="Trazado_1029663" data-name="Trazado 1029663" d="M135.775,166.379v-7.954c0-.415-.7-.68-1.04-.392l-1.444,1.1a.687.687,0,0,0-.306.575c0,.532.49.8.808.526l.392-.391v6.535C134.184,167.05,135.775,167.043,135.775,166.379Zm0,0" transform="translate(-119.631 -141.603)"/>
      <path id="Trazado_1029664" data-name="Trazado 1029664" d="M200.555,158.141a2.548,2.548,0,0,0-2.863,2.8v3.414a2.87,2.87,0,0,0,5.739,0v-3.414A2.557,2.557,0,0,0,200.555,158.141Zm1.285,6.217c0,.967-.49,1.407-1.285,1.407s-1.273-.441-1.273-1.407v-3.414c0-.967.465-1.407,1.273-1.407s1.285.441,1.285,1.407Zm0,0" transform="translate(-177.839 -141.81)"/>
      <path id="Trazado_1029665" data-name="Trazado 1029665" d="M48.356,375.3a2.548,2.548,0,0,0-2.864,2.8v3.414a2.548,2.548,0,0,0,2.864,2.8,2.557,2.557,0,0,0,2.875-2.8V378.1A2.557,2.557,0,0,0,48.356,375.3Zm1.285,6.217c0,.967-.49,1.408-1.285,1.408s-1.273-.441-1.273-1.408V378.1c0-.967.465-1.407,1.273-1.407s1.285.441,1.285,1.407Zm0,0" transform="translate(-40.925 -337.158)"/>
      <path id="Trazado_1029666" data-name="Trazado 1029666" d="M135.775,383.534V375.58c0-.415-.7-.68-1.04-.391l-1.444,1.1a.687.687,0,0,0-.306.575.59.59,0,0,0,.514.636.443.443,0,0,0,.294-.11l.392-.391v6.535C134.184,384.206,135.775,384.2,135.775,383.534Zm0,0" transform="translate(-119.631 -336.951)"/>
      <path id="Trazado_1029667" data-name="Trazado 1029667" d="M45.749,268.357l.392-.391V274.5c0,.672,1.591.665,1.591,0v-7.954c0-.318-.379-.514-.71-.514-.27,0-.235.075-1.775,1.224a.687.687,0,0,0-.306.575c0,.532.491.8.808.526Zm0,0" transform="translate(-40.429 -238.865)"/>
      <path id="Trazado_1029668" data-name="Trazado 1029668" d="M107.941,269.08v3.414a2.871,2.871,0,0,0,5.74,0V269.08a2.871,2.871,0,0,0-5.74,0Zm1.591,0c0-.967.465-1.407,1.273-1.407s1.285.441,1.285,1.407v3.414c0,.967-.49,1.407-1.285,1.407s-1.273-.441-1.273-1.407Zm0,0" transform="translate(-97.102 -239.087)"/>
      <path id="Trazado_1029669" data-name="Trazado 1029669" d="M193.73,267.83c0,.532.49.8.808.526l.391-.392V274.5c0,.33.392.5.8.5s.8-.171.8-.5v-7.954c0-.318-.379-.514-.71-.514-.27,0-.235.075-1.775,1.224A.688.688,0,0,0,193.73,267.83Zm0,0" transform="translate(-174.276 -238.865)"/>
      <path id="Trazado_1029670" data-name="Trazado 1029670" d="M336.568,291.762l-1.942,1.481a.925.925,0,0,0-.412.774.794.794,0,0,0,.692.856c.41,0,.543-.358.922-.675v8.789c0,.9,2.14.894,2.14,0v-10.7c0-.557-.946-.916-1.4-.527Zm0,0" transform="translate(-300.652 -261.865)"/>
      <path id="Trazado_1029671" data-name="Trazado 1029671" d="M50.149,5.469H46.714a.761.761,0,0,0,0,1.521H49.9v4.666H1.52V6.99H43.672a.761.761,0,0,0,0-1.521H29.9l-.585-3.89A1.259,1.259,0,0,0,28.062.5H16.839a1.259,1.259,0,0,0-1.253,1.079L15,5.459l-.584-3.88A1.259,1.259,0,0,0,13.165.5H1.942A1.259,1.259,0,0,0,.69,1.579C-.022,6.314,0,6.146,0,6.23V30.251a.761.761,0,0,0,1.521,0V13.177H49.9V50.295H1.52v-17a.761.761,0,1,0-1.521,0V50.548a1.269,1.269,0,0,0,1.268,1.268H50.149a1.269,1.269,0,0,0,1.268-1.268V6.737a1.269,1.269,0,0,0-1.268-1.268ZM17.058,2.021H27.843l.519,3.448H16.539Zm-14.9,0H12.947l.519,3.448H1.643Zm0,0" transform="translate(0 0)"/>
      <path id="Trazado_1029672" data-name="Trazado 1029672" d="M67.181,80.277h-40.5a.761.761,0,1,0,0,1.521h40.5a.761.761,0,1,0,0-1.521Zm0,0" transform="translate(-23.32 -71.766)"/>
      <path id="Trazado_1029673" data-name="Trazado 1029673" d="M460.333,78.768a1.014,1.014,0,1,1-1.014-1.014A1.014,1.014,0,0,1,460.333,78.768Zm0,0" transform="translate(-412.28 -69.496)"/>
    </g>
  </g>
</svg>
