<svg xmlns="http://www.w3.org/2000/svg" xmlns:xlink="http://www.w3.org/1999/xlink" width="108" height="108" viewBox="0 0 108 108">
  <defs>
    <filter id="Trazado_982547" x="0" y="0" width="108" height="108" filterUnits="userSpaceOnUse">
      <feOffset dy="3" input="SourceAlpha"/>
      <feGaussianBlur stdDeviation="3" result="blur"/>
      <feFlood flood-opacity="0.161"/>
      <feComposite operator="in" in2="blur"/>
      <feComposite in="SourceGraphic"/>
    </filter>
  </defs>
  <g id="Grupo_1173637" data-name="Grupo 1173637" transform="translate(-1166 -1190)">
    <g id="Grupo_1173556" data-name="Grupo 1173556" transform="translate(1175 1196)">
      <g id="Grupo_1172017" data-name="Grupo 1172017" transform="translate(0)">
        <g id="Grupo_1167337" data-name="Grupo 1167337" transform="translate(0)">
          <g id="Grupo_1166720" data-name="Grupo 1166720">
            <g id="Grupo_1164305" data-name="Grupo 1164305">
              <g id="Grupo_1163948" data-name="Grupo 1163948">
                <g id="Grupo_1158168" data-name="Grupo 1158168">
                  <g id="Grupo_1152576" data-name="Grupo 1152576">
                    <g id="Grupo_1148633" data-name="Grupo 1148633">
                      <g id="Grupo_1148525" data-name="Grupo 1148525">
                        <g transform="matrix(1, 0, 0, 1, -9, -6)" filter="url(#Trazado_982547)">
                          <g id="Trazado_982547-2" data-name="Trazado 982547" transform="translate(9 6)" fill="#e9f9fd">
                            <path d="M 45 88.5 C 39.12687683105469 88.5 33.43022537231445 87.35007476806641 28.06830024719238 85.08217620849609 C 22.88852500915527 82.89131164550781 18.23629951477051 79.75458526611328 14.2408504486084 75.75914764404297 C 10.24541282653809 71.76370239257812 7.108687400817871 67.11147308349609 4.917825222015381 61.93170166015625 C 2.649924993515015 56.56977462768555 1.5 50.87312316894531 1.5 45 C 1.5 39.12687683105469 2.649924993515015 33.43022537231445 4.917825222015381 28.06830024719238 C 7.108687400817871 22.88852500915527 10.24541282653809 18.23629951477051 14.2408504486084 14.2408504486084 C 18.23629951477051 10.24541282653809 22.88852500915527 7.108687400817871 28.06830024719238 4.917825222015381 C 33.43022537231445 2.649924993515015 39.12687683105469 1.5 45 1.5 C 50.87312316894531 1.5 56.56977462768555 2.649924993515015 61.93170166015625 4.917825222015381 C 67.11147308349609 7.108687400817871 71.76370239257812 10.24541282653809 75.75914764404297 14.2408504486084 C 79.75458526611328 18.23629951477051 82.89131164550781 22.88852500915527 85.08217620849609 28.06830024719238 C 87.35007476806641 33.43022537231445 88.5 39.12687683105469 88.5 45 C 88.5 50.87312316894531 87.35007476806641 56.56977462768555 85.08217620849609 61.93170166015625 C 82.89131164550781 67.11147308349609 79.75458526611328 71.76370239257812 75.75914764404297 75.75914764404297 C 71.76370239257812 79.75458526611328 67.11147308349609 82.89131164550781 61.93170166015625 85.08217620849609 C 56.56977462768555 87.35007476806641 50.87312316894531 88.5 45 88.5 Z" stroke="none"/>
                            <path d="M 45 3 C 39.32871246337891 3 33.82865524291992 4.110054016113281 28.65262985229492 6.299339294433594 C 23.65165710449219 8.414573669433594 19.15968322753906 11.44334411621094 15.301513671875 15.301513671875 C 11.44334411621094 19.15968322753906 8.414573669433594 23.65165710449219 6.299339294433594 28.65262985229492 C 4.110054016113281 33.82865524291992 3 39.32871246337891 3 45 C 3 50.67128753662109 4.110054016113281 56.17134475708008 6.299339294433594 61.34737396240234 C 8.414573669433594 66.34834289550781 11.44334411621094 70.84031677246094 15.301513671875 74.698486328125 C 19.15968322753906 78.55665588378906 23.65165710449219 81.58542633056641 28.65262985229492 83.70066070556641 C 33.82865524291992 85.88994598388672 39.32871246337891 87 45 87 C 50.67128753662109 87 56.17134475708008 85.88994598388672 61.34737396240234 83.70066070556641 C 66.34834289550781 81.58542633056641 70.84031677246094 78.55665588378906 74.698486328125 74.698486328125 C 78.55665588378906 70.84031677246094 81.58542633056641 66.34834289550781 83.70066070556641 61.34737396240234 C 85.88994598388672 56.17134475708008 87 50.67128753662109 87 45 C 87 39.32871246337891 85.88994598388672 33.82865524291992 83.70066070556641 28.65262985229492 C 81.58542633056641 23.65165710449219 78.55665588378906 19.15968322753906 74.698486328125 15.301513671875 C 70.84031677246094 11.44334411621094 66.34834289550781 8.414573669433594 61.34737396240234 6.299339294433594 C 56.17134475708008 4.110054016113281 50.67128753662109 3 45 3 M 45 0 C 69.85281372070312 0 90 20.14718627929688 90 45 C 90 69.85281372070312 69.85281372070312 90 45 90 C 20.14718627929688 90 0 69.85281372070312 0 45 C 0 20.14718627929688 20.14718627929688 0 45 0 Z" stroke="none" fill="#1d7083"/>
                          </g>
                        </g>
                      </g>
                    </g>
                  </g>
                </g>
              </g>
            </g>
          </g>
        </g>
      </g>
    </g>
    <g id="predictive-chart_6078880" transform="translate(1192 1213)">
      <path id="Trazado_1029674" data-name="Trazado 1029674" d="M48.688,41.756H3.729A1.729,1.729,0,0,1,2,40.028V3.729A1.729,1.729,0,0,1,3.729,2H46.942A1.729,1.729,0,0,1,48.67,3.729V41.766Z" transform="translate(-0.136 -0.136)" fill="#e2e7f6"/>
      <path id="Trazado_1029675" data-name="Trazado 1029675" d="M46.151,39.163V2H3.84A1.806,1.806,0,0,0,2,3.77V39.163Z" transform="translate(-0.136 -0.136)" fill="#f7fafd"/>
      <path id="Trazado_1029676" data-name="Trazado 1029676" d="M46.942,2H3.729A1.729,1.729,0,0,0,2,3.729V8.914H48.67V3.729A1.729,1.729,0,0,0,46.942,2Z" transform="translate(-0.136 -0.136)" fill="#3b5892"/>
      <path id="Trazado_1029677" data-name="Trazado 1029677" d="M8.081,17.492l6.562,5.625v8.643A8.643,8.643,0,0,1,8.081,17.492Z" transform="translate(-0.679 -2.239)" fill="#b52f28"/>
      <path id="Trazado_1029678" data-name="Trazado 1029678" d="M8.408,17.018l6.562,5.625h8.643a8.643,8.643,0,0,0-15.2-5.625Z" transform="translate(-1.006 -1.765)" fill="#f4a93c"/>
      <path id="Trazado_1029679" data-name="Trazado 1029679" d="M46.15,7.479V2H3.822A2.033,2.033,0,0,0,2,4.192V7.476Z" transform="translate(-0.135 -0.136)" fill="#4c6cb5"/>
      <path id="Trazado_1029680" data-name="Trazado 1029680" d="M54,26h6.914V57.114H54Z" transform="translate(-7.194 -3.393)" fill="#3b5892"/>
      <path id="Trazado_1029681" data-name="Trazado 1029681" d="M54,26h4.321V55.385H54Z" transform="translate(-7.194 -3.393)" fill="#4c6cb5"/>
      <path id="Trazado_1029682" data-name="Trazado 1029682" d="M42,32h6.914V57.928H42Z" transform="translate(-5.565 -4.208)" fill="#f4a93c"/>
      <path id="Trazado_1029683" data-name="Trazado 1029683" d="M42,32h5.186V56.2H42Z" transform="translate(-5.565 -4.208)" fill="#f6b940"/>
      <path id="Trazado_1029684" data-name="Trazado 1029684" d="M30,38h6.914V58.742H30Z" transform="translate(-3.936 -5.022)" fill="#b52f28"/>
      <path id="Trazado_1029685" data-name="Trazado 1029685" d="M30,38h5.186V57.014H30Z" transform="translate(-3.936 -5.022)" fill="#d23f34"/>
      <path id="Trazado_1029686" data-name="Trazado 1029686" d="M18,44h6.914V59.557H18Z" transform="translate(-2.307 -5.837)" fill="#4d8c28"/>
      <path id="Trazado_1029687" data-name="Trazado 1029687" d="M18,44h5.186V57.828H18Z" transform="translate(-2.307 -5.837)" fill="#559b2d"/>
      <path id="Trazado_1029688" data-name="Trazado 1029688" d="M5,5h5.186V6.729H5Z" transform="translate(-0.543 -0.543)" fill="#f7fafd"/>
      <path id="Trazado_1029689" data-name="Trazado 1029689" d="M13,5h1.729V6.729H13Z" transform="translate(-1.629 -0.543)" fill="#f7fafd"/>
      <path id="Trazado_1029690" data-name="Trazado 1029690" d="M36,14H48.1v3.457H36Z" transform="translate(-4.751 -1.765)" fill="#787faa"/>
      <path id="Trazado_1029691" data-name="Trazado 1029691" d="M36,14H47.235v2.593H36Z" transform="translate(-4.751 -1.765)" fill="#858bb5"/>
      <path id="Trazado_1029692" data-name="Trazado 1029692" d="M20,28v8.643A8.643,8.643,0,0,0,28.643,28Z" transform="translate(-2.579 -3.665)" fill="#3b5892"/>
      <path id="Trazado_1029693" data-name="Trazado 1029693" d="M26.741,28H20v6.741A8.65,8.65,0,0,0,26.741,28Z" transform="translate(-2.579 -3.665)" fill="#4c6cb5"/>
      <g id="Grupo_1173636" data-name="Grupo 1173636" transform="translate(31.249 18.285)">
        <path id="Trazado_1029694" data-name="Trazado 1029694" d="M36,21h8.643v1.729H36Z" transform="translate(-36 -21)" fill="#9da1bf"/>
        <path id="Trazado_1029695" data-name="Trazado 1029695" d="M48,21h1.729v1.729H48Z" transform="translate(-37.629 -21)" fill="#9da1bf"/>
        <path id="Trazado_1029696" data-name="Trazado 1029696" d="M36,25h8.643v1.729H36Z" transform="translate(-36 -21.543)" fill="#9da1bf"/>
        <path id="Trazado_1029697" data-name="Trazado 1029697" d="M48,25h1.729v1.729H48Z" transform="translate(-37.629 -21.543)" fill="#9da1bf"/>
      </g>
      <path id="Trazado_1029698" data-name="Trazado 1029698" d="M20.982,16.442a8.633,8.633,0,0,0-12.575.576l4.8,4.116h7.771Z" transform="translate(-1.005 -1.765)" fill="#f6b940"/>
      <path id="Trazado_1029699" data-name="Trazado 1029699" d="M8.081,17.492A8.643,8.643,0,0,0,9.2,29.829h3.71V21.635Z" transform="translate(-0.679 -2.239)" fill="#d23f34"/>
      <path id="Trazado_1029700" data-name="Trazado 1029700" d="M53.72,21.742H49.4V3.593A2.593,2.593,0,0,0,46.806,1H3.593A2.593,2.593,0,0,0,1,3.593v36.3a2.593,2.593,0,0,0,2.593,2.593H14.828V53.72a.864.864,0,0,0,.864.864h6.914a.864.864,0,0,0,.864-.864V42.485H25.2V53.72a.864.864,0,0,0,.864.864h6.914a.864.864,0,0,0,.864-.864V42.485h1.729V53.72a.864.864,0,0,0,.864.864h6.914a.864.864,0,0,0,.864-.864V42.485h1.729V53.72a.864.864,0,0,0,.864.864H53.72a.864.864,0,0,0,.864-.864V22.607A.864.864,0,0,0,53.72,21.742ZM3.593,2.729H46.806a.864.864,0,0,1,.864.864V7.914H2.729V3.593A.864.864,0,0,1,3.593,2.729Zm18.15,50.127H16.557V39.028h5.186Zm10.371,0H26.928V33.842h5.186Zm10.371,0H37.3v-24.2h5.186Zm3.457-30.249v18.15H44.213V27.792a.864.864,0,0,0-.864-.864H36.435a.864.864,0,0,0-.864.864V40.756H33.842V32.978a.864.864,0,0,0-.864-.864H26.064a.864.864,0,0,0-.864.864v7.778H23.471V38.163a.864.864,0,0,0-.864-.864H15.693a.864.864,0,0,0-.864.864v2.593H3.593a.864.864,0,0,1-.864-.864V9.643H47.67v12.1h-.864A.864.864,0,0,0,45.942,22.607Zm6.914,30.249H47.67V23.471h5.186Z" transform="translate(0)"/>
      <path id="Trazado_1029701" data-name="Trazado 1029701" d="M5,5h5.186V6.729H5Z" transform="translate(-0.543 -0.543)"/>
      <path id="Trazado_1029702" data-name="Trazado 1029702" d="M13,5h1.729V6.729H13Z" transform="translate(-1.629 -0.543)"/>
      <path id="Trazado_1029703" data-name="Trazado 1029703" d="M47.964,13h-12.1a.864.864,0,0,0-.864.864v3.457a.864.864,0,0,0,.864.864h12.1a.864.864,0,0,0,.864-.864V13.864A.864.864,0,0,0,47.964,13ZM47.1,16.457H36.729V14.729H47.1Z" transform="translate(-4.615 -1.629)"/>
      <path id="Trazado_1029704" data-name="Trazado 1029704" d="M24.014,22.507a9.507,9.507,0,1,0-9.507,9.507.864.864,0,0,0,.864-.864V23.371H23.15A.864.864,0,0,0,24.014,22.507Zm-17.285,0a7.728,7.728,0,0,1,1.35-4.372L13.643,22.9v7.333A7.789,7.789,0,0,1,6.729,22.507Zm8.1-.864L9.208,16.828a7.765,7.765,0,0,1,13.029,4.815Z" transform="translate(-0.543 -1.629)"/>
      <path id="Trazado_1029705" data-name="Trazado 1029705" d="M28.507,27H19.864a.864.864,0,0,0-.864.864v8.643a.864.864,0,0,0,.864.864,9.518,9.518,0,0,0,9.507-9.507A.864.864,0,0,0,28.507,27Zm-7.778,8.594V28.729h6.866a7.792,7.792,0,0,1-6.866,6.866Z" transform="translate(-2.443 -3.529)"/>
      <path id="Trazado_1029706" data-name="Trazado 1029706" d="M36,21h8.643v1.729H36Z" transform="translate(-4.751 -2.715)"/>
      <path id="Trazado_1029707" data-name="Trazado 1029707" d="M48,21h1.729v1.729H48Z" transform="translate(-6.38 -2.715)"/>
      <path id="Trazado_1029708" data-name="Trazado 1029708" d="M36,25h8.643v1.729H36Z" transform="translate(-4.751 -3.258)"/>
      <path id="Trazado_1029709" data-name="Trazado 1029709" d="M48,25h1.729v1.729H48Z" transform="translate(-6.38 -3.258)"/>
    </g>
  </g>
</svg>
