<svg xmlns="http://www.w3.org/2000/svg" xmlns:xlink="http://www.w3.org/1999/xlink" width="108" height="108" viewBox="0 0 108 108">
  <defs>
    <filter id="Trazado_982547" x="0" y="0" width="108" height="108" filterUnits="userSpaceOnUse">
      <feOffset dy="3" input="SourceAlpha"/>
      <feGaussianBlur stdDeviation="3" result="blur"/>
      <feFlood flood-opacity="0.161"/>
      <feComposite operator="in" in2="blur"/>
      <feComposite in="SourceGraphic"/>
    </filter>
  </defs>
  <g id="Grupo_1173429" data-name="Grupo 1173429" transform="translate(-171 -1440)">
    <g id="Grupo_1173175" data-name="Grupo 1173175" transform="translate(180 1446)">
      <g id="Grupo_1171932" data-name="Grupo 1171932" transform="translate(0 0)">
        <g id="Grupo_1167337" data-name="Grupo 1167337" transform="translate(0)">
          <g id="Grupo_1166720" data-name="Grupo 1166720" transform="translate(0)">
            <g id="Grupo_1164305" data-name="Grupo 1164305">
              <g id="Grupo_1163948" data-name="Grupo 1163948">
                <g id="Grupo_1158168" data-name="Grupo 1158168">
                  <g id="Grupo_1152576" data-name="Grupo 1152576">
                    <g id="Grupo_1148633" data-name="Grupo 1148633">
                      <g id="Grupo_1148525" data-name="Grupo 1148525">
                        <g transform="matrix(1, 0, 0, 1, -9, -6)" filter="url(#Trazado_982547)">
                          <g id="Trazado_982547-2" data-name="Trazado 982547" transform="translate(9 6)" fill="#fff">
                            <path d="M 45 88.5 C 39.12687683105469 88.5 33.43022537231445 87.35007476806641 28.06830024719238 85.08217620849609 C 22.88852500915527 82.89131164550781 18.23629951477051 79.75458526611328 14.2408504486084 75.75914764404297 C 10.24541282653809 71.76370239257812 7.108687400817871 67.11147308349609 4.917825222015381 61.93170166015625 C 2.649924993515015 56.56977462768555 1.5 50.87312316894531 1.5 45 C 1.5 39.12687683105469 2.649924993515015 33.43022537231445 4.917825222015381 28.06830024719238 C 7.108687400817871 22.88852500915527 10.24541282653809 18.23629951477051 14.2408504486084 14.2408504486084 C 18.23629951477051 10.24541282653809 22.88852500915527 7.108687400817871 28.06830024719238 4.917825222015381 C 33.43022537231445 2.649924993515015 39.12687683105469 1.5 45 1.5 C 50.87312316894531 1.5 56.56977462768555 2.649924993515015 61.93170166015625 4.917825222015381 C 67.11147308349609 7.108687400817871 71.76370239257812 10.24541282653809 75.75914764404297 14.2408504486084 C 79.75458526611328 18.23629951477051 82.89131164550781 22.88852500915527 85.08217620849609 28.06830024719238 C 87.35007476806641 33.43022537231445 88.5 39.12687683105469 88.5 45 C 88.5 50.87312316894531 87.35007476806641 56.56977462768555 85.08217620849609 61.93170166015625 C 82.89131164550781 67.11147308349609 79.75458526611328 71.76370239257812 75.75914764404297 75.75914764404297 C 71.76370239257812 79.75458526611328 67.11147308349609 82.89131164550781 61.93170166015625 85.08217620849609 C 56.56977462768555 87.35007476806641 50.87312316894531 88.5 45 88.5 Z" stroke="none"/>
                            <path d="M 45 3 C 39.32871246337891 3 33.82865524291992 4.110054016113281 28.65262985229492 6.299339294433594 C 23.65165710449219 8.414573669433594 19.15968322753906 11.44334411621094 15.301513671875 15.301513671875 C 11.44334411621094 19.15968322753906 8.414573669433594 23.65165710449219 6.299339294433594 28.65262985229492 C 4.110054016113281 33.82865524291992 3 39.32871246337891 3 45 C 3 50.67128753662109 4.110054016113281 56.17134475708008 6.299339294433594 61.34737396240234 C 8.414573669433594 66.34834289550781 11.44334411621094 70.84031677246094 15.301513671875 74.698486328125 C 19.15968322753906 78.55665588378906 23.65165710449219 81.58542633056641 28.65262985229492 83.70066070556641 C 33.82865524291992 85.88994598388672 39.32871246337891 87 45 87 C 50.67128753662109 87 56.17134475708008 85.88994598388672 61.34737396240234 83.70066070556641 C 66.34834289550781 81.58542633056641 70.84031677246094 78.55665588378906 74.698486328125 74.698486328125 C 78.55665588378906 70.84031677246094 81.58542633056641 66.34834289550781 83.70066070556641 61.34737396240234 C 85.88994598388672 56.17134475708008 87 50.67128753662109 87 45 C 87 39.32871246337891 85.88994598388672 33.82865524291992 83.70066070556641 28.65262985229492 C 81.58542633056641 23.65165710449219 78.55665588378906 19.15968322753906 74.698486328125 15.301513671875 C 70.84031677246094 11.44334411621094 66.34834289550781 8.414573669433594 61.34737396240234 6.299339294433594 C 56.17134475708008 4.110054016113281 50.67128753662109 3 45 3 M 45 0 C 69.85281372070312 0 90 20.14718627929688 90 45 C 90 69.85281372070312 69.85281372070312 90 45 90 C 20.14718627929688 90 0 69.85281372070312 0 45 C 0 20.14718627929688 20.14718627929688 0 45 0 Z" stroke="none" fill="#1d7083"/>
                          </g>
                        </g>
                      </g>
                    </g>
                  </g>
                </g>
              </g>
            </g>
          </g>
        </g>
      </g>
    </g>
    <g id="analytics_921591" transform="translate(189.114 1455.114)">
      <path id="Trazado_1029525" data-name="Trazado 1029525" d="M20.093,69.116H15.607A5.607,5.607,0,0,1,10,63.509v-47.9A5.607,5.607,0,0,1,15.607,10H73.361a5.607,5.607,0,0,1,5.607,5.607v47.9a5.607,5.607,0,0,1-5.607,5.607H20.093Z" transform="translate(-8.598 -8.598)" fill="#fff"/>
      <path id="Trazado_1029526" data-name="Trazado 1029526" d="M73.361,10H15.607A5.607,5.607,0,0,0,10,15.607v4.486H78.968V15.607A5.607,5.607,0,0,0,73.361,10Z" transform="translate(-8.598 -8.598)" fill="#ff5a5a"/>
      <path id="Trazado_1029527" data-name="Trazado 1029527" d="M21,82H87.589" transform="translate(-18.06 -70.505)" fill="#231f20"/>
      <rect id="Rectángulo_414962" data-name="Rectángulo 414962" width="10" height="16" transform="translate(6.886 54.886)" fill="#a5dc69"/>
      <rect id="Rectángulo_414963" data-name="Rectángulo 414963" width="9" height="20" transform="translate(38.886 50.886)" fill="#78d2fa"/>
      <rect id="Rectángulo_414964" data-name="Rectángulo 414964" width="8.972" height="30.919" transform="translate(23.55 39.451)" fill="#f5c86e"/>
      <rect id="Rectángulo_414965" data-name="Rectángulo 414965" width="8.972" height="33.012" transform="translate(54.95 37.358)" fill="#ff5a5a"/>
      <circle id="Elipse_11859" data-name="Elipse 11859" cx="3.645" cy="3.645" r="3.645" transform="translate(23.602 20.458)" fill="#f5c86e"/>
      <circle id="Elipse_11860" data-name="Elipse 11860" cx="3.645" cy="3.645" r="3.645" transform="translate(39.961 37.148)" fill="#78d2fa"/>
      <circle id="Elipse_11861" data-name="Elipse 11861" cx="3.645" cy="3.645" r="3.645" transform="translate(55.792 20.458)" fill="#ff5a5a"/>
      <circle id="Elipse_11862" data-name="Elipse 11862" cx="3.645" cy="3.645" r="3.645" transform="translate(8.599 35.806)" fill="#a5dc69"/>
      <path id="Trazado_1029528" data-name="Trazado 1029528" d="M66.877,61.75a4.9,4.9,0,0,0,4.895-4.895V7.009A7.017,7.017,0,0,0,64.763,0H7.009A7.017,7.017,0,0,0,0,7.009V56.855A4.9,4.9,0,0,0,4.895,61.75H6.448v7.219H1.4a1.4,1.4,0,1,0,0,2.8H70.37a1.4,1.4,0,0,0,0-2.8H65.324V61.75ZM7.009,2.8H64.763a4.21,4.21,0,0,1,4.205,4.205v3.084H2.944c-.048,0-.094,0-.141.007V7.009A4.21,4.21,0,0,1,7.009,2.8ZM9.252,68.968V56.352H15.42V68.968Zm15.7,0V40.853H31.12V68.968Zm15.7,0V52.708H46.82V68.968Zm15.7,0v-15.1a1.4,1.4,0,0,0-2.8,0v15.1H49.624V51.306a1.4,1.4,0,0,0-1.4-1.4H39.25a1.4,1.4,0,0,0-1.4,1.4V68.968H33.924V39.451a1.4,1.4,0,0,0-1.4-1.4H23.55a1.4,1.4,0,0,0-1.4,1.4V68.968H18.223V54.95a1.4,1.4,0,0,0-1.4-1.4H7.85a1.4,1.4,0,0,0-1.4,1.4v4H4.895A2.093,2.093,0,0,1,2.8,56.855V12.889c.046,0,.093.007.141.007H68.968V56.855a2.094,2.094,0,0,1-2.091,2.091H65.324V37.358a1.4,1.4,0,0,0-1.4-1.4H54.95a1.4,1.4,0,0,0-1.4,1.4v7.079a1.4,1.4,0,1,0,2.8,0V38.76H62.52V68.968Z"/>
      <path id="Trazado_1029529" data-name="Trazado 1029529" d="M213.467,38.8h31.672a1.4,1.4,0,1,0,0-2.8H213.467a1.4,1.4,0,0,0,0,2.8Z" transform="translate(-182.338 -30.954)"/>
      <path id="Trazado_1029530" data-name="Trazado 1029530" d="M95.4,38.8a1.4,1.4,0,1,0-.991-.411A1.412,1.412,0,0,0,95.4,38.8Z" transform="translate(-80.823 -30.954)"/>
      <path id="Trazado_1029531" data-name="Trazado 1029531" d="M55.4,38.8a1.4,1.4,0,1,0-.991-.411A1.412,1.412,0,0,0,55.4,38.8Z" transform="translate(-46.43 -30.954)"/>
      <path id="Trazado_1029532" data-name="Trazado 1029532" d="M135.4,38.8a1.4,1.4,0,1,0-.991-.411A1.412,1.412,0,0,0,135.4,38.8Z" transform="translate(-115.216 -30.954)"/>
      <path id="Trazado_1029533" data-name="Trazado 1029533" d="M383.4,342.64a1.4,1.4,0,1,0,.991.411A1.407,1.407,0,0,0,383.4,342.64Z" transform="translate(-328.451 -294.609)"/>
      <path id="Trazado_1029534" data-name="Trazado 1029534" d="M103.576,146.032a5.054,5.054,0,1,0-4.083-2.086l-9.311,9.311a5.034,5.034,0,0,0-4.654-.113L75.8,143.421a5.047,5.047,0,1,0-8.709.217l-8.278,8.278A5.051,5.051,0,1,0,60.8,153.9l8.377-8.377a5.035,5.035,0,0,0,4.645-.118l9.628,9.627a5.046,5.046,0,1,0,8.714.209l9.561-9.561A5.014,5.014,0,0,0,103.576,146.032Zm0-7.289a2.243,2.243,0,1,1-2.243,2.243A2.245,2.245,0,0,1,103.576,138.743ZM56.383,158.577a2.243,2.243,0,1,1,2.243-2.243A2.245,2.245,0,0,1,56.383,158.577Zm15-15.349a2.243,2.243,0,1,1,2.243-2.243A2.245,2.245,0,0,1,71.387,143.228Zm16.359,16.69a2.243,2.243,0,1,1,2.243-2.243A2.246,2.246,0,0,1,87.746,159.918Z" transform="translate(-44.14 -116.883)"/>
      <path id="Trazado_1029535" data-name="Trazado 1029535" d="M132.662,128.824a1.4,1.4,0,1,0-.992-.411A1.414,1.414,0,0,0,132.662,128.824Z" transform="translate(-112.86 -108.355)"/>
      <path id="Trazado_1029536" data-name="Trazado 1029536" d="M47.4,128.825H54.13a1.4,1.4,0,0,0,0-2.8H47.4a1.4,1.4,0,0,0,0,2.8Z" transform="translate(-39.552 -108.355)"/>
      <path id="Trazado_1029537" data-name="Trazado 1029537" d="M54.13,176.825a1.4,1.4,0,0,0,0-2.8H47.4a1.4,1.4,0,1,0,0,2.8Z" transform="translate(-39.552 -149.627)"/>
    </g>
  </g>
</svg>
